<?xml version="1.0" encoding="utf-8" standalone="no"?>
<!DOCTYPE svg PUBLIC "-//W3C//DTD SVG 1.1//EN"
  "http://www.w3.org/Graphics/SVG/1.1/DTD/svg11.dtd">
<!-- Created with matplotlib (https://matplotlib.org/) -->
<svg height="288pt" version="1.1" viewBox="0 0 432 288" width="432pt" xmlns="http://www.w3.org/2000/svg" xmlns:xlink="http://www.w3.org/1999/xlink">
 <defs>
  <style type="text/css">
*{stroke-linecap:butt;stroke-linejoin:round;white-space:pre;}
  </style>
 </defs>
 <g id="figure_1">
  <g id="patch_1">
   <path d="M 0 288 
L 432 288 
L 432 0 
L 0 0 
z
" style="fill:#ffffff;"/>
  </g>
  <g id="axes_1">
   <g id="patch_2">
    <path d="M 54 252 
L 388.8 252 
L 388.8 34.56 
L 54 34.56 
z
" style="fill:#ffffff;"/>
   </g>
   <g id="matplotlib.axis_1">
    <g id="xtick_1">
     <g id="line2d_1">
      <defs>
       <path d="M 0 0 
L 0 3.5 
" id="m99770c7e50" style="stroke:#000000;stroke-width:0.8;"/>
      </defs>
      <g>
       <use style="stroke:#000000;stroke-width:0.8;" x="69.218182" xlink:href="#m99770c7e50" y="252"/>
      </g>
     </g>
     <g id="text_1">
      <!-- 0 -->
      <defs>
       <path d="M 31.78125 66.40625 
Q 24.171875 66.40625 20.328125 58.90625 
Q 16.5 51.421875 16.5 36.375 
Q 16.5 21.390625 20.328125 13.890625 
Q 24.171875 6.390625 31.78125 6.390625 
Q 39.453125 6.390625 43.28125 13.890625 
Q 47.125 21.390625 47.125 36.375 
Q 47.125 51.421875 43.28125 58.90625 
Q 39.453125 66.40625 31.78125 66.40625 
z
M 31.78125 74.21875 
Q 44.046875 74.21875 50.515625 64.515625 
Q 56.984375 54.828125 56.984375 36.375 
Q 56.984375 17.96875 50.515625 8.265625 
Q 44.046875 -1.421875 31.78125 -1.421875 
Q 19.53125 -1.421875 13.0625 8.265625 
Q 6.59375 17.96875 6.59375 36.375 
Q 6.59375 54.828125 13.0625 64.515625 
Q 19.53125 74.21875 31.78125 74.21875 
z
" id="DejaVuSans-48"/>
      </defs>
      <g transform="translate(66.036932 266.598437)scale(0.1 -0.1)">
       <use xlink:href="#DejaVuSans-48"/>
      </g>
     </g>
    </g>
    <g id="xtick_2">
     <g id="line2d_2">
      <g>
       <use style="stroke:#000000;stroke-width:0.8;" x="107.45482" xlink:href="#m99770c7e50" y="252"/>
      </g>
     </g>
     <g id="text_2">
      <!-- 25 -->
      <defs>
       <path d="M 19.1875 8.296875 
L 53.609375 8.296875 
L 53.609375 0 
L 7.328125 0 
L 7.328125 8.296875 
Q 12.9375 14.109375 22.625 23.890625 
Q 32.328125 33.6875 34.8125 36.53125 
Q 39.546875 41.84375 41.421875 45.53125 
Q 43.3125 49.21875 43.3125 52.78125 
Q 43.3125 58.59375 39.234375 62.25 
Q 35.15625 65.921875 28.609375 65.921875 
Q 23.96875 65.921875 18.8125 64.3125 
Q 13.671875 62.703125 7.8125 59.421875 
L 7.8125 69.390625 
Q 13.765625 71.78125 18.9375 73 
Q 24.125 74.21875 28.421875 74.21875 
Q 39.75 74.21875 46.484375 68.546875 
Q 53.21875 62.890625 53.21875 53.421875 
Q 53.21875 48.921875 51.53125 44.890625 
Q 49.859375 40.875 45.40625 35.40625 
Q 44.1875 33.984375 37.640625 27.21875 
Q 31.109375 20.453125 19.1875 8.296875 
z
" id="DejaVuSans-50"/>
       <path d="M 10.796875 72.90625 
L 49.515625 72.90625 
L 49.515625 64.59375 
L 19.828125 64.59375 
L 19.828125 46.734375 
Q 21.96875 47.46875 24.109375 47.828125 
Q 26.265625 48.1875 28.421875 48.1875 
Q 40.625 48.1875 47.75 41.5 
Q 54.890625 34.8125 54.890625 23.390625 
Q 54.890625 11.625 47.5625 5.09375 
Q 40.234375 -1.421875 26.90625 -1.421875 
Q 22.3125 -1.421875 17.546875 -0.640625 
Q 12.796875 0.140625 7.71875 1.703125 
L 7.71875 11.625 
Q 12.109375 9.234375 16.796875 8.0625 
Q 21.484375 6.890625 26.703125 6.890625 
Q 35.15625 6.890625 40.078125 11.328125 
Q 45.015625 15.765625 45.015625 23.390625 
Q 45.015625 31 40.078125 35.4375 
Q 35.15625 39.890625 26.703125 39.890625 
Q 22.75 39.890625 18.8125 39.015625 
Q 14.890625 38.140625 10.796875 36.28125 
z
" id="DejaVuSans-53"/>
      </defs>
      <g transform="translate(101.09232 266.598437)scale(0.1 -0.1)">
       <use xlink:href="#DejaVuSans-50"/>
       <use x="63.623047" xlink:href="#DejaVuSans-53"/>
      </g>
     </g>
    </g>
    <g id="xtick_3">
     <g id="line2d_3">
      <g>
       <use style="stroke:#000000;stroke-width:0.8;" x="145.691457" xlink:href="#m99770c7e50" y="252"/>
      </g>
     </g>
     <g id="text_3">
      <!-- 50 -->
      <g transform="translate(139.328957 266.598437)scale(0.1 -0.1)">
       <use xlink:href="#DejaVuSans-53"/>
       <use x="63.623047" xlink:href="#DejaVuSans-48"/>
      </g>
     </g>
    </g>
    <g id="xtick_4">
     <g id="line2d_4">
      <g>
       <use style="stroke:#000000;stroke-width:0.8;" x="183.928095" xlink:href="#m99770c7e50" y="252"/>
      </g>
     </g>
     <g id="text_4">
      <!-- 75 -->
      <defs>
       <path d="M 8.203125 72.90625 
L 55.078125 72.90625 
L 55.078125 68.703125 
L 28.609375 0 
L 18.3125 0 
L 43.21875 64.59375 
L 8.203125 64.59375 
z
" id="DejaVuSans-55"/>
      </defs>
      <g transform="translate(177.565595 266.598437)scale(0.1 -0.1)">
       <use xlink:href="#DejaVuSans-55"/>
       <use x="63.623047" xlink:href="#DejaVuSans-53"/>
      </g>
     </g>
    </g>
    <g id="xtick_5">
     <g id="line2d_5">
      <g>
       <use style="stroke:#000000;stroke-width:0.8;" x="222.164733" xlink:href="#m99770c7e50" y="252"/>
      </g>
     </g>
     <g id="text_5">
      <!-- 100 -->
      <defs>
       <path d="M 12.40625 8.296875 
L 28.515625 8.296875 
L 28.515625 63.921875 
L 10.984375 60.40625 
L 10.984375 69.390625 
L 28.421875 72.90625 
L 38.28125 72.90625 
L 38.28125 8.296875 
L 54.390625 8.296875 
L 54.390625 0 
L 12.40625 0 
z
" id="DejaVuSans-49"/>
      </defs>
      <g transform="translate(212.620983 266.598437)scale(0.1 -0.1)">
       <use xlink:href="#DejaVuSans-49"/>
       <use x="63.623047" xlink:href="#DejaVuSans-48"/>
       <use x="127.246094" xlink:href="#DejaVuSans-48"/>
      </g>
     </g>
    </g>
    <g id="xtick_6">
     <g id="line2d_6">
      <g>
       <use style="stroke:#000000;stroke-width:0.8;" x="260.40137" xlink:href="#m99770c7e50" y="252"/>
      </g>
     </g>
     <g id="text_6">
      <!-- 125 -->
      <g transform="translate(250.85762 266.598437)scale(0.1 -0.1)">
       <use xlink:href="#DejaVuSans-49"/>
       <use x="63.623047" xlink:href="#DejaVuSans-50"/>
       <use x="127.246094" xlink:href="#DejaVuSans-53"/>
      </g>
     </g>
    </g>
    <g id="xtick_7">
     <g id="line2d_7">
      <g>
       <use style="stroke:#000000;stroke-width:0.8;" x="298.638008" xlink:href="#m99770c7e50" y="252"/>
      </g>
     </g>
     <g id="text_7">
      <!-- 150 -->
      <g transform="translate(289.094258 266.598437)scale(0.1 -0.1)">
       <use xlink:href="#DejaVuSans-49"/>
       <use x="63.623047" xlink:href="#DejaVuSans-53"/>
       <use x="127.246094" xlink:href="#DejaVuSans-48"/>
      </g>
     </g>
    </g>
    <g id="xtick_8">
     <g id="line2d_8">
      <g>
       <use style="stroke:#000000;stroke-width:0.8;" x="336.874646" xlink:href="#m99770c7e50" y="252"/>
      </g>
     </g>
     <g id="text_8">
      <!-- 175 -->
      <g transform="translate(327.330896 266.598437)scale(0.1 -0.1)">
       <use xlink:href="#DejaVuSans-49"/>
       <use x="63.623047" xlink:href="#DejaVuSans-55"/>
       <use x="127.246094" xlink:href="#DejaVuSans-53"/>
      </g>
     </g>
    </g>
    <g id="xtick_9">
     <g id="line2d_9">
      <g>
       <use style="stroke:#000000;stroke-width:0.8;" x="375.111284" xlink:href="#m99770c7e50" y="252"/>
      </g>
     </g>
     <g id="text_9">
      <!-- 200 -->
      <g transform="translate(365.567534 266.598437)scale(0.1 -0.1)">
       <use xlink:href="#DejaVuSans-50"/>
       <use x="63.623047" xlink:href="#DejaVuSans-48"/>
       <use x="127.246094" xlink:href="#DejaVuSans-48"/>
      </g>
     </g>
    </g>
   </g>
   <g id="matplotlib.axis_2">
    <g id="ytick_1">
     <g id="line2d_10">
      <defs>
       <path d="M 0 0 
L -3.5 0 
" id="me84bceae35" style="stroke:#000000;stroke-width:0.8;"/>
      </defs>
      <g>
       <use style="stroke:#000000;stroke-width:0.8;" x="54" xlink:href="#me84bceae35" y="230.760871"/>
      </g>
     </g>
     <g id="text_10">
      <!-- 1.6 -->
      <defs>
       <path d="M 10.6875 12.40625 
L 21 12.40625 
L 21 0 
L 10.6875 0 
z
" id="DejaVuSans-46"/>
       <path d="M 33.015625 40.375 
Q 26.375 40.375 22.484375 35.828125 
Q 18.609375 31.296875 18.609375 23.390625 
Q 18.609375 15.53125 22.484375 10.953125 
Q 26.375 6.390625 33.015625 6.390625 
Q 39.65625 6.390625 43.53125 10.953125 
Q 47.40625 15.53125 47.40625 23.390625 
Q 47.40625 31.296875 43.53125 35.828125 
Q 39.65625 40.375 33.015625 40.375 
z
M 52.59375 71.296875 
L 52.59375 62.3125 
Q 48.875 64.0625 45.09375 64.984375 
Q 41.3125 65.921875 37.59375 65.921875 
Q 27.828125 65.921875 22.671875 59.328125 
Q 17.53125 52.734375 16.796875 39.40625 
Q 19.671875 43.65625 24.015625 45.921875 
Q 28.375 48.1875 33.59375 48.1875 
Q 44.578125 48.1875 50.953125 41.515625 
Q 57.328125 34.859375 57.328125 23.390625 
Q 57.328125 12.15625 50.6875 5.359375 
Q 44.046875 -1.421875 33.015625 -1.421875 
Q 20.359375 -1.421875 13.671875 8.265625 
Q 6.984375 17.96875 6.984375 36.375 
Q 6.984375 53.65625 15.1875 63.9375 
Q 23.390625 74.21875 37.203125 74.21875 
Q 40.921875 74.21875 44.703125 73.484375 
Q 48.484375 72.75 52.59375 71.296875 
z
" id="DejaVuSans-54"/>
      </defs>
      <g transform="translate(31.096875 234.56009)scale(0.1 -0.1)">
       <use xlink:href="#DejaVuSans-49"/>
       <use x="63.623047" xlink:href="#DejaVuSans-46"/>
       <use x="95.410156" xlink:href="#DejaVuSans-54"/>
      </g>
     </g>
    </g>
    <g id="ytick_2">
     <g id="line2d_11">
      <g>
       <use style="stroke:#000000;stroke-width:0.8;" x="54" xlink:href="#me84bceae35" y="204.865095"/>
      </g>
     </g>
     <g id="text_11">
      <!-- 1.8 -->
      <defs>
       <path d="M 31.78125 34.625 
Q 24.75 34.625 20.71875 30.859375 
Q 16.703125 27.09375 16.703125 20.515625 
Q 16.703125 13.921875 20.71875 10.15625 
Q 24.75 6.390625 31.78125 6.390625 
Q 38.8125 6.390625 42.859375 10.171875 
Q 46.921875 13.96875 46.921875 20.515625 
Q 46.921875 27.09375 42.890625 30.859375 
Q 38.875 34.625 31.78125 34.625 
z
M 21.921875 38.8125 
Q 15.578125 40.375 12.03125 44.71875 
Q 8.5 49.078125 8.5 55.328125 
Q 8.5 64.0625 14.71875 69.140625 
Q 20.953125 74.21875 31.78125 74.21875 
Q 42.671875 74.21875 48.875 69.140625 
Q 55.078125 64.0625 55.078125 55.328125 
Q 55.078125 49.078125 51.53125 44.71875 
Q 48 40.375 41.703125 38.8125 
Q 48.828125 37.15625 52.796875 32.3125 
Q 56.78125 27.484375 56.78125 20.515625 
Q 56.78125 9.90625 50.3125 4.234375 
Q 43.84375 -1.421875 31.78125 -1.421875 
Q 19.734375 -1.421875 13.25 4.234375 
Q 6.78125 9.90625 6.78125 20.515625 
Q 6.78125 27.484375 10.78125 32.3125 
Q 14.796875 37.15625 21.921875 38.8125 
z
M 18.3125 54.390625 
Q 18.3125 48.734375 21.84375 45.5625 
Q 25.390625 42.390625 31.78125 42.390625 
Q 38.140625 42.390625 41.71875 45.5625 
Q 45.3125 48.734375 45.3125 54.390625 
Q 45.3125 60.0625 41.71875 63.234375 
Q 38.140625 66.40625 31.78125 66.40625 
Q 25.390625 66.40625 21.84375 63.234375 
Q 18.3125 60.0625 18.3125 54.390625 
z
" id="DejaVuSans-56"/>
      </defs>
      <g transform="translate(31.096875 208.664314)scale(0.1 -0.1)">
       <use xlink:href="#DejaVuSans-49"/>
       <use x="63.623047" xlink:href="#DejaVuSans-46"/>
       <use x="95.410156" xlink:href="#DejaVuSans-56"/>
      </g>
     </g>
    </g>
    <g id="ytick_3">
     <g id="line2d_12">
      <g>
       <use style="stroke:#000000;stroke-width:0.8;" x="54" xlink:href="#me84bceae35" y="178.969319"/>
      </g>
     </g>
     <g id="text_12">
      <!-- 2.0 -->
      <g transform="translate(31.096875 182.768538)scale(0.1 -0.1)">
       <use xlink:href="#DejaVuSans-50"/>
       <use x="63.623047" xlink:href="#DejaVuSans-46"/>
       <use x="95.410156" xlink:href="#DejaVuSans-48"/>
      </g>
     </g>
    </g>
    <g id="ytick_4">
     <g id="line2d_13">
      <g>
       <use style="stroke:#000000;stroke-width:0.8;" x="54" xlink:href="#me84bceae35" y="153.073543"/>
      </g>
     </g>
     <g id="text_13">
      <!-- 2.2 -->
      <g transform="translate(31.096875 156.872762)scale(0.1 -0.1)">
       <use xlink:href="#DejaVuSans-50"/>
       <use x="63.623047" xlink:href="#DejaVuSans-46"/>
       <use x="95.410156" xlink:href="#DejaVuSans-50"/>
      </g>
     </g>
    </g>
    <g id="ytick_5">
     <g id="line2d_14">
      <g>
       <use style="stroke:#000000;stroke-width:0.8;" x="54" xlink:href="#me84bceae35" y="127.177767"/>
      </g>
     </g>
     <g id="text_14">
      <!-- 2.4 -->
      <defs>
       <path d="M 37.796875 64.3125 
L 12.890625 25.390625 
L 37.796875 25.390625 
z
M 35.203125 72.90625 
L 47.609375 72.90625 
L 47.609375 25.390625 
L 58.015625 25.390625 
L 58.015625 17.1875 
L 47.609375 17.1875 
L 47.609375 0 
L 37.796875 0 
L 37.796875 17.1875 
L 4.890625 17.1875 
L 4.890625 26.703125 
z
" id="DejaVuSans-52"/>
      </defs>
      <g transform="translate(31.096875 130.976986)scale(0.1 -0.1)">
       <use xlink:href="#DejaVuSans-50"/>
       <use x="63.623047" xlink:href="#DejaVuSans-46"/>
       <use x="95.410156" xlink:href="#DejaVuSans-52"/>
      </g>
     </g>
    </g>
    <g id="ytick_6">
     <g id="line2d_15">
      <g>
       <use style="stroke:#000000;stroke-width:0.8;" x="54" xlink:href="#me84bceae35" y="101.281991"/>
      </g>
     </g>
     <g id="text_15">
      <!-- 2.6 -->
      <g transform="translate(31.096875 105.08121)scale(0.1 -0.1)">
       <use xlink:href="#DejaVuSans-50"/>
       <use x="63.623047" xlink:href="#DejaVuSans-46"/>
       <use x="95.410156" xlink:href="#DejaVuSans-54"/>
      </g>
     </g>
    </g>
    <g id="ytick_7">
     <g id="line2d_16">
      <g>
       <use style="stroke:#000000;stroke-width:0.8;" x="54" xlink:href="#me84bceae35" y="75.386215"/>
      </g>
     </g>
     <g id="text_16">
      <!-- 2.8 -->
      <g transform="translate(31.096875 79.185434)scale(0.1 -0.1)">
       <use xlink:href="#DejaVuSans-50"/>
       <use x="63.623047" xlink:href="#DejaVuSans-46"/>
       <use x="95.410156" xlink:href="#DejaVuSans-56"/>
      </g>
     </g>
    </g>
    <g id="ytick_8">
     <g id="line2d_17">
      <g>
       <use style="stroke:#000000;stroke-width:0.8;" x="54" xlink:href="#me84bceae35" y="49.490439"/>
      </g>
     </g>
     <g id="text_17">
      <!-- 3.0 -->
      <defs>
       <path d="M 40.578125 39.3125 
Q 47.65625 37.796875 51.625 33 
Q 55.609375 28.21875 55.609375 21.1875 
Q 55.609375 10.40625 48.1875 4.484375 
Q 40.765625 -1.421875 27.09375 -1.421875 
Q 22.515625 -1.421875 17.65625 -0.515625 
Q 12.796875 0.390625 7.625 2.203125 
L 7.625 11.71875 
Q 11.71875 9.328125 16.59375 8.109375 
Q 21.484375 6.890625 26.8125 6.890625 
Q 36.078125 6.890625 40.9375 10.546875 
Q 45.796875 14.203125 45.796875 21.1875 
Q 45.796875 27.640625 41.28125 31.265625 
Q 36.765625 34.90625 28.71875 34.90625 
L 20.21875 34.90625 
L 20.21875 43.015625 
L 29.109375 43.015625 
Q 36.375 43.015625 40.234375 45.921875 
Q 44.09375 48.828125 44.09375 54.296875 
Q 44.09375 59.90625 40.109375 62.90625 
Q 36.140625 65.921875 28.71875 65.921875 
Q 24.65625 65.921875 20.015625 65.03125 
Q 15.375 64.15625 9.8125 62.3125 
L 9.8125 71.09375 
Q 15.4375 72.65625 20.34375 73.4375 
Q 25.25 74.21875 29.59375 74.21875 
Q 40.828125 74.21875 47.359375 69.109375 
Q 53.90625 64.015625 53.90625 55.328125 
Q 53.90625 49.265625 50.4375 45.09375 
Q 46.96875 40.921875 40.578125 39.3125 
z
" id="DejaVuSans-51"/>
      </defs>
      <g transform="translate(31.096875 53.289658)scale(0.1 -0.1)">
       <use xlink:href="#DejaVuSans-51"/>
       <use x="63.623047" xlink:href="#DejaVuSans-46"/>
       <use x="95.410156" xlink:href="#DejaVuSans-48"/>
      </g>
     </g>
    </g>
   </g>
   <g id="line2d_18">
    <path clip-path="url(#p088ad0c733)" d="M 69.218182 74.461369 
L 70.747647 77.827844 
L 76.865509 88.209392 
L 82.983371 99.219427 
L 87.571768 107.760198 
L 92.160164 116.41106 
L 96.748561 125.356193 
L 98.278026 128.073054 
L 99.807492 131.024852 
L 104.395889 139.05766 
L 107.45482 143.873398 
L 110.513751 148.411134 
L 112.043216 150.407579 
L 113.572682 152.593898 
L 116.631613 156.356364 
L 118.161078 157.857936 
L 119.690544 159.849606 
L 121.220009 161.542219 
L 122.749475 162.893722 
L 124.27894 164.694054 
L 127.337871 167.651138 
L 128.867337 168.601464 
L 130.396802 169.98504 
L 131.926268 171.622236 
L 133.455733 172.610646 
L 134.985199 174.015892 
L 136.514664 175.236958 
L 138.04413 176.166115 
L 145.691457 181.644413 
L 147.220923 182.36384 
L 150.279854 184.224732 
L 151.809319 184.754294 
L 153.338785 185.824083 
L 154.86825 187.280138 
L 156.397716 187.519252 
L 157.927181 188.544768 
L 159.456647 189.342296 
L 160.986112 189.885003 
L 162.515578 190.559798 
L 164.045043 191.724976 
L 165.574509 192.214149 
L 167.103974 192.382878 
L 168.63344 193.756633 
L 170.162905 194.358521 
L 171.692371 195.332219 
L 176.280767 196.991816 
L 177.810233 197.882899 
L 180.869164 198.97909 
L 183.928095 200.28017 
L 185.457561 200.392844 
L 188.516492 201.761945 
L 190.045957 202.036555 
L 193.104888 203.232672 
L 194.634354 203.966063 
L 196.163819 204.138335 
L 197.693285 204.564981 
L 199.22275 205.752945 
L 200.752216 205.698834 
L 202.281681 206.969329 
L 203.811147 206.940756 
L 205.340612 207.728899 
L 206.870078 208.028668 
L 208.399543 208.609137 
L 209.929009 208.747051 
L 211.458474 209.07197 
L 212.98794 209.592997 
L 214.517405 210.399666 
L 216.046871 210.512911 
L 217.576336 211.034405 
L 219.105802 211.878611 
L 220.635267 212.101261 
L 223.694198 212.37551 
L 225.223664 213.203598 
L 226.753129 214.225978 
L 229.81206 214.012065 
L 231.341526 214.898744 
L 234.400457 216.1298 
L 235.929922 216.178519 
L 237.459388 216.746836 
L 238.988853 216.54832 
L 240.518319 217.536447 
L 242.047784 217.472439 
L 243.57725 218.174574 
L 246.636181 218.839484 
L 248.165646 219.471092 
L 249.695112 219.366855 
L 251.224577 219.961673 
L 252.754043 220.79234 
L 254.283508 220.429042 
L 255.812974 220.989078 
L 257.342439 221.327893 
L 258.871905 221.40485 
L 261.930836 222.106146 
L 264.989767 223.226642 
L 266.519233 223.045434 
L 268.048698 223.723048 
L 269.578164 223.916524 
L 272.637095 224.735084 
L 274.16656 224.45962 
L 275.696026 225.771918 
L 277.225491 225.748556 
L 278.754957 225.142949 
L 280.284422 226.247487 
L 281.813888 226.478629 
L 283.343353 226.470644 
L 284.872819 227.226602 
L 286.402284 227.203517 
L 294.049612 228.853066 
L 295.579077 229.18702 
L 297.108543 229.682996 
L 298.638008 229.438264 
L 300.167474 230.342503 
L 301.696939 229.986083 
L 303.226405 230.931771 
L 304.75587 230.787559 
L 307.814801 231.777909 
L 309.344267 231.469665 
L 310.873732 231.903577 
L 312.403198 232.057542 
L 313.932663 232.562964 
L 315.462129 232.403096 
L 316.991594 232.987096 
L 318.52106 233.180055 
L 320.050525 233.721259 
L 321.579991 233.995661 
L 323.109456 233.806554 
L 324.638922 234.699009 
L 326.168387 234.500086 
L 329.227318 234.977147 
L 330.756784 235.46888 
L 333.815715 235.83519 
L 335.34518 236.252264 
L 336.874646 235.930171 
L 338.404111 236.296222 
L 339.933577 237.176903 
L 341.463042 237.004911 
L 342.992508 237.540461 
L 344.521974 237.593775 
L 346.051439 237.908289 
L 347.580905 237.733871 
L 349.11037 237.742334 
L 352.169301 238.405527 
L 353.698767 238.924199 
L 355.228232 239.321778 
L 356.757698 240.220336 
L 358.287163 240.105733 
L 359.816629 239.473076 
L 361.346094 239.592096 
L 362.87556 240.344957 
L 364.405025 240.56736 
L 365.934491 240.314571 
L 367.463956 241.137017 
L 368.993422 241.342458 
L 370.522887 241.417179 
L 372.052353 241.12667 
L 373.581818 242.116364 
L 373.581818 242.116364 
" style="fill:none;stroke:#0000ff;stroke-linecap:square;stroke-width:1.5;"/>
    <defs>
     <path d="M 0 3 
C 0.795609 3 1.55874 2.683901 2.12132 2.12132 
C 2.683901 1.55874 3 0.795609 3 0 
C 3 -0.795609 2.683901 -1.55874 2.12132 -2.12132 
C 1.55874 -2.683901 0.795609 -3 0 -3 
C -0.795609 -3 -1.55874 -2.683901 -2.12132 -2.12132 
C -2.683901 -1.55874 -3 -0.795609 -3 0 
C -3 0.795609 -2.683901 1.55874 -2.12132 2.12132 
C -1.55874 2.683901 -0.795609 3 0 3 
z
" id="mb8ee26d166" style="stroke:#0000ff;"/>
    </defs>
    <g clip-path="url(#p088ad0c733)">
     <use style="fill:#0000ff;stroke:#0000ff;" x="69.218182" xlink:href="#mb8ee26d166" y="74.461369"/>
     <use style="fill:#0000ff;stroke:#0000ff;" x="70.747647" xlink:href="#mb8ee26d166" y="77.827844"/>
     <use style="fill:#0000ff;stroke:#0000ff;" x="72.277113" xlink:href="#mb8ee26d166" y="80.398257"/>
     <use style="fill:#0000ff;stroke:#0000ff;" x="73.806578" xlink:href="#mb8ee26d166" y="82.965122"/>
     <use style="fill:#0000ff;stroke:#0000ff;" x="75.336044" xlink:href="#mb8ee26d166" y="85.531112"/>
     <use style="fill:#0000ff;stroke:#0000ff;" x="76.865509" xlink:href="#mb8ee26d166" y="88.209392"/>
     <use style="fill:#0000ff;stroke:#0000ff;" x="78.394975" xlink:href="#mb8ee26d166" y="90.913006"/>
     <use style="fill:#0000ff;stroke:#0000ff;" x="79.92444" xlink:href="#mb8ee26d166" y="93.617545"/>
     <use style="fill:#0000ff;stroke:#0000ff;" x="81.453906" xlink:href="#mb8ee26d166" y="96.381623"/>
     <use style="fill:#0000ff;stroke:#0000ff;" x="82.983371" xlink:href="#mb8ee26d166" y="99.219427"/>
     <use style="fill:#0000ff;stroke:#0000ff;" x="84.512837" xlink:href="#mb8ee26d166" y="102.002422"/>
     <use style="fill:#0000ff;stroke:#0000ff;" x="86.042302" xlink:href="#mb8ee26d166" y="104.865872"/>
     <use style="fill:#0000ff;stroke:#0000ff;" x="87.571768" xlink:href="#mb8ee26d166" y="107.760198"/>
     <use style="fill:#0000ff;stroke:#0000ff;" x="89.101233" xlink:href="#mb8ee26d166" y="110.592527"/>
     <use style="fill:#0000ff;stroke:#0000ff;" x="90.630699" xlink:href="#mb8ee26d166" y="113.51718"/>
     <use style="fill:#0000ff;stroke:#0000ff;" x="92.160164" xlink:href="#mb8ee26d166" y="116.41106"/>
     <use style="fill:#0000ff;stroke:#0000ff;" x="93.68963" xlink:href="#mb8ee26d166" y="119.40972"/>
     <use style="fill:#0000ff;stroke:#0000ff;" x="95.219095" xlink:href="#mb8ee26d166" y="122.227427"/>
     <use style="fill:#0000ff;stroke:#0000ff;" x="96.748561" xlink:href="#mb8ee26d166" y="125.356193"/>
     <use style="fill:#0000ff;stroke:#0000ff;" x="98.278026" xlink:href="#mb8ee26d166" y="128.073054"/>
     <use style="fill:#0000ff;stroke:#0000ff;" x="99.807492" xlink:href="#mb8ee26d166" y="131.024852"/>
     <use style="fill:#0000ff;stroke:#0000ff;" x="101.336958" xlink:href="#mb8ee26d166" y="133.729713"/>
     <use style="fill:#0000ff;stroke:#0000ff;" x="102.866423" xlink:href="#mb8ee26d166" y="136.499253"/>
     <use style="fill:#0000ff;stroke:#0000ff;" x="104.395889" xlink:href="#mb8ee26d166" y="139.05766"/>
     <use style="fill:#0000ff;stroke:#0000ff;" x="105.925354" xlink:href="#mb8ee26d166" y="141.497388"/>
     <use style="fill:#0000ff;stroke:#0000ff;" x="107.45482" xlink:href="#mb8ee26d166" y="143.873398"/>
     <use style="fill:#0000ff;stroke:#0000ff;" x="108.984285" xlink:href="#mb8ee26d166" y="146.160464"/>
     <use style="fill:#0000ff;stroke:#0000ff;" x="110.513751" xlink:href="#mb8ee26d166" y="148.411134"/>
     <use style="fill:#0000ff;stroke:#0000ff;" x="112.043216" xlink:href="#mb8ee26d166" y="150.407579"/>
     <use style="fill:#0000ff;stroke:#0000ff;" x="113.572682" xlink:href="#mb8ee26d166" y="152.593898"/>
     <use style="fill:#0000ff;stroke:#0000ff;" x="115.102147" xlink:href="#mb8ee26d166" y="154.559168"/>
     <use style="fill:#0000ff;stroke:#0000ff;" x="116.631613" xlink:href="#mb8ee26d166" y="156.356364"/>
     <use style="fill:#0000ff;stroke:#0000ff;" x="118.161078" xlink:href="#mb8ee26d166" y="157.857936"/>
     <use style="fill:#0000ff;stroke:#0000ff;" x="119.690544" xlink:href="#mb8ee26d166" y="159.849606"/>
     <use style="fill:#0000ff;stroke:#0000ff;" x="121.220009" xlink:href="#mb8ee26d166" y="161.542219"/>
     <use style="fill:#0000ff;stroke:#0000ff;" x="122.749475" xlink:href="#mb8ee26d166" y="162.893722"/>
     <use style="fill:#0000ff;stroke:#0000ff;" x="124.27894" xlink:href="#mb8ee26d166" y="164.694054"/>
     <use style="fill:#0000ff;stroke:#0000ff;" x="125.808406" xlink:href="#mb8ee26d166" y="166.20226"/>
     <use style="fill:#0000ff;stroke:#0000ff;" x="127.337871" xlink:href="#mb8ee26d166" y="167.651138"/>
     <use style="fill:#0000ff;stroke:#0000ff;" x="128.867337" xlink:href="#mb8ee26d166" y="168.601464"/>
     <use style="fill:#0000ff;stroke:#0000ff;" x="130.396802" xlink:href="#mb8ee26d166" y="169.98504"/>
     <use style="fill:#0000ff;stroke:#0000ff;" x="131.926268" xlink:href="#mb8ee26d166" y="171.622236"/>
     <use style="fill:#0000ff;stroke:#0000ff;" x="133.455733" xlink:href="#mb8ee26d166" y="172.610646"/>
     <use style="fill:#0000ff;stroke:#0000ff;" x="134.985199" xlink:href="#mb8ee26d166" y="174.015892"/>
     <use style="fill:#0000ff;stroke:#0000ff;" x="136.514664" xlink:href="#mb8ee26d166" y="175.236958"/>
     <use style="fill:#0000ff;stroke:#0000ff;" x="138.04413" xlink:href="#mb8ee26d166" y="176.166115"/>
     <use style="fill:#0000ff;stroke:#0000ff;" x="139.573595" xlink:href="#mb8ee26d166" y="177.246397"/>
     <use style="fill:#0000ff;stroke:#0000ff;" x="141.103061" xlink:href="#mb8ee26d166" y="178.434124"/>
     <use style="fill:#0000ff;stroke:#0000ff;" x="142.632526" xlink:href="#mb8ee26d166" y="179.405554"/>
     <use style="fill:#0000ff;stroke:#0000ff;" x="144.161992" xlink:href="#mb8ee26d166" y="180.420948"/>
     <use style="fill:#0000ff;stroke:#0000ff;" x="145.691457" xlink:href="#mb8ee26d166" y="181.644413"/>
     <use style="fill:#0000ff;stroke:#0000ff;" x="147.220923" xlink:href="#mb8ee26d166" y="182.36384"/>
     <use style="fill:#0000ff;stroke:#0000ff;" x="148.750388" xlink:href="#mb8ee26d166" y="183.293596"/>
     <use style="fill:#0000ff;stroke:#0000ff;" x="150.279854" xlink:href="#mb8ee26d166" y="184.224732"/>
     <use style="fill:#0000ff;stroke:#0000ff;" x="151.809319" xlink:href="#mb8ee26d166" y="184.754294"/>
     <use style="fill:#0000ff;stroke:#0000ff;" x="153.338785" xlink:href="#mb8ee26d166" y="185.824083"/>
     <use style="fill:#0000ff;stroke:#0000ff;" x="154.86825" xlink:href="#mb8ee26d166" y="187.280138"/>
     <use style="fill:#0000ff;stroke:#0000ff;" x="156.397716" xlink:href="#mb8ee26d166" y="187.519252"/>
     <use style="fill:#0000ff;stroke:#0000ff;" x="157.927181" xlink:href="#mb8ee26d166" y="188.544768"/>
     <use style="fill:#0000ff;stroke:#0000ff;" x="159.456647" xlink:href="#mb8ee26d166" y="189.342296"/>
     <use style="fill:#0000ff;stroke:#0000ff;" x="160.986112" xlink:href="#mb8ee26d166" y="189.885003"/>
     <use style="fill:#0000ff;stroke:#0000ff;" x="162.515578" xlink:href="#mb8ee26d166" y="190.559798"/>
     <use style="fill:#0000ff;stroke:#0000ff;" x="164.045043" xlink:href="#mb8ee26d166" y="191.724976"/>
     <use style="fill:#0000ff;stroke:#0000ff;" x="165.574509" xlink:href="#mb8ee26d166" y="192.214149"/>
     <use style="fill:#0000ff;stroke:#0000ff;" x="167.103974" xlink:href="#mb8ee26d166" y="192.382878"/>
     <use style="fill:#0000ff;stroke:#0000ff;" x="168.63344" xlink:href="#mb8ee26d166" y="193.756633"/>
     <use style="fill:#0000ff;stroke:#0000ff;" x="170.162905" xlink:href="#mb8ee26d166" y="194.358521"/>
     <use style="fill:#0000ff;stroke:#0000ff;" x="171.692371" xlink:href="#mb8ee26d166" y="195.332219"/>
     <use style="fill:#0000ff;stroke:#0000ff;" x="173.221836" xlink:href="#mb8ee26d166" y="195.8668"/>
     <use style="fill:#0000ff;stroke:#0000ff;" x="174.751302" xlink:href="#mb8ee26d166" y="196.307679"/>
     <use style="fill:#0000ff;stroke:#0000ff;" x="176.280767" xlink:href="#mb8ee26d166" y="196.991816"/>
     <use style="fill:#0000ff;stroke:#0000ff;" x="177.810233" xlink:href="#mb8ee26d166" y="197.882899"/>
     <use style="fill:#0000ff;stroke:#0000ff;" x="179.339698" xlink:href="#mb8ee26d166" y="198.432594"/>
     <use style="fill:#0000ff;stroke:#0000ff;" x="180.869164" xlink:href="#mb8ee26d166" y="198.97909"/>
     <use style="fill:#0000ff;stroke:#0000ff;" x="182.39863" xlink:href="#mb8ee26d166" y="199.657015"/>
     <use style="fill:#0000ff;stroke:#0000ff;" x="183.928095" xlink:href="#mb8ee26d166" y="200.28017"/>
     <use style="fill:#0000ff;stroke:#0000ff;" x="185.457561" xlink:href="#mb8ee26d166" y="200.392844"/>
     <use style="fill:#0000ff;stroke:#0000ff;" x="186.987026" xlink:href="#mb8ee26d166" y="201.074345"/>
     <use style="fill:#0000ff;stroke:#0000ff;" x="188.516492" xlink:href="#mb8ee26d166" y="201.761945"/>
     <use style="fill:#0000ff;stroke:#0000ff;" x="190.045957" xlink:href="#mb8ee26d166" y="202.036555"/>
     <use style="fill:#0000ff;stroke:#0000ff;" x="191.575423" xlink:href="#mb8ee26d166" y="202.600675"/>
     <use style="fill:#0000ff;stroke:#0000ff;" x="193.104888" xlink:href="#mb8ee26d166" y="203.232672"/>
     <use style="fill:#0000ff;stroke:#0000ff;" x="194.634354" xlink:href="#mb8ee26d166" y="203.966063"/>
     <use style="fill:#0000ff;stroke:#0000ff;" x="196.163819" xlink:href="#mb8ee26d166" y="204.138335"/>
     <use style="fill:#0000ff;stroke:#0000ff;" x="197.693285" xlink:href="#mb8ee26d166" y="204.564981"/>
     <use style="fill:#0000ff;stroke:#0000ff;" x="199.22275" xlink:href="#mb8ee26d166" y="205.752945"/>
     <use style="fill:#0000ff;stroke:#0000ff;" x="200.752216" xlink:href="#mb8ee26d166" y="205.698834"/>
     <use style="fill:#0000ff;stroke:#0000ff;" x="202.281681" xlink:href="#mb8ee26d166" y="206.969329"/>
     <use style="fill:#0000ff;stroke:#0000ff;" x="203.811147" xlink:href="#mb8ee26d166" y="206.940756"/>
     <use style="fill:#0000ff;stroke:#0000ff;" x="205.340612" xlink:href="#mb8ee26d166" y="207.728899"/>
     <use style="fill:#0000ff;stroke:#0000ff;" x="206.870078" xlink:href="#mb8ee26d166" y="208.028668"/>
     <use style="fill:#0000ff;stroke:#0000ff;" x="208.399543" xlink:href="#mb8ee26d166" y="208.609137"/>
     <use style="fill:#0000ff;stroke:#0000ff;" x="209.929009" xlink:href="#mb8ee26d166" y="208.747051"/>
     <use style="fill:#0000ff;stroke:#0000ff;" x="211.458474" xlink:href="#mb8ee26d166" y="209.07197"/>
     <use style="fill:#0000ff;stroke:#0000ff;" x="212.98794" xlink:href="#mb8ee26d166" y="209.592997"/>
     <use style="fill:#0000ff;stroke:#0000ff;" x="214.517405" xlink:href="#mb8ee26d166" y="210.399666"/>
     <use style="fill:#0000ff;stroke:#0000ff;" x="216.046871" xlink:href="#mb8ee26d166" y="210.512911"/>
     <use style="fill:#0000ff;stroke:#0000ff;" x="217.576336" xlink:href="#mb8ee26d166" y="211.034405"/>
     <use style="fill:#0000ff;stroke:#0000ff;" x="219.105802" xlink:href="#mb8ee26d166" y="211.878611"/>
     <use style="fill:#0000ff;stroke:#0000ff;" x="220.635267" xlink:href="#mb8ee26d166" y="212.101261"/>
     <use style="fill:#0000ff;stroke:#0000ff;" x="222.164733" xlink:href="#mb8ee26d166" y="212.207708"/>
     <use style="fill:#0000ff;stroke:#0000ff;" x="223.694198" xlink:href="#mb8ee26d166" y="212.37551"/>
     <use style="fill:#0000ff;stroke:#0000ff;" x="225.223664" xlink:href="#mb8ee26d166" y="213.203598"/>
     <use style="fill:#0000ff;stroke:#0000ff;" x="226.753129" xlink:href="#mb8ee26d166" y="214.225978"/>
     <use style="fill:#0000ff;stroke:#0000ff;" x="228.282595" xlink:href="#mb8ee26d166" y="214.080213"/>
     <use style="fill:#0000ff;stroke:#0000ff;" x="229.81206" xlink:href="#mb8ee26d166" y="214.012065"/>
     <use style="fill:#0000ff;stroke:#0000ff;" x="231.341526" xlink:href="#mb8ee26d166" y="214.898744"/>
     <use style="fill:#0000ff;stroke:#0000ff;" x="232.870991" xlink:href="#mb8ee26d166" y="215.516296"/>
     <use style="fill:#0000ff;stroke:#0000ff;" x="234.400457" xlink:href="#mb8ee26d166" y="216.1298"/>
     <use style="fill:#0000ff;stroke:#0000ff;" x="235.929922" xlink:href="#mb8ee26d166" y="216.178519"/>
     <use style="fill:#0000ff;stroke:#0000ff;" x="237.459388" xlink:href="#mb8ee26d166" y="216.746836"/>
     <use style="fill:#0000ff;stroke:#0000ff;" x="238.988853" xlink:href="#mb8ee26d166" y="216.54832"/>
     <use style="fill:#0000ff;stroke:#0000ff;" x="240.518319" xlink:href="#mb8ee26d166" y="217.536447"/>
     <use style="fill:#0000ff;stroke:#0000ff;" x="242.047784" xlink:href="#mb8ee26d166" y="217.472439"/>
     <use style="fill:#0000ff;stroke:#0000ff;" x="243.57725" xlink:href="#mb8ee26d166" y="218.174574"/>
     <use style="fill:#0000ff;stroke:#0000ff;" x="245.106715" xlink:href="#mb8ee26d166" y="218.495293"/>
     <use style="fill:#0000ff;stroke:#0000ff;" x="246.636181" xlink:href="#mb8ee26d166" y="218.839484"/>
     <use style="fill:#0000ff;stroke:#0000ff;" x="248.165646" xlink:href="#mb8ee26d166" y="219.471092"/>
     <use style="fill:#0000ff;stroke:#0000ff;" x="249.695112" xlink:href="#mb8ee26d166" y="219.366855"/>
     <use style="fill:#0000ff;stroke:#0000ff;" x="251.224577" xlink:href="#mb8ee26d166" y="219.961673"/>
     <use style="fill:#0000ff;stroke:#0000ff;" x="252.754043" xlink:href="#mb8ee26d166" y="220.79234"/>
     <use style="fill:#0000ff;stroke:#0000ff;" x="254.283508" xlink:href="#mb8ee26d166" y="220.429042"/>
     <use style="fill:#0000ff;stroke:#0000ff;" x="255.812974" xlink:href="#mb8ee26d166" y="220.989078"/>
     <use style="fill:#0000ff;stroke:#0000ff;" x="257.342439" xlink:href="#mb8ee26d166" y="221.327893"/>
     <use style="fill:#0000ff;stroke:#0000ff;" x="258.871905" xlink:href="#mb8ee26d166" y="221.40485"/>
     <use style="fill:#0000ff;stroke:#0000ff;" x="260.40137" xlink:href="#mb8ee26d166" y="221.759123"/>
     <use style="fill:#0000ff;stroke:#0000ff;" x="261.930836" xlink:href="#mb8ee26d166" y="222.106146"/>
     <use style="fill:#0000ff;stroke:#0000ff;" x="263.460302" xlink:href="#mb8ee26d166" y="222.672819"/>
     <use style="fill:#0000ff;stroke:#0000ff;" x="264.989767" xlink:href="#mb8ee26d166" y="223.226642"/>
     <use style="fill:#0000ff;stroke:#0000ff;" x="266.519233" xlink:href="#mb8ee26d166" y="223.045434"/>
     <use style="fill:#0000ff;stroke:#0000ff;" x="268.048698" xlink:href="#mb8ee26d166" y="223.723048"/>
     <use style="fill:#0000ff;stroke:#0000ff;" x="269.578164" xlink:href="#mb8ee26d166" y="223.916524"/>
     <use style="fill:#0000ff;stroke:#0000ff;" x="271.107629" xlink:href="#mb8ee26d166" y="224.337325"/>
     <use style="fill:#0000ff;stroke:#0000ff;" x="272.637095" xlink:href="#mb8ee26d166" y="224.735084"/>
     <use style="fill:#0000ff;stroke:#0000ff;" x="274.16656" xlink:href="#mb8ee26d166" y="224.45962"/>
     <use style="fill:#0000ff;stroke:#0000ff;" x="275.696026" xlink:href="#mb8ee26d166" y="225.771918"/>
     <use style="fill:#0000ff;stroke:#0000ff;" x="277.225491" xlink:href="#mb8ee26d166" y="225.748556"/>
     <use style="fill:#0000ff;stroke:#0000ff;" x="278.754957" xlink:href="#mb8ee26d166" y="225.142949"/>
     <use style="fill:#0000ff;stroke:#0000ff;" x="280.284422" xlink:href="#mb8ee26d166" y="226.247487"/>
     <use style="fill:#0000ff;stroke:#0000ff;" x="281.813888" xlink:href="#mb8ee26d166" y="226.478629"/>
     <use style="fill:#0000ff;stroke:#0000ff;" x="283.343353" xlink:href="#mb8ee26d166" y="226.470644"/>
     <use style="fill:#0000ff;stroke:#0000ff;" x="284.872819" xlink:href="#mb8ee26d166" y="227.226602"/>
     <use style="fill:#0000ff;stroke:#0000ff;" x="286.402284" xlink:href="#mb8ee26d166" y="227.203517"/>
     <use style="fill:#0000ff;stroke:#0000ff;" x="287.93175" xlink:href="#mb8ee26d166" y="227.555276"/>
     <use style="fill:#0000ff;stroke:#0000ff;" x="289.461215" xlink:href="#mb8ee26d166" y="227.953204"/>
     <use style="fill:#0000ff;stroke:#0000ff;" x="290.990681" xlink:href="#mb8ee26d166" y="228.250657"/>
     <use style="fill:#0000ff;stroke:#0000ff;" x="292.520146" xlink:href="#mb8ee26d166" y="228.664698"/>
     <use style="fill:#0000ff;stroke:#0000ff;" x="294.049612" xlink:href="#mb8ee26d166" y="228.853066"/>
     <use style="fill:#0000ff;stroke:#0000ff;" x="295.579077" xlink:href="#mb8ee26d166" y="229.18702"/>
     <use style="fill:#0000ff;stroke:#0000ff;" x="297.108543" xlink:href="#mb8ee26d166" y="229.682996"/>
     <use style="fill:#0000ff;stroke:#0000ff;" x="298.638008" xlink:href="#mb8ee26d166" y="229.438264"/>
     <use style="fill:#0000ff;stroke:#0000ff;" x="300.167474" xlink:href="#mb8ee26d166" y="230.342503"/>
     <use style="fill:#0000ff;stroke:#0000ff;" x="301.696939" xlink:href="#mb8ee26d166" y="229.986083"/>
     <use style="fill:#0000ff;stroke:#0000ff;" x="303.226405" xlink:href="#mb8ee26d166" y="230.931771"/>
     <use style="fill:#0000ff;stroke:#0000ff;" x="304.75587" xlink:href="#mb8ee26d166" y="230.787559"/>
     <use style="fill:#0000ff;stroke:#0000ff;" x="306.285336" xlink:href="#mb8ee26d166" y="231.266435"/>
     <use style="fill:#0000ff;stroke:#0000ff;" x="307.814801" xlink:href="#mb8ee26d166" y="231.777909"/>
     <use style="fill:#0000ff;stroke:#0000ff;" x="309.344267" xlink:href="#mb8ee26d166" y="231.469665"/>
     <use style="fill:#0000ff;stroke:#0000ff;" x="310.873732" xlink:href="#mb8ee26d166" y="231.903577"/>
     <use style="fill:#0000ff;stroke:#0000ff;" x="312.403198" xlink:href="#mb8ee26d166" y="232.057542"/>
     <use style="fill:#0000ff;stroke:#0000ff;" x="313.932663" xlink:href="#mb8ee26d166" y="232.562964"/>
     <use style="fill:#0000ff;stroke:#0000ff;" x="315.462129" xlink:href="#mb8ee26d166" y="232.403096"/>
     <use style="fill:#0000ff;stroke:#0000ff;" x="316.991594" xlink:href="#mb8ee26d166" y="232.987096"/>
     <use style="fill:#0000ff;stroke:#0000ff;" x="318.52106" xlink:href="#mb8ee26d166" y="233.180055"/>
     <use style="fill:#0000ff;stroke:#0000ff;" x="320.050525" xlink:href="#mb8ee26d166" y="233.721259"/>
     <use style="fill:#0000ff;stroke:#0000ff;" x="321.579991" xlink:href="#mb8ee26d166" y="233.995661"/>
     <use style="fill:#0000ff;stroke:#0000ff;" x="323.109456" xlink:href="#mb8ee26d166" y="233.806554"/>
     <use style="fill:#0000ff;stroke:#0000ff;" x="324.638922" xlink:href="#mb8ee26d166" y="234.699009"/>
     <use style="fill:#0000ff;stroke:#0000ff;" x="326.168387" xlink:href="#mb8ee26d166" y="234.500086"/>
     <use style="fill:#0000ff;stroke:#0000ff;" x="327.697853" xlink:href="#mb8ee26d166" y="234.765296"/>
     <use style="fill:#0000ff;stroke:#0000ff;" x="329.227318" xlink:href="#mb8ee26d166" y="234.977147"/>
     <use style="fill:#0000ff;stroke:#0000ff;" x="330.756784" xlink:href="#mb8ee26d166" y="235.46888"/>
     <use style="fill:#0000ff;stroke:#0000ff;" x="332.286249" xlink:href="#mb8ee26d166" y="235.656522"/>
     <use style="fill:#0000ff;stroke:#0000ff;" x="333.815715" xlink:href="#mb8ee26d166" y="235.83519"/>
     <use style="fill:#0000ff;stroke:#0000ff;" x="335.34518" xlink:href="#mb8ee26d166" y="236.252264"/>
     <use style="fill:#0000ff;stroke:#0000ff;" x="336.874646" xlink:href="#mb8ee26d166" y="235.930171"/>
     <use style="fill:#0000ff;stroke:#0000ff;" x="338.404111" xlink:href="#mb8ee26d166" y="236.296222"/>
     <use style="fill:#0000ff;stroke:#0000ff;" x="339.933577" xlink:href="#mb8ee26d166" y="237.176903"/>
     <use style="fill:#0000ff;stroke:#0000ff;" x="341.463042" xlink:href="#mb8ee26d166" y="237.004911"/>
     <use style="fill:#0000ff;stroke:#0000ff;" x="342.992508" xlink:href="#mb8ee26d166" y="237.540461"/>
     <use style="fill:#0000ff;stroke:#0000ff;" x="344.521974" xlink:href="#mb8ee26d166" y="237.593775"/>
     <use style="fill:#0000ff;stroke:#0000ff;" x="346.051439" xlink:href="#mb8ee26d166" y="237.908289"/>
     <use style="fill:#0000ff;stroke:#0000ff;" x="347.580905" xlink:href="#mb8ee26d166" y="237.733871"/>
     <use style="fill:#0000ff;stroke:#0000ff;" x="349.11037" xlink:href="#mb8ee26d166" y="237.742334"/>
     <use style="fill:#0000ff;stroke:#0000ff;" x="350.639836" xlink:href="#mb8ee26d166" y="238.054358"/>
     <use style="fill:#0000ff;stroke:#0000ff;" x="352.169301" xlink:href="#mb8ee26d166" y="238.405527"/>
     <use style="fill:#0000ff;stroke:#0000ff;" x="353.698767" xlink:href="#mb8ee26d166" y="238.924199"/>
     <use style="fill:#0000ff;stroke:#0000ff;" x="355.228232" xlink:href="#mb8ee26d166" y="239.321778"/>
     <use style="fill:#0000ff;stroke:#0000ff;" x="356.757698" xlink:href="#mb8ee26d166" y="240.220336"/>
     <use style="fill:#0000ff;stroke:#0000ff;" x="358.287163" xlink:href="#mb8ee26d166" y="240.105733"/>
     <use style="fill:#0000ff;stroke:#0000ff;" x="359.816629" xlink:href="#mb8ee26d166" y="239.473076"/>
     <use style="fill:#0000ff;stroke:#0000ff;" x="361.346094" xlink:href="#mb8ee26d166" y="239.592096"/>
     <use style="fill:#0000ff;stroke:#0000ff;" x="362.87556" xlink:href="#mb8ee26d166" y="240.344957"/>
     <use style="fill:#0000ff;stroke:#0000ff;" x="364.405025" xlink:href="#mb8ee26d166" y="240.56736"/>
     <use style="fill:#0000ff;stroke:#0000ff;" x="365.934491" xlink:href="#mb8ee26d166" y="240.314571"/>
     <use style="fill:#0000ff;stroke:#0000ff;" x="367.463956" xlink:href="#mb8ee26d166" y="241.137017"/>
     <use style="fill:#0000ff;stroke:#0000ff;" x="368.993422" xlink:href="#mb8ee26d166" y="241.342458"/>
     <use style="fill:#0000ff;stroke:#0000ff;" x="370.522887" xlink:href="#mb8ee26d166" y="241.417179"/>
     <use style="fill:#0000ff;stroke:#0000ff;" x="372.052353" xlink:href="#mb8ee26d166" y="241.12667"/>
     <use style="fill:#0000ff;stroke:#0000ff;" x="373.581818" xlink:href="#mb8ee26d166" y="242.116364"/>
    </g>
   </g>
   <g id="line2d_19">
    <path clip-path="url(#p088ad0c733)" d="M 69.218182 44.443636 
L 70.747647 47.005819 
L 72.277113 50.225702 
L 75.336044 55.704701 
L 76.865509 58.176938 
L 78.394975 62.313682 
L 79.92444 64.995298 
L 81.453906 65.559125 
L 82.983371 71.182058 
L 84.512837 72.961208 
L 86.042302 77.415695 
L 87.571768 80.555085 
L 89.101233 82.195114 
L 90.630699 86.3564 
L 92.160164 88.987886 
L 95.219095 95.577464 
L 96.748561 98.225054 
L 98.278026 101.247645 
L 99.807492 104.847337 
L 101.336958 106.490395 
L 102.866423 110.188748 
L 104.395889 112.382927 
L 105.925354 115.128586 
L 107.45482 118.826444 
L 108.984285 120.548026 
L 110.513751 123.184822 
L 112.043216 123.781518 
L 113.572682 127.717856 
L 115.102147 130.456044 
L 116.631613 131.853399 
L 118.161078 134.587704 
L 119.690544 135.782198 
L 121.220009 137.852471 
L 122.749475 139.235061 
L 124.27894 140.381397 
L 125.808406 142.681206 
L 127.337871 143.613166 
L 130.396802 146.682086 
L 131.926268 148.741468 
L 133.455733 149.460854 
L 134.985199 150.039661 
L 136.514664 152.284211 
L 138.04413 153.261722 
L 141.103061 154.613679 
L 142.632526 156.909821 
L 144.161992 157.416454 
L 145.691457 159.257295 
L 147.220923 159.447759 
L 148.750388 161.25524 
L 150.279854 161.432233 
L 151.809319 161.969312 
L 154.86825 164.931211 
L 156.397716 165.463023 
L 157.927181 165.461539 
L 159.456647 167.213967 
L 160.986112 167.643189 
L 162.515578 168.932113 
L 164.045043 169.063893 
L 165.574509 170.222353 
L 167.103974 171.528794 
L 168.63344 172.048546 
L 170.162905 172.783687 
L 171.692371 173.730573 
L 173.221836 174.22944 
L 174.751302 175.211176 
L 176.280767 175.175118 
L 179.339698 176.698143 
L 180.869164 176.832478 
L 182.39863 177.720393 
L 183.928095 179.168111 
L 185.457561 179.665243 
L 186.987026 179.979944 
L 188.516492 181.142108 
L 190.045957 180.921345 
L 194.634354 182.808166 
L 196.163819 182.281605 
L 197.693285 184.103079 
L 200.752216 185.178203 
L 202.281681 186.004733 
L 203.811147 186.266786 
L 205.340612 186.332821 
L 208.399543 188.047043 
L 209.929009 188.149055 
L 211.458474 188.714122 
L 212.98794 189.748312 
L 214.517405 189.578802 
L 216.046871 190.382394 
L 217.576336 190.701255 
L 219.105802 191.235865 
L 220.635267 192.029475 
L 222.164733 192.503536 
L 223.694198 192.59111 
L 225.223664 193.238073 
L 226.753129 191.836425 
L 228.282595 194.131849 
L 229.81206 194.151396 
L 231.341526 193.556128 
L 232.870991 195.320331 
L 234.400457 195.909665 
L 235.929922 195.878361 
L 238.988853 197.086445 
L 240.518319 197.354734 
L 242.047784 198.168014 
L 243.57725 197.984477 
L 245.106715 198.567909 
L 246.636181 198.731387 
L 248.165646 199.335932 
L 249.695112 200.156449 
L 251.224577 200.503459 
L 252.754043 200.680187 
L 254.283508 200.992464 
L 255.812974 201.776472 
L 257.342439 202.213517 
L 258.871905 200.666669 
L 260.40137 202.668104 
L 261.930836 202.831836 
L 263.460302 203.503425 
L 264.989767 203.151859 
L 266.519233 203.894828 
L 271.107629 205.078384 
L 272.637095 205.676071 
L 275.696026 205.895601 
L 277.225491 205.679253 
L 280.284422 207.206417 
L 281.813888 207.17795 
L 283.343353 207.348648 
L 284.872819 207.933701 
L 286.402284 208.639903 
L 287.93175 208.643142 
L 289.461215 208.884219 
L 290.990681 208.649188 
L 292.520146 209.814852 
L 294.049612 209.847379 
L 295.579077 210.427049 
L 297.108543 210.580731 
L 298.638008 210.619387 
L 300.167474 211.288658 
L 301.696939 211.318525 
L 303.226405 211.473529 
L 304.75587 212.310663 
L 306.285336 212.232131 
L 307.814801 212.394472 
L 309.344267 212.737216 
L 310.873732 213.382252 
L 312.403198 213.360513 
L 313.932663 213.828595 
L 315.462129 214.164327 
L 316.991594 214.635036 
L 318.52106 214.858335 
L 320.050525 214.387887 
L 323.109456 215.799428 
L 324.638922 215.607305 
L 326.168387 215.645679 
L 327.697853 215.83971 
L 329.227318 216.56675 
L 330.756784 216.873632 
L 332.286249 217.0051 
L 333.815715 217.489355 
L 335.34518 216.841474 
L 336.874646 215.934563 
L 338.404111 218.197263 
L 339.933577 218.621098 
L 341.463042 217.501767 
L 342.992508 219.15951 
L 344.521974 219.185518 
L 346.051439 219.455603 
L 347.580905 219.94944 
L 349.11037 219.842295 
L 352.169301 220.366728 
L 353.698767 221.065575 
L 355.228232 221.252779 
L 356.757698 221.143262 
L 358.287163 221.156495 
L 359.816629 220.31743 
L 361.346094 221.829303 
L 362.87556 222.361345 
L 364.405025 221.39703 
L 365.934491 222.431803 
L 367.463956 221.845964 
L 368.993422 223.221783 
L 370.522887 222.808001 
L 372.052353 223.327623 
L 373.581818 222.866014 
L 373.581818 222.866014 
" style="fill:none;stroke:#ff0000;stroke-linecap:square;stroke-width:1.5;"/>
    <defs>
     <path d="M 0 1.5 
C 0.397805 1.5 0.77937 1.341951 1.06066 1.06066 
C 1.341951 0.77937 1.5 0.397805 1.5 0 
C 1.5 -0.397805 1.341951 -0.77937 1.06066 -1.06066 
C 0.77937 -1.341951 0.397805 -1.5 0 -1.5 
C -0.397805 -1.5 -0.77937 -1.341951 -1.06066 -1.06066 
C -1.341951 -0.77937 -1.5 -0.397805 -1.5 0 
C -1.5 0.397805 -1.341951 0.77937 -1.06066 1.06066 
C -0.77937 1.341951 -0.397805 1.5 0 1.5 
z
" id="mf1fcb870c6" style="stroke:#ff0000;"/>
    </defs>
    <g clip-path="url(#p088ad0c733)">
     <use style="fill:#ff0000;stroke:#ff0000;" x="69.218182" xlink:href="#mf1fcb870c6" y="44.443636"/>
     <use style="fill:#ff0000;stroke:#ff0000;" x="70.747647" xlink:href="#mf1fcb870c6" y="47.005819"/>
     <use style="fill:#ff0000;stroke:#ff0000;" x="72.277113" xlink:href="#mf1fcb870c6" y="50.225702"/>
     <use style="fill:#ff0000;stroke:#ff0000;" x="73.806578" xlink:href="#mf1fcb870c6" y="52.961066"/>
     <use style="fill:#ff0000;stroke:#ff0000;" x="75.336044" xlink:href="#mf1fcb870c6" y="55.704701"/>
     <use style="fill:#ff0000;stroke:#ff0000;" x="76.865509" xlink:href="#mf1fcb870c6" y="58.176938"/>
     <use style="fill:#ff0000;stroke:#ff0000;" x="78.394975" xlink:href="#mf1fcb870c6" y="62.313682"/>
     <use style="fill:#ff0000;stroke:#ff0000;" x="79.92444" xlink:href="#mf1fcb870c6" y="64.995298"/>
     <use style="fill:#ff0000;stroke:#ff0000;" x="81.453906" xlink:href="#mf1fcb870c6" y="65.559125"/>
     <use style="fill:#ff0000;stroke:#ff0000;" x="82.983371" xlink:href="#mf1fcb870c6" y="71.182058"/>
     <use style="fill:#ff0000;stroke:#ff0000;" x="84.512837" xlink:href="#mf1fcb870c6" y="72.961208"/>
     <use style="fill:#ff0000;stroke:#ff0000;" x="86.042302" xlink:href="#mf1fcb870c6" y="77.415695"/>
     <use style="fill:#ff0000;stroke:#ff0000;" x="87.571768" xlink:href="#mf1fcb870c6" y="80.555085"/>
     <use style="fill:#ff0000;stroke:#ff0000;" x="89.101233" xlink:href="#mf1fcb870c6" y="82.195114"/>
     <use style="fill:#ff0000;stroke:#ff0000;" x="90.630699" xlink:href="#mf1fcb870c6" y="86.3564"/>
     <use style="fill:#ff0000;stroke:#ff0000;" x="92.160164" xlink:href="#mf1fcb870c6" y="88.987886"/>
     <use style="fill:#ff0000;stroke:#ff0000;" x="93.68963" xlink:href="#mf1fcb870c6" y="92.413522"/>
     <use style="fill:#ff0000;stroke:#ff0000;" x="95.219095" xlink:href="#mf1fcb870c6" y="95.577464"/>
     <use style="fill:#ff0000;stroke:#ff0000;" x="96.748561" xlink:href="#mf1fcb870c6" y="98.225054"/>
     <use style="fill:#ff0000;stroke:#ff0000;" x="98.278026" xlink:href="#mf1fcb870c6" y="101.247645"/>
     <use style="fill:#ff0000;stroke:#ff0000;" x="99.807492" xlink:href="#mf1fcb870c6" y="104.847337"/>
     <use style="fill:#ff0000;stroke:#ff0000;" x="101.336958" xlink:href="#mf1fcb870c6" y="106.490395"/>
     <use style="fill:#ff0000;stroke:#ff0000;" x="102.866423" xlink:href="#mf1fcb870c6" y="110.188748"/>
     <use style="fill:#ff0000;stroke:#ff0000;" x="104.395889" xlink:href="#mf1fcb870c6" y="112.382927"/>
     <use style="fill:#ff0000;stroke:#ff0000;" x="105.925354" xlink:href="#mf1fcb870c6" y="115.128586"/>
     <use style="fill:#ff0000;stroke:#ff0000;" x="107.45482" xlink:href="#mf1fcb870c6" y="118.826444"/>
     <use style="fill:#ff0000;stroke:#ff0000;" x="108.984285" xlink:href="#mf1fcb870c6" y="120.548026"/>
     <use style="fill:#ff0000;stroke:#ff0000;" x="110.513751" xlink:href="#mf1fcb870c6" y="123.184822"/>
     <use style="fill:#ff0000;stroke:#ff0000;" x="112.043216" xlink:href="#mf1fcb870c6" y="123.781518"/>
     <use style="fill:#ff0000;stroke:#ff0000;" x="113.572682" xlink:href="#mf1fcb870c6" y="127.717856"/>
     <use style="fill:#ff0000;stroke:#ff0000;" x="115.102147" xlink:href="#mf1fcb870c6" y="130.456044"/>
     <use style="fill:#ff0000;stroke:#ff0000;" x="116.631613" xlink:href="#mf1fcb870c6" y="131.853399"/>
     <use style="fill:#ff0000;stroke:#ff0000;" x="118.161078" xlink:href="#mf1fcb870c6" y="134.587704"/>
     <use style="fill:#ff0000;stroke:#ff0000;" x="119.690544" xlink:href="#mf1fcb870c6" y="135.782198"/>
     <use style="fill:#ff0000;stroke:#ff0000;" x="121.220009" xlink:href="#mf1fcb870c6" y="137.852471"/>
     <use style="fill:#ff0000;stroke:#ff0000;" x="122.749475" xlink:href="#mf1fcb870c6" y="139.235061"/>
     <use style="fill:#ff0000;stroke:#ff0000;" x="124.27894" xlink:href="#mf1fcb870c6" y="140.381397"/>
     <use style="fill:#ff0000;stroke:#ff0000;" x="125.808406" xlink:href="#mf1fcb870c6" y="142.681206"/>
     <use style="fill:#ff0000;stroke:#ff0000;" x="127.337871" xlink:href="#mf1fcb870c6" y="143.613166"/>
     <use style="fill:#ff0000;stroke:#ff0000;" x="128.867337" xlink:href="#mf1fcb870c6" y="145.185595"/>
     <use style="fill:#ff0000;stroke:#ff0000;" x="130.396802" xlink:href="#mf1fcb870c6" y="146.682086"/>
     <use style="fill:#ff0000;stroke:#ff0000;" x="131.926268" xlink:href="#mf1fcb870c6" y="148.741468"/>
     <use style="fill:#ff0000;stroke:#ff0000;" x="133.455733" xlink:href="#mf1fcb870c6" y="149.460854"/>
     <use style="fill:#ff0000;stroke:#ff0000;" x="134.985199" xlink:href="#mf1fcb870c6" y="150.039661"/>
     <use style="fill:#ff0000;stroke:#ff0000;" x="136.514664" xlink:href="#mf1fcb870c6" y="152.284211"/>
     <use style="fill:#ff0000;stroke:#ff0000;" x="138.04413" xlink:href="#mf1fcb870c6" y="153.261722"/>
     <use style="fill:#ff0000;stroke:#ff0000;" x="139.573595" xlink:href="#mf1fcb870c6" y="153.940715"/>
     <use style="fill:#ff0000;stroke:#ff0000;" x="141.103061" xlink:href="#mf1fcb870c6" y="154.613679"/>
     <use style="fill:#ff0000;stroke:#ff0000;" x="142.632526" xlink:href="#mf1fcb870c6" y="156.909821"/>
     <use style="fill:#ff0000;stroke:#ff0000;" x="144.161992" xlink:href="#mf1fcb870c6" y="157.416454"/>
     <use style="fill:#ff0000;stroke:#ff0000;" x="145.691457" xlink:href="#mf1fcb870c6" y="159.257295"/>
     <use style="fill:#ff0000;stroke:#ff0000;" x="147.220923" xlink:href="#mf1fcb870c6" y="159.447759"/>
     <use style="fill:#ff0000;stroke:#ff0000;" x="148.750388" xlink:href="#mf1fcb870c6" y="161.25524"/>
     <use style="fill:#ff0000;stroke:#ff0000;" x="150.279854" xlink:href="#mf1fcb870c6" y="161.432233"/>
     <use style="fill:#ff0000;stroke:#ff0000;" x="151.809319" xlink:href="#mf1fcb870c6" y="161.969312"/>
     <use style="fill:#ff0000;stroke:#ff0000;" x="153.338785" xlink:href="#mf1fcb870c6" y="163.455021"/>
     <use style="fill:#ff0000;stroke:#ff0000;" x="154.86825" xlink:href="#mf1fcb870c6" y="164.931211"/>
     <use style="fill:#ff0000;stroke:#ff0000;" x="156.397716" xlink:href="#mf1fcb870c6" y="165.463023"/>
     <use style="fill:#ff0000;stroke:#ff0000;" x="157.927181" xlink:href="#mf1fcb870c6" y="165.461539"/>
     <use style="fill:#ff0000;stroke:#ff0000;" x="159.456647" xlink:href="#mf1fcb870c6" y="167.213967"/>
     <use style="fill:#ff0000;stroke:#ff0000;" x="160.986112" xlink:href="#mf1fcb870c6" y="167.643189"/>
     <use style="fill:#ff0000;stroke:#ff0000;" x="162.515578" xlink:href="#mf1fcb870c6" y="168.932113"/>
     <use style="fill:#ff0000;stroke:#ff0000;" x="164.045043" xlink:href="#mf1fcb870c6" y="169.063893"/>
     <use style="fill:#ff0000;stroke:#ff0000;" x="165.574509" xlink:href="#mf1fcb870c6" y="170.222353"/>
     <use style="fill:#ff0000;stroke:#ff0000;" x="167.103974" xlink:href="#mf1fcb870c6" y="171.528794"/>
     <use style="fill:#ff0000;stroke:#ff0000;" x="168.63344" xlink:href="#mf1fcb870c6" y="172.048546"/>
     <use style="fill:#ff0000;stroke:#ff0000;" x="170.162905" xlink:href="#mf1fcb870c6" y="172.783687"/>
     <use style="fill:#ff0000;stroke:#ff0000;" x="171.692371" xlink:href="#mf1fcb870c6" y="173.730573"/>
     <use style="fill:#ff0000;stroke:#ff0000;" x="173.221836" xlink:href="#mf1fcb870c6" y="174.22944"/>
     <use style="fill:#ff0000;stroke:#ff0000;" x="174.751302" xlink:href="#mf1fcb870c6" y="175.211176"/>
     <use style="fill:#ff0000;stroke:#ff0000;" x="176.280767" xlink:href="#mf1fcb870c6" y="175.175118"/>
     <use style="fill:#ff0000;stroke:#ff0000;" x="177.810233" xlink:href="#mf1fcb870c6" y="175.999441"/>
     <use style="fill:#ff0000;stroke:#ff0000;" x="179.339698" xlink:href="#mf1fcb870c6" y="176.698143"/>
     <use style="fill:#ff0000;stroke:#ff0000;" x="180.869164" xlink:href="#mf1fcb870c6" y="176.832478"/>
     <use style="fill:#ff0000;stroke:#ff0000;" x="182.39863" xlink:href="#mf1fcb870c6" y="177.720393"/>
     <use style="fill:#ff0000;stroke:#ff0000;" x="183.928095" xlink:href="#mf1fcb870c6" y="179.168111"/>
     <use style="fill:#ff0000;stroke:#ff0000;" x="185.457561" xlink:href="#mf1fcb870c6" y="179.665243"/>
     <use style="fill:#ff0000;stroke:#ff0000;" x="186.987026" xlink:href="#mf1fcb870c6" y="179.979944"/>
     <use style="fill:#ff0000;stroke:#ff0000;" x="188.516492" xlink:href="#mf1fcb870c6" y="181.142108"/>
     <use style="fill:#ff0000;stroke:#ff0000;" x="190.045957" xlink:href="#mf1fcb870c6" y="180.921345"/>
     <use style="fill:#ff0000;stroke:#ff0000;" x="191.575423" xlink:href="#mf1fcb870c6" y="181.567862"/>
     <use style="fill:#ff0000;stroke:#ff0000;" x="193.104888" xlink:href="#mf1fcb870c6" y="182.206705"/>
     <use style="fill:#ff0000;stroke:#ff0000;" x="194.634354" xlink:href="#mf1fcb870c6" y="182.808166"/>
     <use style="fill:#ff0000;stroke:#ff0000;" x="196.163819" xlink:href="#mf1fcb870c6" y="182.281605"/>
     <use style="fill:#ff0000;stroke:#ff0000;" x="197.693285" xlink:href="#mf1fcb870c6" y="184.103079"/>
     <use style="fill:#ff0000;stroke:#ff0000;" x="199.22275" xlink:href="#mf1fcb870c6" y="184.682982"/>
     <use style="fill:#ff0000;stroke:#ff0000;" x="200.752216" xlink:href="#mf1fcb870c6" y="185.178203"/>
     <use style="fill:#ff0000;stroke:#ff0000;" x="202.281681" xlink:href="#mf1fcb870c6" y="186.004733"/>
     <use style="fill:#ff0000;stroke:#ff0000;" x="203.811147" xlink:href="#mf1fcb870c6" y="186.266786"/>
     <use style="fill:#ff0000;stroke:#ff0000;" x="205.340612" xlink:href="#mf1fcb870c6" y="186.332821"/>
     <use style="fill:#ff0000;stroke:#ff0000;" x="206.870078" xlink:href="#mf1fcb870c6" y="187.148647"/>
     <use style="fill:#ff0000;stroke:#ff0000;" x="208.399543" xlink:href="#mf1fcb870c6" y="188.047043"/>
     <use style="fill:#ff0000;stroke:#ff0000;" x="209.929009" xlink:href="#mf1fcb870c6" y="188.149055"/>
     <use style="fill:#ff0000;stroke:#ff0000;" x="211.458474" xlink:href="#mf1fcb870c6" y="188.714122"/>
     <use style="fill:#ff0000;stroke:#ff0000;" x="212.98794" xlink:href="#mf1fcb870c6" y="189.748312"/>
     <use style="fill:#ff0000;stroke:#ff0000;" x="214.517405" xlink:href="#mf1fcb870c6" y="189.578802"/>
     <use style="fill:#ff0000;stroke:#ff0000;" x="216.046871" xlink:href="#mf1fcb870c6" y="190.382394"/>
     <use style="fill:#ff0000;stroke:#ff0000;" x="217.576336" xlink:href="#mf1fcb870c6" y="190.701255"/>
     <use style="fill:#ff0000;stroke:#ff0000;" x="219.105802" xlink:href="#mf1fcb870c6" y="191.235865"/>
     <use style="fill:#ff0000;stroke:#ff0000;" x="220.635267" xlink:href="#mf1fcb870c6" y="192.029475"/>
     <use style="fill:#ff0000;stroke:#ff0000;" x="222.164733" xlink:href="#mf1fcb870c6" y="192.503536"/>
     <use style="fill:#ff0000;stroke:#ff0000;" x="223.694198" xlink:href="#mf1fcb870c6" y="192.59111"/>
     <use style="fill:#ff0000;stroke:#ff0000;" x="225.223664" xlink:href="#mf1fcb870c6" y="193.238073"/>
     <use style="fill:#ff0000;stroke:#ff0000;" x="226.753129" xlink:href="#mf1fcb870c6" y="191.836425"/>
     <use style="fill:#ff0000;stroke:#ff0000;" x="228.282595" xlink:href="#mf1fcb870c6" y="194.131849"/>
     <use style="fill:#ff0000;stroke:#ff0000;" x="229.81206" xlink:href="#mf1fcb870c6" y="194.151396"/>
     <use style="fill:#ff0000;stroke:#ff0000;" x="231.341526" xlink:href="#mf1fcb870c6" y="193.556128"/>
     <use style="fill:#ff0000;stroke:#ff0000;" x="232.870991" xlink:href="#mf1fcb870c6" y="195.320331"/>
     <use style="fill:#ff0000;stroke:#ff0000;" x="234.400457" xlink:href="#mf1fcb870c6" y="195.909665"/>
     <use style="fill:#ff0000;stroke:#ff0000;" x="235.929922" xlink:href="#mf1fcb870c6" y="195.878361"/>
     <use style="fill:#ff0000;stroke:#ff0000;" x="237.459388" xlink:href="#mf1fcb870c6" y="196.43718"/>
     <use style="fill:#ff0000;stroke:#ff0000;" x="238.988853" xlink:href="#mf1fcb870c6" y="197.086445"/>
     <use style="fill:#ff0000;stroke:#ff0000;" x="240.518319" xlink:href="#mf1fcb870c6" y="197.354734"/>
     <use style="fill:#ff0000;stroke:#ff0000;" x="242.047784" xlink:href="#mf1fcb870c6" y="198.168014"/>
     <use style="fill:#ff0000;stroke:#ff0000;" x="243.57725" xlink:href="#mf1fcb870c6" y="197.984477"/>
     <use style="fill:#ff0000;stroke:#ff0000;" x="245.106715" xlink:href="#mf1fcb870c6" y="198.567909"/>
     <use style="fill:#ff0000;stroke:#ff0000;" x="246.636181" xlink:href="#mf1fcb870c6" y="198.731387"/>
     <use style="fill:#ff0000;stroke:#ff0000;" x="248.165646" xlink:href="#mf1fcb870c6" y="199.335932"/>
     <use style="fill:#ff0000;stroke:#ff0000;" x="249.695112" xlink:href="#mf1fcb870c6" y="200.156449"/>
     <use style="fill:#ff0000;stroke:#ff0000;" x="251.224577" xlink:href="#mf1fcb870c6" y="200.503459"/>
     <use style="fill:#ff0000;stroke:#ff0000;" x="252.754043" xlink:href="#mf1fcb870c6" y="200.680187"/>
     <use style="fill:#ff0000;stroke:#ff0000;" x="254.283508" xlink:href="#mf1fcb870c6" y="200.992464"/>
     <use style="fill:#ff0000;stroke:#ff0000;" x="255.812974" xlink:href="#mf1fcb870c6" y="201.776472"/>
     <use style="fill:#ff0000;stroke:#ff0000;" x="257.342439" xlink:href="#mf1fcb870c6" y="202.213517"/>
     <use style="fill:#ff0000;stroke:#ff0000;" x="258.871905" xlink:href="#mf1fcb870c6" y="200.666669"/>
     <use style="fill:#ff0000;stroke:#ff0000;" x="260.40137" xlink:href="#mf1fcb870c6" y="202.668104"/>
     <use style="fill:#ff0000;stroke:#ff0000;" x="261.930836" xlink:href="#mf1fcb870c6" y="202.831836"/>
     <use style="fill:#ff0000;stroke:#ff0000;" x="263.460302" xlink:href="#mf1fcb870c6" y="203.503425"/>
     <use style="fill:#ff0000;stroke:#ff0000;" x="264.989767" xlink:href="#mf1fcb870c6" y="203.151859"/>
     <use style="fill:#ff0000;stroke:#ff0000;" x="266.519233" xlink:href="#mf1fcb870c6" y="203.894828"/>
     <use style="fill:#ff0000;stroke:#ff0000;" x="268.048698" xlink:href="#mf1fcb870c6" y="204.265431"/>
     <use style="fill:#ff0000;stroke:#ff0000;" x="269.578164" xlink:href="#mf1fcb870c6" y="204.536667"/>
     <use style="fill:#ff0000;stroke:#ff0000;" x="271.107629" xlink:href="#mf1fcb870c6" y="205.078384"/>
     <use style="fill:#ff0000;stroke:#ff0000;" x="272.637095" xlink:href="#mf1fcb870c6" y="205.676071"/>
     <use style="fill:#ff0000;stroke:#ff0000;" x="274.16656" xlink:href="#mf1fcb870c6" y="205.785868"/>
     <use style="fill:#ff0000;stroke:#ff0000;" x="275.696026" xlink:href="#mf1fcb870c6" y="205.895601"/>
     <use style="fill:#ff0000;stroke:#ff0000;" x="277.225491" xlink:href="#mf1fcb870c6" y="205.679253"/>
     <use style="fill:#ff0000;stroke:#ff0000;" x="278.754957" xlink:href="#mf1fcb870c6" y="206.412373"/>
     <use style="fill:#ff0000;stroke:#ff0000;" x="280.284422" xlink:href="#mf1fcb870c6" y="207.206417"/>
     <use style="fill:#ff0000;stroke:#ff0000;" x="281.813888" xlink:href="#mf1fcb870c6" y="207.17795"/>
     <use style="fill:#ff0000;stroke:#ff0000;" x="283.343353" xlink:href="#mf1fcb870c6" y="207.348648"/>
     <use style="fill:#ff0000;stroke:#ff0000;" x="284.872819" xlink:href="#mf1fcb870c6" y="207.933701"/>
     <use style="fill:#ff0000;stroke:#ff0000;" x="286.402284" xlink:href="#mf1fcb870c6" y="208.639903"/>
     <use style="fill:#ff0000;stroke:#ff0000;" x="287.93175" xlink:href="#mf1fcb870c6" y="208.643142"/>
     <use style="fill:#ff0000;stroke:#ff0000;" x="289.461215" xlink:href="#mf1fcb870c6" y="208.884219"/>
     <use style="fill:#ff0000;stroke:#ff0000;" x="290.990681" xlink:href="#mf1fcb870c6" y="208.649188"/>
     <use style="fill:#ff0000;stroke:#ff0000;" x="292.520146" xlink:href="#mf1fcb870c6" y="209.814852"/>
     <use style="fill:#ff0000;stroke:#ff0000;" x="294.049612" xlink:href="#mf1fcb870c6" y="209.847379"/>
     <use style="fill:#ff0000;stroke:#ff0000;" x="295.579077" xlink:href="#mf1fcb870c6" y="210.427049"/>
     <use style="fill:#ff0000;stroke:#ff0000;" x="297.108543" xlink:href="#mf1fcb870c6" y="210.580731"/>
     <use style="fill:#ff0000;stroke:#ff0000;" x="298.638008" xlink:href="#mf1fcb870c6" y="210.619387"/>
     <use style="fill:#ff0000;stroke:#ff0000;" x="300.167474" xlink:href="#mf1fcb870c6" y="211.288658"/>
     <use style="fill:#ff0000;stroke:#ff0000;" x="301.696939" xlink:href="#mf1fcb870c6" y="211.318525"/>
     <use style="fill:#ff0000;stroke:#ff0000;" x="303.226405" xlink:href="#mf1fcb870c6" y="211.473529"/>
     <use style="fill:#ff0000;stroke:#ff0000;" x="304.75587" xlink:href="#mf1fcb870c6" y="212.310663"/>
     <use style="fill:#ff0000;stroke:#ff0000;" x="306.285336" xlink:href="#mf1fcb870c6" y="212.232131"/>
     <use style="fill:#ff0000;stroke:#ff0000;" x="307.814801" xlink:href="#mf1fcb870c6" y="212.394472"/>
     <use style="fill:#ff0000;stroke:#ff0000;" x="309.344267" xlink:href="#mf1fcb870c6" y="212.737216"/>
     <use style="fill:#ff0000;stroke:#ff0000;" x="310.873732" xlink:href="#mf1fcb870c6" y="213.382252"/>
     <use style="fill:#ff0000;stroke:#ff0000;" x="312.403198" xlink:href="#mf1fcb870c6" y="213.360513"/>
     <use style="fill:#ff0000;stroke:#ff0000;" x="313.932663" xlink:href="#mf1fcb870c6" y="213.828595"/>
     <use style="fill:#ff0000;stroke:#ff0000;" x="315.462129" xlink:href="#mf1fcb870c6" y="214.164327"/>
     <use style="fill:#ff0000;stroke:#ff0000;" x="316.991594" xlink:href="#mf1fcb870c6" y="214.635036"/>
     <use style="fill:#ff0000;stroke:#ff0000;" x="318.52106" xlink:href="#mf1fcb870c6" y="214.858335"/>
     <use style="fill:#ff0000;stroke:#ff0000;" x="320.050525" xlink:href="#mf1fcb870c6" y="214.387887"/>
     <use style="fill:#ff0000;stroke:#ff0000;" x="321.579991" xlink:href="#mf1fcb870c6" y="215.145299"/>
     <use style="fill:#ff0000;stroke:#ff0000;" x="323.109456" xlink:href="#mf1fcb870c6" y="215.799428"/>
     <use style="fill:#ff0000;stroke:#ff0000;" x="324.638922" xlink:href="#mf1fcb870c6" y="215.607305"/>
     <use style="fill:#ff0000;stroke:#ff0000;" x="326.168387" xlink:href="#mf1fcb870c6" y="215.645679"/>
     <use style="fill:#ff0000;stroke:#ff0000;" x="327.697853" xlink:href="#mf1fcb870c6" y="215.83971"/>
     <use style="fill:#ff0000;stroke:#ff0000;" x="329.227318" xlink:href="#mf1fcb870c6" y="216.56675"/>
     <use style="fill:#ff0000;stroke:#ff0000;" x="330.756784" xlink:href="#mf1fcb870c6" y="216.873632"/>
     <use style="fill:#ff0000;stroke:#ff0000;" x="332.286249" xlink:href="#mf1fcb870c6" y="217.0051"/>
     <use style="fill:#ff0000;stroke:#ff0000;" x="333.815715" xlink:href="#mf1fcb870c6" y="217.489355"/>
     <use style="fill:#ff0000;stroke:#ff0000;" x="335.34518" xlink:href="#mf1fcb870c6" y="216.841474"/>
     <use style="fill:#ff0000;stroke:#ff0000;" x="336.874646" xlink:href="#mf1fcb870c6" y="215.934563"/>
     <use style="fill:#ff0000;stroke:#ff0000;" x="338.404111" xlink:href="#mf1fcb870c6" y="218.197263"/>
     <use style="fill:#ff0000;stroke:#ff0000;" x="339.933577" xlink:href="#mf1fcb870c6" y="218.621098"/>
     <use style="fill:#ff0000;stroke:#ff0000;" x="341.463042" xlink:href="#mf1fcb870c6" y="217.501767"/>
     <use style="fill:#ff0000;stroke:#ff0000;" x="342.992508" xlink:href="#mf1fcb870c6" y="219.15951"/>
     <use style="fill:#ff0000;stroke:#ff0000;" x="344.521974" xlink:href="#mf1fcb870c6" y="219.185518"/>
     <use style="fill:#ff0000;stroke:#ff0000;" x="346.051439" xlink:href="#mf1fcb870c6" y="219.455603"/>
     <use style="fill:#ff0000;stroke:#ff0000;" x="347.580905" xlink:href="#mf1fcb870c6" y="219.94944"/>
     <use style="fill:#ff0000;stroke:#ff0000;" x="349.11037" xlink:href="#mf1fcb870c6" y="219.842295"/>
     <use style="fill:#ff0000;stroke:#ff0000;" x="350.639836" xlink:href="#mf1fcb870c6" y="220.095031"/>
     <use style="fill:#ff0000;stroke:#ff0000;" x="352.169301" xlink:href="#mf1fcb870c6" y="220.366728"/>
     <use style="fill:#ff0000;stroke:#ff0000;" x="353.698767" xlink:href="#mf1fcb870c6" y="221.065575"/>
     <use style="fill:#ff0000;stroke:#ff0000;" x="355.228232" xlink:href="#mf1fcb870c6" y="221.252779"/>
     <use style="fill:#ff0000;stroke:#ff0000;" x="356.757698" xlink:href="#mf1fcb870c6" y="221.143262"/>
     <use style="fill:#ff0000;stroke:#ff0000;" x="358.287163" xlink:href="#mf1fcb870c6" y="221.156495"/>
     <use style="fill:#ff0000;stroke:#ff0000;" x="359.816629" xlink:href="#mf1fcb870c6" y="220.31743"/>
     <use style="fill:#ff0000;stroke:#ff0000;" x="361.346094" xlink:href="#mf1fcb870c6" y="221.829303"/>
     <use style="fill:#ff0000;stroke:#ff0000;" x="362.87556" xlink:href="#mf1fcb870c6" y="222.361345"/>
     <use style="fill:#ff0000;stroke:#ff0000;" x="364.405025" xlink:href="#mf1fcb870c6" y="221.39703"/>
     <use style="fill:#ff0000;stroke:#ff0000;" x="365.934491" xlink:href="#mf1fcb870c6" y="222.431803"/>
     <use style="fill:#ff0000;stroke:#ff0000;" x="367.463956" xlink:href="#mf1fcb870c6" y="221.845964"/>
     <use style="fill:#ff0000;stroke:#ff0000;" x="368.993422" xlink:href="#mf1fcb870c6" y="223.221783"/>
     <use style="fill:#ff0000;stroke:#ff0000;" x="370.522887" xlink:href="#mf1fcb870c6" y="222.808001"/>
     <use style="fill:#ff0000;stroke:#ff0000;" x="372.052353" xlink:href="#mf1fcb870c6" y="223.327623"/>
     <use style="fill:#ff0000;stroke:#ff0000;" x="373.581818" xlink:href="#mf1fcb870c6" y="222.866014"/>
    </g>
   </g>
   <g id="patch_3">
    <path d="M 54 252 
L 54 34.56 
" style="fill:none;stroke:#000000;stroke-linecap:square;stroke-linejoin:miter;stroke-width:0.8;"/>
   </g>
   <g id="patch_4">
    <path d="M 388.8 252 
L 388.8 34.56 
" style="fill:none;stroke:#000000;stroke-linecap:square;stroke-linejoin:miter;stroke-width:0.8;"/>
   </g>
   <g id="patch_5">
    <path d="M 54 252 
L 388.8 252 
" style="fill:none;stroke:#000000;stroke-linecap:square;stroke-linejoin:miter;stroke-width:0.8;"/>
   </g>
   <g id="patch_6">
    <path d="M 54 34.56 
L 388.8 34.56 
" style="fill:none;stroke:#000000;stroke-linecap:square;stroke-linejoin:miter;stroke-width:0.8;"/>
   </g>
   <g id="text_18">
    <!-- Losses -->
    <defs>
     <path d="M 9.8125 72.90625 
L 19.671875 72.90625 
L 19.671875 8.296875 
L 55.171875 8.296875 
L 55.171875 0 
L 9.8125 0 
z
" id="DejaVuSans-76"/>
     <path d="M 30.609375 48.390625 
Q 23.390625 48.390625 19.1875 42.75 
Q 14.984375 37.109375 14.984375 27.296875 
Q 14.984375 17.484375 19.15625 11.84375 
Q 23.34375 6.203125 30.609375 6.203125 
Q 37.796875 6.203125 41.984375 11.859375 
Q 46.1875 17.53125 46.1875 27.296875 
Q 46.1875 37.015625 41.984375 42.703125 
Q 37.796875 48.390625 30.609375 48.390625 
z
M 30.609375 56 
Q 42.328125 56 49.015625 48.375 
Q 55.71875 40.765625 55.71875 27.296875 
Q 55.71875 13.875 49.015625 6.21875 
Q 42.328125 -1.421875 30.609375 -1.421875 
Q 18.84375 -1.421875 12.171875 6.21875 
Q 5.515625 13.875 5.515625 27.296875 
Q 5.515625 40.765625 12.171875 48.375 
Q 18.84375 56 30.609375 56 
z
" id="DejaVuSans-111"/>
     <path d="M 44.28125 53.078125 
L 44.28125 44.578125 
Q 40.484375 46.53125 36.375 47.5 
Q 32.28125 48.484375 27.875 48.484375 
Q 21.1875 48.484375 17.84375 46.4375 
Q 14.5 44.390625 14.5 40.28125 
Q 14.5 37.15625 16.890625 35.375 
Q 19.28125 33.59375 26.515625 31.984375 
L 29.59375 31.296875 
Q 39.15625 29.25 43.1875 25.515625 
Q 47.21875 21.78125 47.21875 15.09375 
Q 47.21875 7.46875 41.1875 3.015625 
Q 35.15625 -1.421875 24.609375 -1.421875 
Q 20.21875 -1.421875 15.453125 -0.5625 
Q 10.6875 0.296875 5.421875 2 
L 5.421875 11.28125 
Q 10.40625 8.6875 15.234375 7.390625 
Q 20.0625 6.109375 24.8125 6.109375 
Q 31.15625 6.109375 34.5625 8.28125 
Q 37.984375 10.453125 37.984375 14.40625 
Q 37.984375 18.0625 35.515625 20.015625 
Q 33.0625 21.96875 24.703125 23.78125 
L 21.578125 24.515625 
Q 13.234375 26.265625 9.515625 29.90625 
Q 5.8125 33.546875 5.8125 39.890625 
Q 5.8125 47.609375 11.28125 51.796875 
Q 16.75 56 26.8125 56 
Q 31.78125 56 36.171875 55.265625 
Q 40.578125 54.546875 44.28125 53.078125 
z
" id="DejaVuSans-115"/>
     <path d="M 56.203125 29.59375 
L 56.203125 25.203125 
L 14.890625 25.203125 
Q 15.484375 15.921875 20.484375 11.0625 
Q 25.484375 6.203125 34.421875 6.203125 
Q 39.59375 6.203125 44.453125 7.46875 
Q 49.3125 8.734375 54.109375 11.28125 
L 54.109375 2.78125 
Q 49.265625 0.734375 44.1875 -0.34375 
Q 39.109375 -1.421875 33.890625 -1.421875 
Q 20.796875 -1.421875 13.15625 6.1875 
Q 5.515625 13.8125 5.515625 26.8125 
Q 5.515625 40.234375 12.765625 48.109375 
Q 20.015625 56 32.328125 56 
Q 43.359375 56 49.78125 48.890625 
Q 56.203125 41.796875 56.203125 29.59375 
z
M 47.21875 32.234375 
Q 47.125 39.59375 43.09375 43.984375 
Q 39.0625 48.390625 32.421875 48.390625 
Q 24.90625 48.390625 20.390625 44.140625 
Q 15.875 39.890625 15.1875 32.171875 
z
" id="DejaVuSans-101"/>
    </defs>
    <g transform="translate(201.317813 28.56)scale(0.12 -0.12)">
     <use xlink:href="#DejaVuSans-76"/>
     <use x="55.697266" xlink:href="#DejaVuSans-111"/>
     <use x="116.878906" xlink:href="#DejaVuSans-115"/>
     <use x="168.978516" xlink:href="#DejaVuSans-115"/>
     <use x="221.078125" xlink:href="#DejaVuSans-101"/>
     <use x="282.601562" xlink:href="#DejaVuSans-115"/>
    </g>
   </g>
  </g>
  <g id="legend_1">
   <g id="patch_7">
    <path d="M 369.048437 37.35625 
L 425 37.35625 
Q 427 37.35625 427 35.35625 
L 427 7 
Q 427 5 425 5 
L 369.048437 5 
Q 367.048437 5 367.048437 7 
L 367.048437 35.35625 
Q 367.048437 37.35625 369.048437 37.35625 
z
" style="fill:#ffffff;opacity:0.8;stroke:#cccccc;stroke-linejoin:miter;"/>
   </g>
   <g id="line2d_20">
    <path d="M 371.048437 13.098437 
L 391.048437 13.098437 
" style="fill:none;stroke:#0000ff;stroke-linecap:square;stroke-width:1.5;"/>
   </g>
   <g id="line2d_21">
    <g>
     <use style="fill:#0000ff;stroke:#0000ff;" x="381.048437" xlink:href="#mb8ee26d166" y="13.098437"/>
    </g>
   </g>
   <g id="text_19">
    <!-- train -->
    <defs>
     <path d="M 18.3125 70.21875 
L 18.3125 54.6875 
L 36.8125 54.6875 
L 36.8125 47.703125 
L 18.3125 47.703125 
L 18.3125 18.015625 
Q 18.3125 11.328125 20.140625 9.421875 
Q 21.96875 7.515625 27.59375 7.515625 
L 36.8125 7.515625 
L 36.8125 0 
L 27.59375 0 
Q 17.1875 0 13.234375 3.875 
Q 9.28125 7.765625 9.28125 18.015625 
L 9.28125 47.703125 
L 2.6875 47.703125 
L 2.6875 54.6875 
L 9.28125 54.6875 
L 9.28125 70.21875 
z
" id="DejaVuSans-116"/>
     <path d="M 41.109375 46.296875 
Q 39.59375 47.171875 37.8125 47.578125 
Q 36.03125 48 33.890625 48 
Q 26.265625 48 22.1875 43.046875 
Q 18.109375 38.09375 18.109375 28.8125 
L 18.109375 0 
L 9.078125 0 
L 9.078125 54.6875 
L 18.109375 54.6875 
L 18.109375 46.1875 
Q 20.953125 51.171875 25.484375 53.578125 
Q 30.03125 56 36.53125 56 
Q 37.453125 56 38.578125 55.875 
Q 39.703125 55.765625 41.0625 55.515625 
z
" id="DejaVuSans-114"/>
     <path d="M 34.28125 27.484375 
Q 23.390625 27.484375 19.1875 25 
Q 14.984375 22.515625 14.984375 16.5 
Q 14.984375 11.71875 18.140625 8.90625 
Q 21.296875 6.109375 26.703125 6.109375 
Q 34.1875 6.109375 38.703125 11.40625 
Q 43.21875 16.703125 43.21875 25.484375 
L 43.21875 27.484375 
z
M 52.203125 31.203125 
L 52.203125 0 
L 43.21875 0 
L 43.21875 8.296875 
Q 40.140625 3.328125 35.546875 0.953125 
Q 30.953125 -1.421875 24.3125 -1.421875 
Q 15.921875 -1.421875 10.953125 3.296875 
Q 6 8.015625 6 15.921875 
Q 6 25.140625 12.171875 29.828125 
Q 18.359375 34.515625 30.609375 34.515625 
L 43.21875 34.515625 
L 43.21875 35.40625 
Q 43.21875 41.609375 39.140625 45 
Q 35.0625 48.390625 27.6875 48.390625 
Q 23 48.390625 18.546875 47.265625 
Q 14.109375 46.140625 10.015625 43.890625 
L 10.015625 52.203125 
Q 14.9375 54.109375 19.578125 55.046875 
Q 24.21875 56 28.609375 56 
Q 40.484375 56 46.34375 49.84375 
Q 52.203125 43.703125 52.203125 31.203125 
z
" id="DejaVuSans-97"/>
     <path d="M 9.421875 54.6875 
L 18.40625 54.6875 
L 18.40625 0 
L 9.421875 0 
z
M 9.421875 75.984375 
L 18.40625 75.984375 
L 18.40625 64.59375 
L 9.421875 64.59375 
z
" id="DejaVuSans-105"/>
     <path d="M 54.890625 33.015625 
L 54.890625 0 
L 45.90625 0 
L 45.90625 32.71875 
Q 45.90625 40.484375 42.875 44.328125 
Q 39.84375 48.1875 33.796875 48.1875 
Q 26.515625 48.1875 22.3125 43.546875 
Q 18.109375 38.921875 18.109375 30.90625 
L 18.109375 0 
L 9.078125 0 
L 9.078125 54.6875 
L 18.109375 54.6875 
L 18.109375 46.1875 
Q 21.34375 51.125 25.703125 53.5625 
Q 30.078125 56 35.796875 56 
Q 45.21875 56 50.046875 50.171875 
Q 54.890625 44.34375 54.890625 33.015625 
z
" id="DejaVuSans-110"/>
    </defs>
    <g transform="translate(399.048437 16.598437)scale(0.1 -0.1)">
     <use xlink:href="#DejaVuSans-116"/>
     <use x="39.208984" xlink:href="#DejaVuSans-114"/>
     <use x="80.322266" xlink:href="#DejaVuSans-97"/>
     <use x="141.601562" xlink:href="#DejaVuSans-105"/>
     <use x="169.384766" xlink:href="#DejaVuSans-110"/>
    </g>
   </g>
   <g id="line2d_22">
    <path d="M 371.048437 27.776563 
L 391.048437 27.776563 
" style="fill:none;stroke:#ff0000;stroke-linecap:square;stroke-width:1.5;"/>
   </g>
   <g id="line2d_23">
    <g>
     <use style="fill:#ff0000;stroke:#ff0000;" x="381.048437" xlink:href="#mf1fcb870c6" y="27.776563"/>
    </g>
   </g>
   <g id="text_20">
    <!-- valid -->
    <defs>
     <path d="M 2.984375 54.6875 
L 12.5 54.6875 
L 29.59375 8.796875 
L 46.6875 54.6875 
L 56.203125 54.6875 
L 35.6875 0 
L 23.484375 0 
z
" id="DejaVuSans-118"/>
     <path d="M 9.421875 75.984375 
L 18.40625 75.984375 
L 18.40625 0 
L 9.421875 0 
z
" id="DejaVuSans-108"/>
     <path d="M 45.40625 46.390625 
L 45.40625 75.984375 
L 54.390625 75.984375 
L 54.390625 0 
L 45.40625 0 
L 45.40625 8.203125 
Q 42.578125 3.328125 38.25 0.953125 
Q 33.9375 -1.421875 27.875 -1.421875 
Q 17.96875 -1.421875 11.734375 6.484375 
Q 5.515625 14.40625 5.515625 27.296875 
Q 5.515625 40.1875 11.734375 48.09375 
Q 17.96875 56 27.875 56 
Q 33.9375 56 38.25 53.625 
Q 42.578125 51.265625 45.40625 46.390625 
z
M 14.796875 27.296875 
Q 14.796875 17.390625 18.875 11.75 
Q 22.953125 6.109375 30.078125 6.109375 
Q 37.203125 6.109375 41.296875 11.75 
Q 45.40625 17.390625 45.40625 27.296875 
Q 45.40625 37.203125 41.296875 42.84375 
Q 37.203125 48.484375 30.078125 48.484375 
Q 22.953125 48.484375 18.875 42.84375 
Q 14.796875 37.203125 14.796875 27.296875 
z
" id="DejaVuSans-100"/>
    </defs>
    <g transform="translate(399.048437 31.276563)scale(0.1 -0.1)">
     <use xlink:href="#DejaVuSans-118"/>
     <use x="59.179688" xlink:href="#DejaVuSans-97"/>
     <use x="120.458984" xlink:href="#DejaVuSans-108"/>
     <use x="148.242188" xlink:href="#DejaVuSans-105"/>
     <use x="176.025391" xlink:href="#DejaVuSans-100"/>
    </g>
   </g>
  </g>
 </g>
 <defs>
  <clipPath id="p088ad0c733">
   <rect height="217.44" width="334.8" x="54" y="34.56"/>
  </clipPath>
 </defs>
</svg>
