<?xml version="1.0" encoding="utf-8" standalone="no"?>
<!DOCTYPE svg PUBLIC "-//W3C//DTD SVG 1.1//EN"
  "http://www.w3.org/Graphics/SVG/1.1/DTD/svg11.dtd">
<!-- Created with matplotlib (https://matplotlib.org/) -->
<svg height="288pt" version="1.1" viewBox="0 0 432 288" width="432pt" xmlns="http://www.w3.org/2000/svg" xmlns:xlink="http://www.w3.org/1999/xlink">
 <defs>
  <style type="text/css">
*{stroke-linecap:butt;stroke-linejoin:round;white-space:pre;}
  </style>
 </defs>
 <g id="figure_1">
  <g id="patch_1">
   <path d="M 0 288 
L 432 288 
L 432 0 
L 0 0 
z
" style="fill:#ffffff;"/>
  </g>
  <g id="axes_1">
   <g id="patch_2">
    <path d="M 54 252 
L 388.8 252 
L 388.8 34.56 
L 54 34.56 
z
" style="fill:#ffffff;"/>
   </g>
   <g id="matplotlib.axis_1">
    <g id="xtick_1">
     <g id="line2d_1">
      <defs>
       <path d="M 0 0 
L 0 3.5 
" id="m478107cd3e" style="stroke:#000000;stroke-width:0.8;"/>
      </defs>
      <g>
       <use style="stroke:#000000;stroke-width:0.8;" x="69.218182" xlink:href="#m478107cd3e" y="252"/>
      </g>
     </g>
     <g id="text_1">
      <!-- 0 -->
      <defs>
       <path d="M 31.78125 66.40625 
Q 24.171875 66.40625 20.328125 58.90625 
Q 16.5 51.421875 16.5 36.375 
Q 16.5 21.390625 20.328125 13.890625 
Q 24.171875 6.390625 31.78125 6.390625 
Q 39.453125 6.390625 43.28125 13.890625 
Q 47.125 21.390625 47.125 36.375 
Q 47.125 51.421875 43.28125 58.90625 
Q 39.453125 66.40625 31.78125 66.40625 
z
M 31.78125 74.21875 
Q 44.046875 74.21875 50.515625 64.515625 
Q 56.984375 54.828125 56.984375 36.375 
Q 56.984375 17.96875 50.515625 8.265625 
Q 44.046875 -1.421875 31.78125 -1.421875 
Q 19.53125 -1.421875 13.0625 8.265625 
Q 6.59375 17.96875 6.59375 36.375 
Q 6.59375 54.828125 13.0625 64.515625 
Q 19.53125 74.21875 31.78125 74.21875 
z
" id="DejaVuSans-48"/>
      </defs>
      <g transform="translate(66.036932 266.598437)scale(0.1 -0.1)">
       <use xlink:href="#DejaVuSans-48"/>
      </g>
     </g>
    </g>
    <g id="xtick_2">
     <g id="line2d_2">
      <g>
       <use style="stroke:#000000;stroke-width:0.8;" x="107.45482" xlink:href="#m478107cd3e" y="252"/>
      </g>
     </g>
     <g id="text_2">
      <!-- 25 -->
      <defs>
       <path d="M 19.1875 8.296875 
L 53.609375 8.296875 
L 53.609375 0 
L 7.328125 0 
L 7.328125 8.296875 
Q 12.9375 14.109375 22.625 23.890625 
Q 32.328125 33.6875 34.8125 36.53125 
Q 39.546875 41.84375 41.421875 45.53125 
Q 43.3125 49.21875 43.3125 52.78125 
Q 43.3125 58.59375 39.234375 62.25 
Q 35.15625 65.921875 28.609375 65.921875 
Q 23.96875 65.921875 18.8125 64.3125 
Q 13.671875 62.703125 7.8125 59.421875 
L 7.8125 69.390625 
Q 13.765625 71.78125 18.9375 73 
Q 24.125 74.21875 28.421875 74.21875 
Q 39.75 74.21875 46.484375 68.546875 
Q 53.21875 62.890625 53.21875 53.421875 
Q 53.21875 48.921875 51.53125 44.890625 
Q 49.859375 40.875 45.40625 35.40625 
Q 44.1875 33.984375 37.640625 27.21875 
Q 31.109375 20.453125 19.1875 8.296875 
z
" id="DejaVuSans-50"/>
       <path d="M 10.796875 72.90625 
L 49.515625 72.90625 
L 49.515625 64.59375 
L 19.828125 64.59375 
L 19.828125 46.734375 
Q 21.96875 47.46875 24.109375 47.828125 
Q 26.265625 48.1875 28.421875 48.1875 
Q 40.625 48.1875 47.75 41.5 
Q 54.890625 34.8125 54.890625 23.390625 
Q 54.890625 11.625 47.5625 5.09375 
Q 40.234375 -1.421875 26.90625 -1.421875 
Q 22.3125 -1.421875 17.546875 -0.640625 
Q 12.796875 0.140625 7.71875 1.703125 
L 7.71875 11.625 
Q 12.109375 9.234375 16.796875 8.0625 
Q 21.484375 6.890625 26.703125 6.890625 
Q 35.15625 6.890625 40.078125 11.328125 
Q 45.015625 15.765625 45.015625 23.390625 
Q 45.015625 31 40.078125 35.4375 
Q 35.15625 39.890625 26.703125 39.890625 
Q 22.75 39.890625 18.8125 39.015625 
Q 14.890625 38.140625 10.796875 36.28125 
z
" id="DejaVuSans-53"/>
      </defs>
      <g transform="translate(101.09232 266.598437)scale(0.1 -0.1)">
       <use xlink:href="#DejaVuSans-50"/>
       <use x="63.623047" xlink:href="#DejaVuSans-53"/>
      </g>
     </g>
    </g>
    <g id="xtick_3">
     <g id="line2d_3">
      <g>
       <use style="stroke:#000000;stroke-width:0.8;" x="145.691457" xlink:href="#m478107cd3e" y="252"/>
      </g>
     </g>
     <g id="text_3">
      <!-- 50 -->
      <g transform="translate(139.328957 266.598437)scale(0.1 -0.1)">
       <use xlink:href="#DejaVuSans-53"/>
       <use x="63.623047" xlink:href="#DejaVuSans-48"/>
      </g>
     </g>
    </g>
    <g id="xtick_4">
     <g id="line2d_4">
      <g>
       <use style="stroke:#000000;stroke-width:0.8;" x="183.928095" xlink:href="#m478107cd3e" y="252"/>
      </g>
     </g>
     <g id="text_4">
      <!-- 75 -->
      <defs>
       <path d="M 8.203125 72.90625 
L 55.078125 72.90625 
L 55.078125 68.703125 
L 28.609375 0 
L 18.3125 0 
L 43.21875 64.59375 
L 8.203125 64.59375 
z
" id="DejaVuSans-55"/>
      </defs>
      <g transform="translate(177.565595 266.598437)scale(0.1 -0.1)">
       <use xlink:href="#DejaVuSans-55"/>
       <use x="63.623047" xlink:href="#DejaVuSans-53"/>
      </g>
     </g>
    </g>
    <g id="xtick_5">
     <g id="line2d_5">
      <g>
       <use style="stroke:#000000;stroke-width:0.8;" x="222.164733" xlink:href="#m478107cd3e" y="252"/>
      </g>
     </g>
     <g id="text_5">
      <!-- 100 -->
      <defs>
       <path d="M 12.40625 8.296875 
L 28.515625 8.296875 
L 28.515625 63.921875 
L 10.984375 60.40625 
L 10.984375 69.390625 
L 28.421875 72.90625 
L 38.28125 72.90625 
L 38.28125 8.296875 
L 54.390625 8.296875 
L 54.390625 0 
L 12.40625 0 
z
" id="DejaVuSans-49"/>
      </defs>
      <g transform="translate(212.620983 266.598437)scale(0.1 -0.1)">
       <use xlink:href="#DejaVuSans-49"/>
       <use x="63.623047" xlink:href="#DejaVuSans-48"/>
       <use x="127.246094" xlink:href="#DejaVuSans-48"/>
      </g>
     </g>
    </g>
    <g id="xtick_6">
     <g id="line2d_6">
      <g>
       <use style="stroke:#000000;stroke-width:0.8;" x="260.40137" xlink:href="#m478107cd3e" y="252"/>
      </g>
     </g>
     <g id="text_6">
      <!-- 125 -->
      <g transform="translate(250.85762 266.598437)scale(0.1 -0.1)">
       <use xlink:href="#DejaVuSans-49"/>
       <use x="63.623047" xlink:href="#DejaVuSans-50"/>
       <use x="127.246094" xlink:href="#DejaVuSans-53"/>
      </g>
     </g>
    </g>
    <g id="xtick_7">
     <g id="line2d_7">
      <g>
       <use style="stroke:#000000;stroke-width:0.8;" x="298.638008" xlink:href="#m478107cd3e" y="252"/>
      </g>
     </g>
     <g id="text_7">
      <!-- 150 -->
      <g transform="translate(289.094258 266.598437)scale(0.1 -0.1)">
       <use xlink:href="#DejaVuSans-49"/>
       <use x="63.623047" xlink:href="#DejaVuSans-53"/>
       <use x="127.246094" xlink:href="#DejaVuSans-48"/>
      </g>
     </g>
    </g>
    <g id="xtick_8">
     <g id="line2d_8">
      <g>
       <use style="stroke:#000000;stroke-width:0.8;" x="336.874646" xlink:href="#m478107cd3e" y="252"/>
      </g>
     </g>
     <g id="text_8">
      <!-- 175 -->
      <g transform="translate(327.330896 266.598437)scale(0.1 -0.1)">
       <use xlink:href="#DejaVuSans-49"/>
       <use x="63.623047" xlink:href="#DejaVuSans-55"/>
       <use x="127.246094" xlink:href="#DejaVuSans-53"/>
      </g>
     </g>
    </g>
    <g id="xtick_9">
     <g id="line2d_9">
      <g>
       <use style="stroke:#000000;stroke-width:0.8;" x="375.111284" xlink:href="#m478107cd3e" y="252"/>
      </g>
     </g>
     <g id="text_9">
      <!-- 200 -->
      <g transform="translate(365.567534 266.598437)scale(0.1 -0.1)">
       <use xlink:href="#DejaVuSans-50"/>
       <use x="63.623047" xlink:href="#DejaVuSans-48"/>
       <use x="127.246094" xlink:href="#DejaVuSans-48"/>
      </g>
     </g>
    </g>
   </g>
   <g id="matplotlib.axis_2">
    <g id="ytick_1">
     <g id="line2d_10">
      <defs>
       <path d="M 0 0 
L -3.5 0 
" id="ma9d1715492" style="stroke:#000000;stroke-width:0.8;"/>
      </defs>
      <g>
       <use style="stroke:#000000;stroke-width:0.8;" x="54" xlink:href="#ma9d1715492" y="234.756802"/>
      </g>
     </g>
     <g id="text_10">
      <!-- 1.25 -->
      <defs>
       <path d="M 10.6875 12.40625 
L 21 12.40625 
L 21 0 
L 10.6875 0 
z
" id="DejaVuSans-46"/>
      </defs>
      <g transform="translate(24.734375 238.556021)scale(0.1 -0.1)">
       <use xlink:href="#DejaVuSans-49"/>
       <use x="63.623047" xlink:href="#DejaVuSans-46"/>
       <use x="95.410156" xlink:href="#DejaVuSans-50"/>
       <use x="159.033203" xlink:href="#DejaVuSans-53"/>
      </g>
     </g>
    </g>
    <g id="ytick_2">
     <g id="line2d_11">
      <g>
       <use style="stroke:#000000;stroke-width:0.8;" x="54" xlink:href="#ma9d1715492" y="206.963232"/>
      </g>
     </g>
     <g id="text_11">
      <!-- 1.50 -->
      <g transform="translate(24.734375 210.762451)scale(0.1 -0.1)">
       <use xlink:href="#DejaVuSans-49"/>
       <use x="63.623047" xlink:href="#DejaVuSans-46"/>
       <use x="95.410156" xlink:href="#DejaVuSans-53"/>
       <use x="159.033203" xlink:href="#DejaVuSans-48"/>
      </g>
     </g>
    </g>
    <g id="ytick_3">
     <g id="line2d_12">
      <g>
       <use style="stroke:#000000;stroke-width:0.8;" x="54" xlink:href="#ma9d1715492" y="179.169663"/>
      </g>
     </g>
     <g id="text_12">
      <!-- 1.75 -->
      <g transform="translate(24.734375 182.968881)scale(0.1 -0.1)">
       <use xlink:href="#DejaVuSans-49"/>
       <use x="63.623047" xlink:href="#DejaVuSans-46"/>
       <use x="95.410156" xlink:href="#DejaVuSans-55"/>
       <use x="159.033203" xlink:href="#DejaVuSans-53"/>
      </g>
     </g>
    </g>
    <g id="ytick_4">
     <g id="line2d_13">
      <g>
       <use style="stroke:#000000;stroke-width:0.8;" x="54" xlink:href="#ma9d1715492" y="151.376093"/>
      </g>
     </g>
     <g id="text_13">
      <!-- 2.00 -->
      <g transform="translate(24.734375 155.175312)scale(0.1 -0.1)">
       <use xlink:href="#DejaVuSans-50"/>
       <use x="63.623047" xlink:href="#DejaVuSans-46"/>
       <use x="95.410156" xlink:href="#DejaVuSans-48"/>
       <use x="159.033203" xlink:href="#DejaVuSans-48"/>
      </g>
     </g>
    </g>
    <g id="ytick_5">
     <g id="line2d_14">
      <g>
       <use style="stroke:#000000;stroke-width:0.8;" x="54" xlink:href="#ma9d1715492" y="123.582523"/>
      </g>
     </g>
     <g id="text_14">
      <!-- 2.25 -->
      <g transform="translate(24.734375 127.381742)scale(0.1 -0.1)">
       <use xlink:href="#DejaVuSans-50"/>
       <use x="63.623047" xlink:href="#DejaVuSans-46"/>
       <use x="95.410156" xlink:href="#DejaVuSans-50"/>
       <use x="159.033203" xlink:href="#DejaVuSans-53"/>
      </g>
     </g>
    </g>
    <g id="ytick_6">
     <g id="line2d_15">
      <g>
       <use style="stroke:#000000;stroke-width:0.8;" x="54" xlink:href="#ma9d1715492" y="95.788954"/>
      </g>
     </g>
     <g id="text_15">
      <!-- 2.50 -->
      <g transform="translate(24.734375 99.588172)scale(0.1 -0.1)">
       <use xlink:href="#DejaVuSans-50"/>
       <use x="63.623047" xlink:href="#DejaVuSans-46"/>
       <use x="95.410156" xlink:href="#DejaVuSans-53"/>
       <use x="159.033203" xlink:href="#DejaVuSans-48"/>
      </g>
     </g>
    </g>
    <g id="ytick_7">
     <g id="line2d_16">
      <g>
       <use style="stroke:#000000;stroke-width:0.8;" x="54" xlink:href="#ma9d1715492" y="67.995384"/>
      </g>
     </g>
     <g id="text_16">
      <!-- 2.75 -->
      <g transform="translate(24.734375 71.794603)scale(0.1 -0.1)">
       <use xlink:href="#DejaVuSans-50"/>
       <use x="63.623047" xlink:href="#DejaVuSans-46"/>
       <use x="95.410156" xlink:href="#DejaVuSans-55"/>
       <use x="159.033203" xlink:href="#DejaVuSans-53"/>
      </g>
     </g>
    </g>
    <g id="ytick_8">
     <g id="line2d_17">
      <g>
       <use style="stroke:#000000;stroke-width:0.8;" x="54" xlink:href="#ma9d1715492" y="40.201814"/>
      </g>
     </g>
     <g id="text_17">
      <!-- 3.00 -->
      <defs>
       <path d="M 40.578125 39.3125 
Q 47.65625 37.796875 51.625 33 
Q 55.609375 28.21875 55.609375 21.1875 
Q 55.609375 10.40625 48.1875 4.484375 
Q 40.765625 -1.421875 27.09375 -1.421875 
Q 22.515625 -1.421875 17.65625 -0.515625 
Q 12.796875 0.390625 7.625 2.203125 
L 7.625 11.71875 
Q 11.71875 9.328125 16.59375 8.109375 
Q 21.484375 6.890625 26.8125 6.890625 
Q 36.078125 6.890625 40.9375 10.546875 
Q 45.796875 14.203125 45.796875 21.1875 
Q 45.796875 27.640625 41.28125 31.265625 
Q 36.765625 34.90625 28.71875 34.90625 
L 20.21875 34.90625 
L 20.21875 43.015625 
L 29.109375 43.015625 
Q 36.375 43.015625 40.234375 45.921875 
Q 44.09375 48.828125 44.09375 54.296875 
Q 44.09375 59.90625 40.109375 62.90625 
Q 36.140625 65.921875 28.71875 65.921875 
Q 24.65625 65.921875 20.015625 65.03125 
Q 15.375 64.15625 9.8125 62.3125 
L 9.8125 71.09375 
Q 15.4375 72.65625 20.34375 73.4375 
Q 25.25 74.21875 29.59375 74.21875 
Q 40.828125 74.21875 47.359375 69.109375 
Q 53.90625 64.015625 53.90625 55.328125 
Q 53.90625 49.265625 50.4375 45.09375 
Q 46.96875 40.921875 40.578125 39.3125 
z
" id="DejaVuSans-51"/>
      </defs>
      <g transform="translate(24.734375 44.001033)scale(0.1 -0.1)">
       <use xlink:href="#DejaVuSans-51"/>
       <use x="63.623047" xlink:href="#DejaVuSans-46"/>
       <use x="95.410156" xlink:href="#DejaVuSans-48"/>
       <use x="159.033203" xlink:href="#DejaVuSans-48"/>
      </g>
     </g>
    </g>
   </g>
   <g id="line2d_18">
    <path clip-path="url(#p8a90f16900)" d="M 69.218182 67.738892 
L 70.747647 75.3976 
L 72.277113 81.189506 
L 75.336044 91.724072 
L 78.394975 101.55208 
L 81.453906 110.720733 
L 82.983371 115.059338 
L 87.571768 126.554494 
L 89.101233 130.198445 
L 92.160164 136.72069 
L 93.68963 139.818205 
L 98.278026 148.221641 
L 101.336958 153.079657 
L 108.984285 164.104346 
L 110.513751 165.833532 
L 112.043216 167.795123 
L 113.572682 169.095375 
L 115.102147 171.265791 
L 121.220009 177.522687 
L 122.749475 178.729926 
L 124.27894 179.711832 
L 125.808406 181.387269 
L 130.396802 185.138275 
L 131.926268 186.122398 
L 133.455733 187.674967 
L 136.514664 189.704809 
L 139.573595 191.410044 
L 141.103061 192.534273 
L 142.632526 193.881326 
L 144.161992 194.358785 
L 145.691457 195.379478 
L 147.220923 196.172081 
L 148.750388 197.201146 
L 150.279854 197.980089 
L 151.809319 199.180625 
L 153.338785 199.832964 
L 154.86825 200.682155 
L 157.927181 201.704553 
L 160.986112 203.240698 
L 162.515578 203.994893 
L 164.045043 204.918392 
L 165.574509 206.020395 
L 167.103974 205.995929 
L 168.63344 207.648303 
L 170.162905 207.458199 
L 171.692371 208.155546 
L 173.221836 209.132176 
L 174.751302 209.359185 
L 176.280767 210.257969 
L 177.810233 210.989163 
L 179.339698 211.292817 
L 182.39863 212.509386 
L 183.928095 212.500096 
L 185.457561 214.031951 
L 186.987026 213.542419 
L 188.516492 214.553781 
L 190.045957 214.886538 
L 191.575423 215.333537 
L 194.634354 216.850896 
L 196.163819 215.971724 
L 197.693285 217.674944 
L 199.22275 217.880441 
L 200.752216 218.729652 
L 203.811147 219.014888 
L 205.340612 219.877216 
L 206.870078 220.446846 
L 208.399543 220.469379 
L 209.929009 221.011855 
L 211.458474 221.393314 
L 212.98794 221.361341 
L 214.517405 221.980216 
L 216.046871 222.101416 
L 217.576336 222.801768 
L 219.105802 222.894653 
L 222.164733 224.248513 
L 223.694198 224.705694 
L 225.223664 224.362882 
L 226.753129 224.87587 
L 228.282595 225.080498 
L 229.81206 226.083032 
L 231.341526 225.562214 
L 232.870991 226.429769 
L 234.400457 227.145353 
L 235.929922 226.704403 
L 237.459388 227.598001 
L 238.988853 227.1009 
L 240.518319 227.783625 
L 242.047784 228.170554 
L 243.57725 227.912698 
L 245.106715 229.152992 
L 246.636181 229.251261 
L 248.165646 229.223448 
L 249.695112 229.859395 
L 251.224577 229.545847 
L 252.754043 229.81174 
L 254.283508 230.729044 
L 255.812974 230.125988 
L 257.342439 230.693725 
L 258.871905 231.652611 
L 261.930836 231.872885 
L 263.460302 229.875015 
L 264.989767 232.2408 
L 266.519233 232.180042 
L 268.048698 232.50351 
L 269.578164 232.45634 
L 271.107629 231.714145 
L 272.637095 232.936131 
L 274.16656 232.599021 
L 275.696026 233.324758 
L 277.225491 233.026819 
L 278.754957 233.305132 
L 280.284422 233.941607 
L 281.813888 234.10724 
L 284.872819 233.765307 
L 286.402284 234.520446 
L 287.93175 234.920372 
L 289.461215 234.334765 
L 290.990681 235.462807 
L 292.520146 235.787476 
L 294.049612 235.889504 
L 295.579077 234.554276 
L 297.108543 234.727406 
L 298.638008 236.614107 
L 300.167474 235.775819 
L 301.696939 236.654615 
L 303.226405 236.56861 
L 310.873732 237.648845 
L 312.403198 237.750635 
L 315.462129 237.635403 
L 316.991594 238.146316 
L 318.52106 237.757957 
L 320.050525 237.682226 
L 321.579991 238.884849 
L 323.109456 238.759452 
L 324.638922 238.304279 
L 326.168387 237.498923 
L 327.697853 239.007096 
L 329.227318 238.781478 
L 330.756784 238.941587 
L 332.286249 239.406154 
L 333.815715 239.490131 
L 335.34518 239.441124 
L 336.874646 239.842796 
L 338.404111 238.46242 
L 339.933577 237.935846 
L 341.463042 239.08004 
L 342.992508 239.802996 
L 344.521974 238.909648 
L 346.051439 239.970431 
L 347.580905 239.394101 
L 349.11037 240.429314 
L 350.639836 241.061731 
L 352.169301 240.54018 
L 353.698767 241.277375 
L 355.228232 240.725285 
L 356.757698 241.261264 
L 358.287163 241.151968 
L 359.816629 240.192106 
L 361.346094 240.645643 
L 362.87556 240.463927 
L 364.405025 241.582613 
L 365.934491 241.454926 
L 367.463956 240.806025 
L 368.993422 242.005252 
L 370.522887 240.921242 
L 372.052353 241.693361 
L 373.581818 242.116364 
L 373.581818 242.116364 
" style="fill:none;stroke:#0000ff;stroke-linecap:square;stroke-width:1.5;"/>
    <defs>
     <path d="M 0 3 
C 0.795609 3 1.55874 2.683901 2.12132 2.12132 
C 2.683901 1.55874 3 0.795609 3 0 
C 3 -0.795609 2.683901 -1.55874 2.12132 -2.12132 
C 1.55874 -2.683901 0.795609 -3 0 -3 
C -0.795609 -3 -1.55874 -2.683901 -2.12132 -2.12132 
C -2.683901 -1.55874 -3 -0.795609 -3 0 
C -3 0.795609 -2.683901 1.55874 -2.12132 2.12132 
C -1.55874 2.683901 -0.795609 3 0 3 
z
" id="m19f4bce563" style="stroke:#0000ff;"/>
    </defs>
    <g clip-path="url(#p8a90f16900)">
     <use style="fill:#0000ff;stroke:#0000ff;" x="69.218182" xlink:href="#m19f4bce563" y="67.738892"/>
     <use style="fill:#0000ff;stroke:#0000ff;" x="70.747647" xlink:href="#m19f4bce563" y="75.3976"/>
     <use style="fill:#0000ff;stroke:#0000ff;" x="72.277113" xlink:href="#m19f4bce563" y="81.189506"/>
     <use style="fill:#0000ff;stroke:#0000ff;" x="73.806578" xlink:href="#m19f4bce563" y="86.539977"/>
     <use style="fill:#0000ff;stroke:#0000ff;" x="75.336044" xlink:href="#m19f4bce563" y="91.724072"/>
     <use style="fill:#0000ff;stroke:#0000ff;" x="76.865509" xlink:href="#m19f4bce563" y="96.697358"/>
     <use style="fill:#0000ff;stroke:#0000ff;" x="78.394975" xlink:href="#m19f4bce563" y="101.55208"/>
     <use style="fill:#0000ff;stroke:#0000ff;" x="79.92444" xlink:href="#m19f4bce563" y="106.24663"/>
     <use style="fill:#0000ff;stroke:#0000ff;" x="81.453906" xlink:href="#m19f4bce563" y="110.720733"/>
     <use style="fill:#0000ff;stroke:#0000ff;" x="82.983371" xlink:href="#m19f4bce563" y="115.059338"/>
     <use style="fill:#0000ff;stroke:#0000ff;" x="84.512837" xlink:href="#m19f4bce563" y="118.970284"/>
     <use style="fill:#0000ff;stroke:#0000ff;" x="86.042302" xlink:href="#m19f4bce563" y="122.90848"/>
     <use style="fill:#0000ff;stroke:#0000ff;" x="87.571768" xlink:href="#m19f4bce563" y="126.554494"/>
     <use style="fill:#0000ff;stroke:#0000ff;" x="89.101233" xlink:href="#m19f4bce563" y="130.198445"/>
     <use style="fill:#0000ff;stroke:#0000ff;" x="90.630699" xlink:href="#m19f4bce563" y="133.538498"/>
     <use style="fill:#0000ff;stroke:#0000ff;" x="92.160164" xlink:href="#m19f4bce563" y="136.72069"/>
     <use style="fill:#0000ff;stroke:#0000ff;" x="93.68963" xlink:href="#m19f4bce563" y="139.818205"/>
     <use style="fill:#0000ff;stroke:#0000ff;" x="95.219095" xlink:href="#m19f4bce563" y="142.605319"/>
     <use style="fill:#0000ff;stroke:#0000ff;" x="96.748561" xlink:href="#m19f4bce563" y="145.525548"/>
     <use style="fill:#0000ff;stroke:#0000ff;" x="98.278026" xlink:href="#m19f4bce563" y="148.221641"/>
     <use style="fill:#0000ff;stroke:#0000ff;" x="99.807492" xlink:href="#m19f4bce563" y="150.665048"/>
     <use style="fill:#0000ff;stroke:#0000ff;" x="101.336958" xlink:href="#m19f4bce563" y="153.079657"/>
     <use style="fill:#0000ff;stroke:#0000ff;" x="102.866423" xlink:href="#m19f4bce563" y="155.303632"/>
     <use style="fill:#0000ff;stroke:#0000ff;" x="104.395889" xlink:href="#m19f4bce563" y="157.693474"/>
     <use style="fill:#0000ff;stroke:#0000ff;" x="105.925354" xlink:href="#m19f4bce563" y="159.743941"/>
     <use style="fill:#0000ff;stroke:#0000ff;" x="107.45482" xlink:href="#m19f4bce563" y="161.860873"/>
     <use style="fill:#0000ff;stroke:#0000ff;" x="108.984285" xlink:href="#m19f4bce563" y="164.104346"/>
     <use style="fill:#0000ff;stroke:#0000ff;" x="110.513751" xlink:href="#m19f4bce563" y="165.833532"/>
     <use style="fill:#0000ff;stroke:#0000ff;" x="112.043216" xlink:href="#m19f4bce563" y="167.795123"/>
     <use style="fill:#0000ff;stroke:#0000ff;" x="113.572682" xlink:href="#m19f4bce563" y="169.095375"/>
     <use style="fill:#0000ff;stroke:#0000ff;" x="115.102147" xlink:href="#m19f4bce563" y="171.265791"/>
     <use style="fill:#0000ff;stroke:#0000ff;" x="116.631613" xlink:href="#m19f4bce563" y="172.817976"/>
     <use style="fill:#0000ff;stroke:#0000ff;" x="118.161078" xlink:href="#m19f4bce563" y="174.433799"/>
     <use style="fill:#0000ff;stroke:#0000ff;" x="119.690544" xlink:href="#m19f4bce563" y="175.766017"/>
     <use style="fill:#0000ff;stroke:#0000ff;" x="121.220009" xlink:href="#m19f4bce563" y="177.522687"/>
     <use style="fill:#0000ff;stroke:#0000ff;" x="122.749475" xlink:href="#m19f4bce563" y="178.729926"/>
     <use style="fill:#0000ff;stroke:#0000ff;" x="124.27894" xlink:href="#m19f4bce563" y="179.711832"/>
     <use style="fill:#0000ff;stroke:#0000ff;" x="125.808406" xlink:href="#m19f4bce563" y="181.387269"/>
     <use style="fill:#0000ff;stroke:#0000ff;" x="127.337871" xlink:href="#m19f4bce563" y="182.616204"/>
     <use style="fill:#0000ff;stroke:#0000ff;" x="128.867337" xlink:href="#m19f4bce563" y="183.871169"/>
     <use style="fill:#0000ff;stroke:#0000ff;" x="130.396802" xlink:href="#m19f4bce563" y="185.138275"/>
     <use style="fill:#0000ff;stroke:#0000ff;" x="131.926268" xlink:href="#m19f4bce563" y="186.122398"/>
     <use style="fill:#0000ff;stroke:#0000ff;" x="133.455733" xlink:href="#m19f4bce563" y="187.674967"/>
     <use style="fill:#0000ff;stroke:#0000ff;" x="134.985199" xlink:href="#m19f4bce563" y="188.740688"/>
     <use style="fill:#0000ff;stroke:#0000ff;" x="136.514664" xlink:href="#m19f4bce563" y="189.704809"/>
     <use style="fill:#0000ff;stroke:#0000ff;" x="138.04413" xlink:href="#m19f4bce563" y="190.550628"/>
     <use style="fill:#0000ff;stroke:#0000ff;" x="139.573595" xlink:href="#m19f4bce563" y="191.410044"/>
     <use style="fill:#0000ff;stroke:#0000ff;" x="141.103061" xlink:href="#m19f4bce563" y="192.534273"/>
     <use style="fill:#0000ff;stroke:#0000ff;" x="142.632526" xlink:href="#m19f4bce563" y="193.881326"/>
     <use style="fill:#0000ff;stroke:#0000ff;" x="144.161992" xlink:href="#m19f4bce563" y="194.358785"/>
     <use style="fill:#0000ff;stroke:#0000ff;" x="145.691457" xlink:href="#m19f4bce563" y="195.379478"/>
     <use style="fill:#0000ff;stroke:#0000ff;" x="147.220923" xlink:href="#m19f4bce563" y="196.172081"/>
     <use style="fill:#0000ff;stroke:#0000ff;" x="148.750388" xlink:href="#m19f4bce563" y="197.201146"/>
     <use style="fill:#0000ff;stroke:#0000ff;" x="150.279854" xlink:href="#m19f4bce563" y="197.980089"/>
     <use style="fill:#0000ff;stroke:#0000ff;" x="151.809319" xlink:href="#m19f4bce563" y="199.180625"/>
     <use style="fill:#0000ff;stroke:#0000ff;" x="153.338785" xlink:href="#m19f4bce563" y="199.832964"/>
     <use style="fill:#0000ff;stroke:#0000ff;" x="154.86825" xlink:href="#m19f4bce563" y="200.682155"/>
     <use style="fill:#0000ff;stroke:#0000ff;" x="156.397716" xlink:href="#m19f4bce563" y="201.221494"/>
     <use style="fill:#0000ff;stroke:#0000ff;" x="157.927181" xlink:href="#m19f4bce563" y="201.704553"/>
     <use style="fill:#0000ff;stroke:#0000ff;" x="159.456647" xlink:href="#m19f4bce563" y="202.535219"/>
     <use style="fill:#0000ff;stroke:#0000ff;" x="160.986112" xlink:href="#m19f4bce563" y="203.240698"/>
     <use style="fill:#0000ff;stroke:#0000ff;" x="162.515578" xlink:href="#m19f4bce563" y="203.994893"/>
     <use style="fill:#0000ff;stroke:#0000ff;" x="164.045043" xlink:href="#m19f4bce563" y="204.918392"/>
     <use style="fill:#0000ff;stroke:#0000ff;" x="165.574509" xlink:href="#m19f4bce563" y="206.020395"/>
     <use style="fill:#0000ff;stroke:#0000ff;" x="167.103974" xlink:href="#m19f4bce563" y="205.995929"/>
     <use style="fill:#0000ff;stroke:#0000ff;" x="168.63344" xlink:href="#m19f4bce563" y="207.648303"/>
     <use style="fill:#0000ff;stroke:#0000ff;" x="170.162905" xlink:href="#m19f4bce563" y="207.458199"/>
     <use style="fill:#0000ff;stroke:#0000ff;" x="171.692371" xlink:href="#m19f4bce563" y="208.155546"/>
     <use style="fill:#0000ff;stroke:#0000ff;" x="173.221836" xlink:href="#m19f4bce563" y="209.132176"/>
     <use style="fill:#0000ff;stroke:#0000ff;" x="174.751302" xlink:href="#m19f4bce563" y="209.359185"/>
     <use style="fill:#0000ff;stroke:#0000ff;" x="176.280767" xlink:href="#m19f4bce563" y="210.257969"/>
     <use style="fill:#0000ff;stroke:#0000ff;" x="177.810233" xlink:href="#m19f4bce563" y="210.989163"/>
     <use style="fill:#0000ff;stroke:#0000ff;" x="179.339698" xlink:href="#m19f4bce563" y="211.292817"/>
     <use style="fill:#0000ff;stroke:#0000ff;" x="180.869164" xlink:href="#m19f4bce563" y="211.874266"/>
     <use style="fill:#0000ff;stroke:#0000ff;" x="182.39863" xlink:href="#m19f4bce563" y="212.509386"/>
     <use style="fill:#0000ff;stroke:#0000ff;" x="183.928095" xlink:href="#m19f4bce563" y="212.500096"/>
     <use style="fill:#0000ff;stroke:#0000ff;" x="185.457561" xlink:href="#m19f4bce563" y="214.031951"/>
     <use style="fill:#0000ff;stroke:#0000ff;" x="186.987026" xlink:href="#m19f4bce563" y="213.542419"/>
     <use style="fill:#0000ff;stroke:#0000ff;" x="188.516492" xlink:href="#m19f4bce563" y="214.553781"/>
     <use style="fill:#0000ff;stroke:#0000ff;" x="190.045957" xlink:href="#m19f4bce563" y="214.886538"/>
     <use style="fill:#0000ff;stroke:#0000ff;" x="191.575423" xlink:href="#m19f4bce563" y="215.333537"/>
     <use style="fill:#0000ff;stroke:#0000ff;" x="193.104888" xlink:href="#m19f4bce563" y="216.133126"/>
     <use style="fill:#0000ff;stroke:#0000ff;" x="194.634354" xlink:href="#m19f4bce563" y="216.850896"/>
     <use style="fill:#0000ff;stroke:#0000ff;" x="196.163819" xlink:href="#m19f4bce563" y="215.971724"/>
     <use style="fill:#0000ff;stroke:#0000ff;" x="197.693285" xlink:href="#m19f4bce563" y="217.674944"/>
     <use style="fill:#0000ff;stroke:#0000ff;" x="199.22275" xlink:href="#m19f4bce563" y="217.880441"/>
     <use style="fill:#0000ff;stroke:#0000ff;" x="200.752216" xlink:href="#m19f4bce563" y="218.729652"/>
     <use style="fill:#0000ff;stroke:#0000ff;" x="202.281681" xlink:href="#m19f4bce563" y="218.869288"/>
     <use style="fill:#0000ff;stroke:#0000ff;" x="203.811147" xlink:href="#m19f4bce563" y="219.014888"/>
     <use style="fill:#0000ff;stroke:#0000ff;" x="205.340612" xlink:href="#m19f4bce563" y="219.877216"/>
     <use style="fill:#0000ff;stroke:#0000ff;" x="206.870078" xlink:href="#m19f4bce563" y="220.446846"/>
     <use style="fill:#0000ff;stroke:#0000ff;" x="208.399543" xlink:href="#m19f4bce563" y="220.469379"/>
     <use style="fill:#0000ff;stroke:#0000ff;" x="209.929009" xlink:href="#m19f4bce563" y="221.011855"/>
     <use style="fill:#0000ff;stroke:#0000ff;" x="211.458474" xlink:href="#m19f4bce563" y="221.393314"/>
     <use style="fill:#0000ff;stroke:#0000ff;" x="212.98794" xlink:href="#m19f4bce563" y="221.361341"/>
     <use style="fill:#0000ff;stroke:#0000ff;" x="214.517405" xlink:href="#m19f4bce563" y="221.980216"/>
     <use style="fill:#0000ff;stroke:#0000ff;" x="216.046871" xlink:href="#m19f4bce563" y="222.101416"/>
     <use style="fill:#0000ff;stroke:#0000ff;" x="217.576336" xlink:href="#m19f4bce563" y="222.801768"/>
     <use style="fill:#0000ff;stroke:#0000ff;" x="219.105802" xlink:href="#m19f4bce563" y="222.894653"/>
     <use style="fill:#0000ff;stroke:#0000ff;" x="220.635267" xlink:href="#m19f4bce563" y="223.597832"/>
     <use style="fill:#0000ff;stroke:#0000ff;" x="222.164733" xlink:href="#m19f4bce563" y="224.248513"/>
     <use style="fill:#0000ff;stroke:#0000ff;" x="223.694198" xlink:href="#m19f4bce563" y="224.705694"/>
     <use style="fill:#0000ff;stroke:#0000ff;" x="225.223664" xlink:href="#m19f4bce563" y="224.362882"/>
     <use style="fill:#0000ff;stroke:#0000ff;" x="226.753129" xlink:href="#m19f4bce563" y="224.87587"/>
     <use style="fill:#0000ff;stroke:#0000ff;" x="228.282595" xlink:href="#m19f4bce563" y="225.080498"/>
     <use style="fill:#0000ff;stroke:#0000ff;" x="229.81206" xlink:href="#m19f4bce563" y="226.083032"/>
     <use style="fill:#0000ff;stroke:#0000ff;" x="231.341526" xlink:href="#m19f4bce563" y="225.562214"/>
     <use style="fill:#0000ff;stroke:#0000ff;" x="232.870991" xlink:href="#m19f4bce563" y="226.429769"/>
     <use style="fill:#0000ff;stroke:#0000ff;" x="234.400457" xlink:href="#m19f4bce563" y="227.145353"/>
     <use style="fill:#0000ff;stroke:#0000ff;" x="235.929922" xlink:href="#m19f4bce563" y="226.704403"/>
     <use style="fill:#0000ff;stroke:#0000ff;" x="237.459388" xlink:href="#m19f4bce563" y="227.598001"/>
     <use style="fill:#0000ff;stroke:#0000ff;" x="238.988853" xlink:href="#m19f4bce563" y="227.1009"/>
     <use style="fill:#0000ff;stroke:#0000ff;" x="240.518319" xlink:href="#m19f4bce563" y="227.783625"/>
     <use style="fill:#0000ff;stroke:#0000ff;" x="242.047784" xlink:href="#m19f4bce563" y="228.170554"/>
     <use style="fill:#0000ff;stroke:#0000ff;" x="243.57725" xlink:href="#m19f4bce563" y="227.912698"/>
     <use style="fill:#0000ff;stroke:#0000ff;" x="245.106715" xlink:href="#m19f4bce563" y="229.152992"/>
     <use style="fill:#0000ff;stroke:#0000ff;" x="246.636181" xlink:href="#m19f4bce563" y="229.251261"/>
     <use style="fill:#0000ff;stroke:#0000ff;" x="248.165646" xlink:href="#m19f4bce563" y="229.223448"/>
     <use style="fill:#0000ff;stroke:#0000ff;" x="249.695112" xlink:href="#m19f4bce563" y="229.859395"/>
     <use style="fill:#0000ff;stroke:#0000ff;" x="251.224577" xlink:href="#m19f4bce563" y="229.545847"/>
     <use style="fill:#0000ff;stroke:#0000ff;" x="252.754043" xlink:href="#m19f4bce563" y="229.81174"/>
     <use style="fill:#0000ff;stroke:#0000ff;" x="254.283508" xlink:href="#m19f4bce563" y="230.729044"/>
     <use style="fill:#0000ff;stroke:#0000ff;" x="255.812974" xlink:href="#m19f4bce563" y="230.125988"/>
     <use style="fill:#0000ff;stroke:#0000ff;" x="257.342439" xlink:href="#m19f4bce563" y="230.693725"/>
     <use style="fill:#0000ff;stroke:#0000ff;" x="258.871905" xlink:href="#m19f4bce563" y="231.652611"/>
     <use style="fill:#0000ff;stroke:#0000ff;" x="260.40137" xlink:href="#m19f4bce563" y="231.75685"/>
     <use style="fill:#0000ff;stroke:#0000ff;" x="261.930836" xlink:href="#m19f4bce563" y="231.872885"/>
     <use style="fill:#0000ff;stroke:#0000ff;" x="263.460302" xlink:href="#m19f4bce563" y="229.875015"/>
     <use style="fill:#0000ff;stroke:#0000ff;" x="264.989767" xlink:href="#m19f4bce563" y="232.2408"/>
     <use style="fill:#0000ff;stroke:#0000ff;" x="266.519233" xlink:href="#m19f4bce563" y="232.180042"/>
     <use style="fill:#0000ff;stroke:#0000ff;" x="268.048698" xlink:href="#m19f4bce563" y="232.50351"/>
     <use style="fill:#0000ff;stroke:#0000ff;" x="269.578164" xlink:href="#m19f4bce563" y="232.45634"/>
     <use style="fill:#0000ff;stroke:#0000ff;" x="271.107629" xlink:href="#m19f4bce563" y="231.714145"/>
     <use style="fill:#0000ff;stroke:#0000ff;" x="272.637095" xlink:href="#m19f4bce563" y="232.936131"/>
     <use style="fill:#0000ff;stroke:#0000ff;" x="274.16656" xlink:href="#m19f4bce563" y="232.599021"/>
     <use style="fill:#0000ff;stroke:#0000ff;" x="275.696026" xlink:href="#m19f4bce563" y="233.324758"/>
     <use style="fill:#0000ff;stroke:#0000ff;" x="277.225491" xlink:href="#m19f4bce563" y="233.026819"/>
     <use style="fill:#0000ff;stroke:#0000ff;" x="278.754957" xlink:href="#m19f4bce563" y="233.305132"/>
     <use style="fill:#0000ff;stroke:#0000ff;" x="280.284422" xlink:href="#m19f4bce563" y="233.941607"/>
     <use style="fill:#0000ff;stroke:#0000ff;" x="281.813888" xlink:href="#m19f4bce563" y="234.10724"/>
     <use style="fill:#0000ff;stroke:#0000ff;" x="283.343353" xlink:href="#m19f4bce563" y="233.929656"/>
     <use style="fill:#0000ff;stroke:#0000ff;" x="284.872819" xlink:href="#m19f4bce563" y="233.765307"/>
     <use style="fill:#0000ff;stroke:#0000ff;" x="286.402284" xlink:href="#m19f4bce563" y="234.520446"/>
     <use style="fill:#0000ff;stroke:#0000ff;" x="287.93175" xlink:href="#m19f4bce563" y="234.920372"/>
     <use style="fill:#0000ff;stroke:#0000ff;" x="289.461215" xlink:href="#m19f4bce563" y="234.334765"/>
     <use style="fill:#0000ff;stroke:#0000ff;" x="290.990681" xlink:href="#m19f4bce563" y="235.462807"/>
     <use style="fill:#0000ff;stroke:#0000ff;" x="292.520146" xlink:href="#m19f4bce563" y="235.787476"/>
     <use style="fill:#0000ff;stroke:#0000ff;" x="294.049612" xlink:href="#m19f4bce563" y="235.889504"/>
     <use style="fill:#0000ff;stroke:#0000ff;" x="295.579077" xlink:href="#m19f4bce563" y="234.554276"/>
     <use style="fill:#0000ff;stroke:#0000ff;" x="297.108543" xlink:href="#m19f4bce563" y="234.727406"/>
     <use style="fill:#0000ff;stroke:#0000ff;" x="298.638008" xlink:href="#m19f4bce563" y="236.614107"/>
     <use style="fill:#0000ff;stroke:#0000ff;" x="300.167474" xlink:href="#m19f4bce563" y="235.775819"/>
     <use style="fill:#0000ff;stroke:#0000ff;" x="301.696939" xlink:href="#m19f4bce563" y="236.654615"/>
     <use style="fill:#0000ff;stroke:#0000ff;" x="303.226405" xlink:href="#m19f4bce563" y="236.56861"/>
     <use style="fill:#0000ff;stroke:#0000ff;" x="304.75587" xlink:href="#m19f4bce563" y="236.787249"/>
     <use style="fill:#0000ff;stroke:#0000ff;" x="306.285336" xlink:href="#m19f4bce563" y="236.906966"/>
     <use style="fill:#0000ff;stroke:#0000ff;" x="307.814801" xlink:href="#m19f4bce563" y="237.262905"/>
     <use style="fill:#0000ff;stroke:#0000ff;" x="309.344267" xlink:href="#m19f4bce563" y="237.395704"/>
     <use style="fill:#0000ff;stroke:#0000ff;" x="310.873732" xlink:href="#m19f4bce563" y="237.648845"/>
     <use style="fill:#0000ff;stroke:#0000ff;" x="312.403198" xlink:href="#m19f4bce563" y="237.750635"/>
     <use style="fill:#0000ff;stroke:#0000ff;" x="313.932663" xlink:href="#m19f4bce563" y="237.707223"/>
     <use style="fill:#0000ff;stroke:#0000ff;" x="315.462129" xlink:href="#m19f4bce563" y="237.635403"/>
     <use style="fill:#0000ff;stroke:#0000ff;" x="316.991594" xlink:href="#m19f4bce563" y="238.146316"/>
     <use style="fill:#0000ff;stroke:#0000ff;" x="318.52106" xlink:href="#m19f4bce563" y="237.757957"/>
     <use style="fill:#0000ff;stroke:#0000ff;" x="320.050525" xlink:href="#m19f4bce563" y="237.682226"/>
     <use style="fill:#0000ff;stroke:#0000ff;" x="321.579991" xlink:href="#m19f4bce563" y="238.884849"/>
     <use style="fill:#0000ff;stroke:#0000ff;" x="323.109456" xlink:href="#m19f4bce563" y="238.759452"/>
     <use style="fill:#0000ff;stroke:#0000ff;" x="324.638922" xlink:href="#m19f4bce563" y="238.304279"/>
     <use style="fill:#0000ff;stroke:#0000ff;" x="326.168387" xlink:href="#m19f4bce563" y="237.498923"/>
     <use style="fill:#0000ff;stroke:#0000ff;" x="327.697853" xlink:href="#m19f4bce563" y="239.007096"/>
     <use style="fill:#0000ff;stroke:#0000ff;" x="329.227318" xlink:href="#m19f4bce563" y="238.781478"/>
     <use style="fill:#0000ff;stroke:#0000ff;" x="330.756784" xlink:href="#m19f4bce563" y="238.941587"/>
     <use style="fill:#0000ff;stroke:#0000ff;" x="332.286249" xlink:href="#m19f4bce563" y="239.406154"/>
     <use style="fill:#0000ff;stroke:#0000ff;" x="333.815715" xlink:href="#m19f4bce563" y="239.490131"/>
     <use style="fill:#0000ff;stroke:#0000ff;" x="335.34518" xlink:href="#m19f4bce563" y="239.441124"/>
     <use style="fill:#0000ff;stroke:#0000ff;" x="336.874646" xlink:href="#m19f4bce563" y="239.842796"/>
     <use style="fill:#0000ff;stroke:#0000ff;" x="338.404111" xlink:href="#m19f4bce563" y="238.46242"/>
     <use style="fill:#0000ff;stroke:#0000ff;" x="339.933577" xlink:href="#m19f4bce563" y="237.935846"/>
     <use style="fill:#0000ff;stroke:#0000ff;" x="341.463042" xlink:href="#m19f4bce563" y="239.08004"/>
     <use style="fill:#0000ff;stroke:#0000ff;" x="342.992508" xlink:href="#m19f4bce563" y="239.802996"/>
     <use style="fill:#0000ff;stroke:#0000ff;" x="344.521974" xlink:href="#m19f4bce563" y="238.909648"/>
     <use style="fill:#0000ff;stroke:#0000ff;" x="346.051439" xlink:href="#m19f4bce563" y="239.970431"/>
     <use style="fill:#0000ff;stroke:#0000ff;" x="347.580905" xlink:href="#m19f4bce563" y="239.394101"/>
     <use style="fill:#0000ff;stroke:#0000ff;" x="349.11037" xlink:href="#m19f4bce563" y="240.429314"/>
     <use style="fill:#0000ff;stroke:#0000ff;" x="350.639836" xlink:href="#m19f4bce563" y="241.061731"/>
     <use style="fill:#0000ff;stroke:#0000ff;" x="352.169301" xlink:href="#m19f4bce563" y="240.54018"/>
     <use style="fill:#0000ff;stroke:#0000ff;" x="353.698767" xlink:href="#m19f4bce563" y="241.277375"/>
     <use style="fill:#0000ff;stroke:#0000ff;" x="355.228232" xlink:href="#m19f4bce563" y="240.725285"/>
     <use style="fill:#0000ff;stroke:#0000ff;" x="356.757698" xlink:href="#m19f4bce563" y="241.261264"/>
     <use style="fill:#0000ff;stroke:#0000ff;" x="358.287163" xlink:href="#m19f4bce563" y="241.151968"/>
     <use style="fill:#0000ff;stroke:#0000ff;" x="359.816629" xlink:href="#m19f4bce563" y="240.192106"/>
     <use style="fill:#0000ff;stroke:#0000ff;" x="361.346094" xlink:href="#m19f4bce563" y="240.645643"/>
     <use style="fill:#0000ff;stroke:#0000ff;" x="362.87556" xlink:href="#m19f4bce563" y="240.463927"/>
     <use style="fill:#0000ff;stroke:#0000ff;" x="364.405025" xlink:href="#m19f4bce563" y="241.582613"/>
     <use style="fill:#0000ff;stroke:#0000ff;" x="365.934491" xlink:href="#m19f4bce563" y="241.454926"/>
     <use style="fill:#0000ff;stroke:#0000ff;" x="367.463956" xlink:href="#m19f4bce563" y="240.806025"/>
     <use style="fill:#0000ff;stroke:#0000ff;" x="368.993422" xlink:href="#m19f4bce563" y="242.005252"/>
     <use style="fill:#0000ff;stroke:#0000ff;" x="370.522887" xlink:href="#m19f4bce563" y="240.921242"/>
     <use style="fill:#0000ff;stroke:#0000ff;" x="372.052353" xlink:href="#m19f4bce563" y="241.693361"/>
     <use style="fill:#0000ff;stroke:#0000ff;" x="373.581818" xlink:href="#m19f4bce563" y="242.116364"/>
    </g>
   </g>
   <g id="line2d_19">
    <path clip-path="url(#p8a90f16900)" d="M 69.218182 44.443636 
L 70.747647 52.198975 
L 76.865509 76.383845 
L 78.394975 80.475726 
L 81.453906 90.075061 
L 82.983371 95.865214 
L 84.512837 99.393477 
L 87.571768 108.836925 
L 89.101233 110.935597 
L 90.630699 115.808878 
L 92.160164 118.891106 
L 93.68963 121.478918 
L 95.219095 123.845871 
L 96.748561 127.50099 
L 98.278026 131.588379 
L 99.807492 133.363139 
L 101.336958 135.614896 
L 104.395889 141.478484 
L 107.45482 145.44533 
L 108.984285 146.926104 
L 110.513751 149.494728 
L 112.043216 152.812227 
L 113.572682 153.703913 
L 115.102147 156.455829 
L 116.631613 156.337357 
L 118.161078 158.981245 
L 119.690544 159.667421 
L 121.220009 162.825835 
L 122.749475 163.115974 
L 124.27894 164.183573 
L 125.808406 166.618467 
L 127.337871 168.262426 
L 128.867337 169.001641 
L 130.396802 171.309076 
L 131.926268 172.428144 
L 133.455733 173.706851 
L 134.985199 174.629294 
L 136.514664 175.236422 
L 138.04413 176.689701 
L 139.573595 177.47455 
L 142.632526 180.288969 
L 144.161992 179.073544 
L 147.220923 181.627711 
L 148.750388 184.282565 
L 150.279854 183.339628 
L 151.809319 185.281335 
L 153.338785 185.53818 
L 154.86825 187.254671 
L 156.397716 187.798728 
L 157.927181 189.563935 
L 159.456647 189.988706 
L 160.986112 190.055734 
L 162.515578 191.253993 
L 164.045043 191.430171 
L 165.574509 193.278516 
L 167.103974 194.103108 
L 168.63344 194.47159 
L 170.162905 193.700938 
L 171.692371 195.543845 
L 173.221836 196.092567 
L 174.751302 196.281862 
L 176.280767 197.924509 
L 177.810233 197.87031 
L 179.339698 198.861406 
L 180.869164 199.507372 
L 182.39863 198.784004 
L 183.928095 200.586383 
L 185.457561 201.64693 
L 188.516492 201.978392 
L 190.045957 202.832245 
L 191.575423 203.280278 
L 193.104888 204.132324 
L 194.634354 204.77175 
L 196.163819 204.050186 
L 197.693285 205.126585 
L 199.22275 206.393384 
L 200.752216 206.775658 
L 202.281681 207.034421 
L 203.811147 206.986756 
L 205.340612 208.141949 
L 206.870078 208.546357 
L 208.399543 207.957015 
L 209.929009 209.16055 
L 211.458474 209.88657 
L 212.98794 209.660923 
L 214.517405 210.011427 
L 216.046871 211.074583 
L 217.576336 211.561214 
L 219.105802 211.515749 
L 220.635267 212.487748 
L 225.223664 212.797801 
L 226.753129 212.995973 
L 228.282595 212.964677 
L 229.81206 214.090944 
L 231.341526 214.901555 
L 232.870991 214.589566 
L 234.400457 214.444596 
L 235.929922 213.670541 
L 237.459388 216.260358 
L 238.988853 215.663766 
L 240.518319 216.380437 
L 242.047784 215.58067 
L 243.57725 217.127412 
L 245.106715 216.867237 
L 246.636181 217.98061 
L 248.165646 218.179804 
L 249.695112 218.054551 
L 251.224577 217.316343 
L 252.754043 219.059175 
L 254.283508 219.397598 
L 257.342439 219.838297 
L 258.871905 220.380623 
L 260.40137 220.271165 
L 261.930836 220.480143 
L 263.460302 219.640237 
L 264.989767 220.636044 
L 266.519233 221.498115 
L 268.048698 221.239987 
L 269.578164 221.672579 
L 271.107629 220.452958 
L 272.637095 222.283515 
L 274.16656 222.024759 
L 275.696026 221.998982 
L 277.225491 222.552017 
L 278.754957 222.242955 
L 280.284422 223.19591 
L 281.813888 222.001778 
L 283.343353 224.008429 
L 284.872819 223.037906 
L 286.402284 224.314363 
L 287.93175 223.528173 
L 289.461215 223.556447 
L 290.990681 225.041401 
L 292.520146 224.803362 
L 294.049612 225.256471 
L 295.579077 225.011393 
L 297.108543 224.555879 
L 298.638008 225.814402 
L 301.696939 226.017878 
L 303.226405 226.553604 
L 304.75587 226.707186 
L 306.285336 226.620699 
L 307.814801 227.204567 
L 310.873732 226.848294 
L 312.403198 227.200706 
L 313.932663 227.6956 
L 315.462129 226.860756 
L 316.991594 227.836544 
L 320.050525 228.177631 
L 321.579991 227.963608 
L 323.109456 228.185955 
L 324.638922 227.611655 
L 326.168387 227.964785 
L 327.697853 228.753462 
L 329.227318 228.697324 
L 330.756784 229.376088 
L 332.286249 229.493931 
L 333.815715 228.991535 
L 336.874646 229.706592 
L 338.404111 227.975212 
L 339.933577 225.845886 
L 341.463042 229.956429 
L 342.992508 227.8334 
L 344.521974 229.674409 
L 347.580905 229.940965 
L 349.11037 230.614131 
L 350.639836 230.401351 
L 353.698767 230.968601 
L 355.228232 230.88302 
L 356.757698 231.15643 
L 358.287163 230.948142 
L 359.816629 231.231601 
L 361.346094 231.068905 
L 362.87556 230.764338 
L 365.934491 231.712177 
L 367.463956 231.061216 
L 368.993422 231.840325 
L 370.522887 231.764553 
L 372.052353 232.07418 
L 373.581818 231.712598 
L 373.581818 231.712598 
" style="fill:none;stroke:#ff0000;stroke-linecap:square;stroke-width:1.5;"/>
    <defs>
     <path d="M 0 1.5 
C 0.397805 1.5 0.77937 1.341951 1.06066 1.06066 
C 1.341951 0.77937 1.5 0.397805 1.5 0 
C 1.5 -0.397805 1.341951 -0.77937 1.06066 -1.06066 
C 0.77937 -1.341951 0.397805 -1.5 0 -1.5 
C -0.397805 -1.5 -0.77937 -1.341951 -1.06066 -1.06066 
C -1.341951 -0.77937 -1.5 -0.397805 -1.5 0 
C -1.5 0.397805 -1.341951 0.77937 -1.06066 1.06066 
C -0.77937 1.341951 -0.397805 1.5 0 1.5 
z
" id="ma2c37be93e" style="stroke:#ff0000;"/>
    </defs>
    <g clip-path="url(#p8a90f16900)">
     <use style="fill:#ff0000;stroke:#ff0000;" x="69.218182" xlink:href="#ma2c37be93e" y="44.443636"/>
     <use style="fill:#ff0000;stroke:#ff0000;" x="70.747647" xlink:href="#ma2c37be93e" y="52.198975"/>
     <use style="fill:#ff0000;stroke:#ff0000;" x="72.277113" xlink:href="#ma2c37be93e" y="58.149107"/>
     <use style="fill:#ff0000;stroke:#ff0000;" x="73.806578" xlink:href="#ma2c37be93e" y="63.868892"/>
     <use style="fill:#ff0000;stroke:#ff0000;" x="75.336044" xlink:href="#ma2c37be93e" y="69.790542"/>
     <use style="fill:#ff0000;stroke:#ff0000;" x="76.865509" xlink:href="#ma2c37be93e" y="76.383845"/>
     <use style="fill:#ff0000;stroke:#ff0000;" x="78.394975" xlink:href="#ma2c37be93e" y="80.475726"/>
     <use style="fill:#ff0000;stroke:#ff0000;" x="79.92444" xlink:href="#ma2c37be93e" y="85.142669"/>
     <use style="fill:#ff0000;stroke:#ff0000;" x="81.453906" xlink:href="#ma2c37be93e" y="90.075061"/>
     <use style="fill:#ff0000;stroke:#ff0000;" x="82.983371" xlink:href="#ma2c37be93e" y="95.865214"/>
     <use style="fill:#ff0000;stroke:#ff0000;" x="84.512837" xlink:href="#ma2c37be93e" y="99.393477"/>
     <use style="fill:#ff0000;stroke:#ff0000;" x="86.042302" xlink:href="#ma2c37be93e" y="104.288204"/>
     <use style="fill:#ff0000;stroke:#ff0000;" x="87.571768" xlink:href="#ma2c37be93e" y="108.836925"/>
     <use style="fill:#ff0000;stroke:#ff0000;" x="89.101233" xlink:href="#ma2c37be93e" y="110.935597"/>
     <use style="fill:#ff0000;stroke:#ff0000;" x="90.630699" xlink:href="#ma2c37be93e" y="115.808878"/>
     <use style="fill:#ff0000;stroke:#ff0000;" x="92.160164" xlink:href="#ma2c37be93e" y="118.891106"/>
     <use style="fill:#ff0000;stroke:#ff0000;" x="93.68963" xlink:href="#ma2c37be93e" y="121.478918"/>
     <use style="fill:#ff0000;stroke:#ff0000;" x="95.219095" xlink:href="#ma2c37be93e" y="123.845871"/>
     <use style="fill:#ff0000;stroke:#ff0000;" x="96.748561" xlink:href="#ma2c37be93e" y="127.50099"/>
     <use style="fill:#ff0000;stroke:#ff0000;" x="98.278026" xlink:href="#ma2c37be93e" y="131.588379"/>
     <use style="fill:#ff0000;stroke:#ff0000;" x="99.807492" xlink:href="#ma2c37be93e" y="133.363139"/>
     <use style="fill:#ff0000;stroke:#ff0000;" x="101.336958" xlink:href="#ma2c37be93e" y="135.614896"/>
     <use style="fill:#ff0000;stroke:#ff0000;" x="102.866423" xlink:href="#ma2c37be93e" y="138.521426"/>
     <use style="fill:#ff0000;stroke:#ff0000;" x="104.395889" xlink:href="#ma2c37be93e" y="141.478484"/>
     <use style="fill:#ff0000;stroke:#ff0000;" x="105.925354" xlink:href="#ma2c37be93e" y="143.543535"/>
     <use style="fill:#ff0000;stroke:#ff0000;" x="107.45482" xlink:href="#ma2c37be93e" y="145.44533"/>
     <use style="fill:#ff0000;stroke:#ff0000;" x="108.984285" xlink:href="#ma2c37be93e" y="146.926104"/>
     <use style="fill:#ff0000;stroke:#ff0000;" x="110.513751" xlink:href="#ma2c37be93e" y="149.494728"/>
     <use style="fill:#ff0000;stroke:#ff0000;" x="112.043216" xlink:href="#ma2c37be93e" y="152.812227"/>
     <use style="fill:#ff0000;stroke:#ff0000;" x="113.572682" xlink:href="#ma2c37be93e" y="153.703913"/>
     <use style="fill:#ff0000;stroke:#ff0000;" x="115.102147" xlink:href="#ma2c37be93e" y="156.455829"/>
     <use style="fill:#ff0000;stroke:#ff0000;" x="116.631613" xlink:href="#ma2c37be93e" y="156.337357"/>
     <use style="fill:#ff0000;stroke:#ff0000;" x="118.161078" xlink:href="#ma2c37be93e" y="158.981245"/>
     <use style="fill:#ff0000;stroke:#ff0000;" x="119.690544" xlink:href="#ma2c37be93e" y="159.667421"/>
     <use style="fill:#ff0000;stroke:#ff0000;" x="121.220009" xlink:href="#ma2c37be93e" y="162.825835"/>
     <use style="fill:#ff0000;stroke:#ff0000;" x="122.749475" xlink:href="#ma2c37be93e" y="163.115974"/>
     <use style="fill:#ff0000;stroke:#ff0000;" x="124.27894" xlink:href="#ma2c37be93e" y="164.183573"/>
     <use style="fill:#ff0000;stroke:#ff0000;" x="125.808406" xlink:href="#ma2c37be93e" y="166.618467"/>
     <use style="fill:#ff0000;stroke:#ff0000;" x="127.337871" xlink:href="#ma2c37be93e" y="168.262426"/>
     <use style="fill:#ff0000;stroke:#ff0000;" x="128.867337" xlink:href="#ma2c37be93e" y="169.001641"/>
     <use style="fill:#ff0000;stroke:#ff0000;" x="130.396802" xlink:href="#ma2c37be93e" y="171.309076"/>
     <use style="fill:#ff0000;stroke:#ff0000;" x="131.926268" xlink:href="#ma2c37be93e" y="172.428144"/>
     <use style="fill:#ff0000;stroke:#ff0000;" x="133.455733" xlink:href="#ma2c37be93e" y="173.706851"/>
     <use style="fill:#ff0000;stroke:#ff0000;" x="134.985199" xlink:href="#ma2c37be93e" y="174.629294"/>
     <use style="fill:#ff0000;stroke:#ff0000;" x="136.514664" xlink:href="#ma2c37be93e" y="175.236422"/>
     <use style="fill:#ff0000;stroke:#ff0000;" x="138.04413" xlink:href="#ma2c37be93e" y="176.689701"/>
     <use style="fill:#ff0000;stroke:#ff0000;" x="139.573595" xlink:href="#ma2c37be93e" y="177.47455"/>
     <use style="fill:#ff0000;stroke:#ff0000;" x="141.103061" xlink:href="#ma2c37be93e" y="178.821273"/>
     <use style="fill:#ff0000;stroke:#ff0000;" x="142.632526" xlink:href="#ma2c37be93e" y="180.288969"/>
     <use style="fill:#ff0000;stroke:#ff0000;" x="144.161992" xlink:href="#ma2c37be93e" y="179.073544"/>
     <use style="fill:#ff0000;stroke:#ff0000;" x="145.691457" xlink:href="#ma2c37be93e" y="180.40648"/>
     <use style="fill:#ff0000;stroke:#ff0000;" x="147.220923" xlink:href="#ma2c37be93e" y="181.627711"/>
     <use style="fill:#ff0000;stroke:#ff0000;" x="148.750388" xlink:href="#ma2c37be93e" y="184.282565"/>
     <use style="fill:#ff0000;stroke:#ff0000;" x="150.279854" xlink:href="#ma2c37be93e" y="183.339628"/>
     <use style="fill:#ff0000;stroke:#ff0000;" x="151.809319" xlink:href="#ma2c37be93e" y="185.281335"/>
     <use style="fill:#ff0000;stroke:#ff0000;" x="153.338785" xlink:href="#ma2c37be93e" y="185.53818"/>
     <use style="fill:#ff0000;stroke:#ff0000;" x="154.86825" xlink:href="#ma2c37be93e" y="187.254671"/>
     <use style="fill:#ff0000;stroke:#ff0000;" x="156.397716" xlink:href="#ma2c37be93e" y="187.798728"/>
     <use style="fill:#ff0000;stroke:#ff0000;" x="157.927181" xlink:href="#ma2c37be93e" y="189.563935"/>
     <use style="fill:#ff0000;stroke:#ff0000;" x="159.456647" xlink:href="#ma2c37be93e" y="189.988706"/>
     <use style="fill:#ff0000;stroke:#ff0000;" x="160.986112" xlink:href="#ma2c37be93e" y="190.055734"/>
     <use style="fill:#ff0000;stroke:#ff0000;" x="162.515578" xlink:href="#ma2c37be93e" y="191.253993"/>
     <use style="fill:#ff0000;stroke:#ff0000;" x="164.045043" xlink:href="#ma2c37be93e" y="191.430171"/>
     <use style="fill:#ff0000;stroke:#ff0000;" x="165.574509" xlink:href="#ma2c37be93e" y="193.278516"/>
     <use style="fill:#ff0000;stroke:#ff0000;" x="167.103974" xlink:href="#ma2c37be93e" y="194.103108"/>
     <use style="fill:#ff0000;stroke:#ff0000;" x="168.63344" xlink:href="#ma2c37be93e" y="194.47159"/>
     <use style="fill:#ff0000;stroke:#ff0000;" x="170.162905" xlink:href="#ma2c37be93e" y="193.700938"/>
     <use style="fill:#ff0000;stroke:#ff0000;" x="171.692371" xlink:href="#ma2c37be93e" y="195.543845"/>
     <use style="fill:#ff0000;stroke:#ff0000;" x="173.221836" xlink:href="#ma2c37be93e" y="196.092567"/>
     <use style="fill:#ff0000;stroke:#ff0000;" x="174.751302" xlink:href="#ma2c37be93e" y="196.281862"/>
     <use style="fill:#ff0000;stroke:#ff0000;" x="176.280767" xlink:href="#ma2c37be93e" y="197.924509"/>
     <use style="fill:#ff0000;stroke:#ff0000;" x="177.810233" xlink:href="#ma2c37be93e" y="197.87031"/>
     <use style="fill:#ff0000;stroke:#ff0000;" x="179.339698" xlink:href="#ma2c37be93e" y="198.861406"/>
     <use style="fill:#ff0000;stroke:#ff0000;" x="180.869164" xlink:href="#ma2c37be93e" y="199.507372"/>
     <use style="fill:#ff0000;stroke:#ff0000;" x="182.39863" xlink:href="#ma2c37be93e" y="198.784004"/>
     <use style="fill:#ff0000;stroke:#ff0000;" x="183.928095" xlink:href="#ma2c37be93e" y="200.586383"/>
     <use style="fill:#ff0000;stroke:#ff0000;" x="185.457561" xlink:href="#ma2c37be93e" y="201.64693"/>
     <use style="fill:#ff0000;stroke:#ff0000;" x="186.987026" xlink:href="#ma2c37be93e" y="201.803443"/>
     <use style="fill:#ff0000;stroke:#ff0000;" x="188.516492" xlink:href="#ma2c37be93e" y="201.978392"/>
     <use style="fill:#ff0000;stroke:#ff0000;" x="190.045957" xlink:href="#ma2c37be93e" y="202.832245"/>
     <use style="fill:#ff0000;stroke:#ff0000;" x="191.575423" xlink:href="#ma2c37be93e" y="203.280278"/>
     <use style="fill:#ff0000;stroke:#ff0000;" x="193.104888" xlink:href="#ma2c37be93e" y="204.132324"/>
     <use style="fill:#ff0000;stroke:#ff0000;" x="194.634354" xlink:href="#ma2c37be93e" y="204.77175"/>
     <use style="fill:#ff0000;stroke:#ff0000;" x="196.163819" xlink:href="#ma2c37be93e" y="204.050186"/>
     <use style="fill:#ff0000;stroke:#ff0000;" x="197.693285" xlink:href="#ma2c37be93e" y="205.126585"/>
     <use style="fill:#ff0000;stroke:#ff0000;" x="199.22275" xlink:href="#ma2c37be93e" y="206.393384"/>
     <use style="fill:#ff0000;stroke:#ff0000;" x="200.752216" xlink:href="#ma2c37be93e" y="206.775658"/>
     <use style="fill:#ff0000;stroke:#ff0000;" x="202.281681" xlink:href="#ma2c37be93e" y="207.034421"/>
     <use style="fill:#ff0000;stroke:#ff0000;" x="203.811147" xlink:href="#ma2c37be93e" y="206.986756"/>
     <use style="fill:#ff0000;stroke:#ff0000;" x="205.340612" xlink:href="#ma2c37be93e" y="208.141949"/>
     <use style="fill:#ff0000;stroke:#ff0000;" x="206.870078" xlink:href="#ma2c37be93e" y="208.546357"/>
     <use style="fill:#ff0000;stroke:#ff0000;" x="208.399543" xlink:href="#ma2c37be93e" y="207.957015"/>
     <use style="fill:#ff0000;stroke:#ff0000;" x="209.929009" xlink:href="#ma2c37be93e" y="209.16055"/>
     <use style="fill:#ff0000;stroke:#ff0000;" x="211.458474" xlink:href="#ma2c37be93e" y="209.88657"/>
     <use style="fill:#ff0000;stroke:#ff0000;" x="212.98794" xlink:href="#ma2c37be93e" y="209.660923"/>
     <use style="fill:#ff0000;stroke:#ff0000;" x="214.517405" xlink:href="#ma2c37be93e" y="210.011427"/>
     <use style="fill:#ff0000;stroke:#ff0000;" x="216.046871" xlink:href="#ma2c37be93e" y="211.074583"/>
     <use style="fill:#ff0000;stroke:#ff0000;" x="217.576336" xlink:href="#ma2c37be93e" y="211.561214"/>
     <use style="fill:#ff0000;stroke:#ff0000;" x="219.105802" xlink:href="#ma2c37be93e" y="211.515749"/>
     <use style="fill:#ff0000;stroke:#ff0000;" x="220.635267" xlink:href="#ma2c37be93e" y="212.487748"/>
     <use style="fill:#ff0000;stroke:#ff0000;" x="222.164733" xlink:href="#ma2c37be93e" y="212.58185"/>
     <use style="fill:#ff0000;stroke:#ff0000;" x="223.694198" xlink:href="#ma2c37be93e" y="212.70364"/>
     <use style="fill:#ff0000;stroke:#ff0000;" x="225.223664" xlink:href="#ma2c37be93e" y="212.797801"/>
     <use style="fill:#ff0000;stroke:#ff0000;" x="226.753129" xlink:href="#ma2c37be93e" y="212.995973"/>
     <use style="fill:#ff0000;stroke:#ff0000;" x="228.282595" xlink:href="#ma2c37be93e" y="212.964677"/>
     <use style="fill:#ff0000;stroke:#ff0000;" x="229.81206" xlink:href="#ma2c37be93e" y="214.090944"/>
     <use style="fill:#ff0000;stroke:#ff0000;" x="231.341526" xlink:href="#ma2c37be93e" y="214.901555"/>
     <use style="fill:#ff0000;stroke:#ff0000;" x="232.870991" xlink:href="#ma2c37be93e" y="214.589566"/>
     <use style="fill:#ff0000;stroke:#ff0000;" x="234.400457" xlink:href="#ma2c37be93e" y="214.444596"/>
     <use style="fill:#ff0000;stroke:#ff0000;" x="235.929922" xlink:href="#ma2c37be93e" y="213.670541"/>
     <use style="fill:#ff0000;stroke:#ff0000;" x="237.459388" xlink:href="#ma2c37be93e" y="216.260358"/>
     <use style="fill:#ff0000;stroke:#ff0000;" x="238.988853" xlink:href="#ma2c37be93e" y="215.663766"/>
     <use style="fill:#ff0000;stroke:#ff0000;" x="240.518319" xlink:href="#ma2c37be93e" y="216.380437"/>
     <use style="fill:#ff0000;stroke:#ff0000;" x="242.047784" xlink:href="#ma2c37be93e" y="215.58067"/>
     <use style="fill:#ff0000;stroke:#ff0000;" x="243.57725" xlink:href="#ma2c37be93e" y="217.127412"/>
     <use style="fill:#ff0000;stroke:#ff0000;" x="245.106715" xlink:href="#ma2c37be93e" y="216.867237"/>
     <use style="fill:#ff0000;stroke:#ff0000;" x="246.636181" xlink:href="#ma2c37be93e" y="217.98061"/>
     <use style="fill:#ff0000;stroke:#ff0000;" x="248.165646" xlink:href="#ma2c37be93e" y="218.179804"/>
     <use style="fill:#ff0000;stroke:#ff0000;" x="249.695112" xlink:href="#ma2c37be93e" y="218.054551"/>
     <use style="fill:#ff0000;stroke:#ff0000;" x="251.224577" xlink:href="#ma2c37be93e" y="217.316343"/>
     <use style="fill:#ff0000;stroke:#ff0000;" x="252.754043" xlink:href="#ma2c37be93e" y="219.059175"/>
     <use style="fill:#ff0000;stroke:#ff0000;" x="254.283508" xlink:href="#ma2c37be93e" y="219.397598"/>
     <use style="fill:#ff0000;stroke:#ff0000;" x="255.812974" xlink:href="#ma2c37be93e" y="219.57524"/>
     <use style="fill:#ff0000;stroke:#ff0000;" x="257.342439" xlink:href="#ma2c37be93e" y="219.838297"/>
     <use style="fill:#ff0000;stroke:#ff0000;" x="258.871905" xlink:href="#ma2c37be93e" y="220.380623"/>
     <use style="fill:#ff0000;stroke:#ff0000;" x="260.40137" xlink:href="#ma2c37be93e" y="220.271165"/>
     <use style="fill:#ff0000;stroke:#ff0000;" x="261.930836" xlink:href="#ma2c37be93e" y="220.480143"/>
     <use style="fill:#ff0000;stroke:#ff0000;" x="263.460302" xlink:href="#ma2c37be93e" y="219.640237"/>
     <use style="fill:#ff0000;stroke:#ff0000;" x="264.989767" xlink:href="#ma2c37be93e" y="220.636044"/>
     <use style="fill:#ff0000;stroke:#ff0000;" x="266.519233" xlink:href="#ma2c37be93e" y="221.498115"/>
     <use style="fill:#ff0000;stroke:#ff0000;" x="268.048698" xlink:href="#ma2c37be93e" y="221.239987"/>
     <use style="fill:#ff0000;stroke:#ff0000;" x="269.578164" xlink:href="#ma2c37be93e" y="221.672579"/>
     <use style="fill:#ff0000;stroke:#ff0000;" x="271.107629" xlink:href="#ma2c37be93e" y="220.452958"/>
     <use style="fill:#ff0000;stroke:#ff0000;" x="272.637095" xlink:href="#ma2c37be93e" y="222.283515"/>
     <use style="fill:#ff0000;stroke:#ff0000;" x="274.16656" xlink:href="#ma2c37be93e" y="222.024759"/>
     <use style="fill:#ff0000;stroke:#ff0000;" x="275.696026" xlink:href="#ma2c37be93e" y="221.998982"/>
     <use style="fill:#ff0000;stroke:#ff0000;" x="277.225491" xlink:href="#ma2c37be93e" y="222.552017"/>
     <use style="fill:#ff0000;stroke:#ff0000;" x="278.754957" xlink:href="#ma2c37be93e" y="222.242955"/>
     <use style="fill:#ff0000;stroke:#ff0000;" x="280.284422" xlink:href="#ma2c37be93e" y="223.19591"/>
     <use style="fill:#ff0000;stroke:#ff0000;" x="281.813888" xlink:href="#ma2c37be93e" y="222.001778"/>
     <use style="fill:#ff0000;stroke:#ff0000;" x="283.343353" xlink:href="#ma2c37be93e" y="224.008429"/>
     <use style="fill:#ff0000;stroke:#ff0000;" x="284.872819" xlink:href="#ma2c37be93e" y="223.037906"/>
     <use style="fill:#ff0000;stroke:#ff0000;" x="286.402284" xlink:href="#ma2c37be93e" y="224.314363"/>
     <use style="fill:#ff0000;stroke:#ff0000;" x="287.93175" xlink:href="#ma2c37be93e" y="223.528173"/>
     <use style="fill:#ff0000;stroke:#ff0000;" x="289.461215" xlink:href="#ma2c37be93e" y="223.556447"/>
     <use style="fill:#ff0000;stroke:#ff0000;" x="290.990681" xlink:href="#ma2c37be93e" y="225.041401"/>
     <use style="fill:#ff0000;stroke:#ff0000;" x="292.520146" xlink:href="#ma2c37be93e" y="224.803362"/>
     <use style="fill:#ff0000;stroke:#ff0000;" x="294.049612" xlink:href="#ma2c37be93e" y="225.256471"/>
     <use style="fill:#ff0000;stroke:#ff0000;" x="295.579077" xlink:href="#ma2c37be93e" y="225.011393"/>
     <use style="fill:#ff0000;stroke:#ff0000;" x="297.108543" xlink:href="#ma2c37be93e" y="224.555879"/>
     <use style="fill:#ff0000;stroke:#ff0000;" x="298.638008" xlink:href="#ma2c37be93e" y="225.814402"/>
     <use style="fill:#ff0000;stroke:#ff0000;" x="300.167474" xlink:href="#ma2c37be93e" y="225.962503"/>
     <use style="fill:#ff0000;stroke:#ff0000;" x="301.696939" xlink:href="#ma2c37be93e" y="226.017878"/>
     <use style="fill:#ff0000;stroke:#ff0000;" x="303.226405" xlink:href="#ma2c37be93e" y="226.553604"/>
     <use style="fill:#ff0000;stroke:#ff0000;" x="304.75587" xlink:href="#ma2c37be93e" y="226.707186"/>
     <use style="fill:#ff0000;stroke:#ff0000;" x="306.285336" xlink:href="#ma2c37be93e" y="226.620699"/>
     <use style="fill:#ff0000;stroke:#ff0000;" x="307.814801" xlink:href="#ma2c37be93e" y="227.204567"/>
     <use style="fill:#ff0000;stroke:#ff0000;" x="309.344267" xlink:href="#ma2c37be93e" y="227.020076"/>
     <use style="fill:#ff0000;stroke:#ff0000;" x="310.873732" xlink:href="#ma2c37be93e" y="226.848294"/>
     <use style="fill:#ff0000;stroke:#ff0000;" x="312.403198" xlink:href="#ma2c37be93e" y="227.200706"/>
     <use style="fill:#ff0000;stroke:#ff0000;" x="313.932663" xlink:href="#ma2c37be93e" y="227.6956"/>
     <use style="fill:#ff0000;stroke:#ff0000;" x="315.462129" xlink:href="#ma2c37be93e" y="226.860756"/>
     <use style="fill:#ff0000;stroke:#ff0000;" x="316.991594" xlink:href="#ma2c37be93e" y="227.836544"/>
     <use style="fill:#ff0000;stroke:#ff0000;" x="318.52106" xlink:href="#ma2c37be93e" y="228.025931"/>
     <use style="fill:#ff0000;stroke:#ff0000;" x="320.050525" xlink:href="#ma2c37be93e" y="228.177631"/>
     <use style="fill:#ff0000;stroke:#ff0000;" x="321.579991" xlink:href="#ma2c37be93e" y="227.963608"/>
     <use style="fill:#ff0000;stroke:#ff0000;" x="323.109456" xlink:href="#ma2c37be93e" y="228.185955"/>
     <use style="fill:#ff0000;stroke:#ff0000;" x="324.638922" xlink:href="#ma2c37be93e" y="227.611655"/>
     <use style="fill:#ff0000;stroke:#ff0000;" x="326.168387" xlink:href="#ma2c37be93e" y="227.964785"/>
     <use style="fill:#ff0000;stroke:#ff0000;" x="327.697853" xlink:href="#ma2c37be93e" y="228.753462"/>
     <use style="fill:#ff0000;stroke:#ff0000;" x="329.227318" xlink:href="#ma2c37be93e" y="228.697324"/>
     <use style="fill:#ff0000;stroke:#ff0000;" x="330.756784" xlink:href="#ma2c37be93e" y="229.376088"/>
     <use style="fill:#ff0000;stroke:#ff0000;" x="332.286249" xlink:href="#ma2c37be93e" y="229.493931"/>
     <use style="fill:#ff0000;stroke:#ff0000;" x="333.815715" xlink:href="#ma2c37be93e" y="228.991535"/>
     <use style="fill:#ff0000;stroke:#ff0000;" x="335.34518" xlink:href="#ma2c37be93e" y="229.402304"/>
     <use style="fill:#ff0000;stroke:#ff0000;" x="336.874646" xlink:href="#ma2c37be93e" y="229.706592"/>
     <use style="fill:#ff0000;stroke:#ff0000;" x="338.404111" xlink:href="#ma2c37be93e" y="227.975212"/>
     <use style="fill:#ff0000;stroke:#ff0000;" x="339.933577" xlink:href="#ma2c37be93e" y="225.845886"/>
     <use style="fill:#ff0000;stroke:#ff0000;" x="341.463042" xlink:href="#ma2c37be93e" y="229.956429"/>
     <use style="fill:#ff0000;stroke:#ff0000;" x="342.992508" xlink:href="#ma2c37be93e" y="227.8334"/>
     <use style="fill:#ff0000;stroke:#ff0000;" x="344.521974" xlink:href="#ma2c37be93e" y="229.674409"/>
     <use style="fill:#ff0000;stroke:#ff0000;" x="346.051439" xlink:href="#ma2c37be93e" y="229.82499"/>
     <use style="fill:#ff0000;stroke:#ff0000;" x="347.580905" xlink:href="#ma2c37be93e" y="229.940965"/>
     <use style="fill:#ff0000;stroke:#ff0000;" x="349.11037" xlink:href="#ma2c37be93e" y="230.614131"/>
     <use style="fill:#ff0000;stroke:#ff0000;" x="350.639836" xlink:href="#ma2c37be93e" y="230.401351"/>
     <use style="fill:#ff0000;stroke:#ff0000;" x="352.169301" xlink:href="#ma2c37be93e" y="230.686686"/>
     <use style="fill:#ff0000;stroke:#ff0000;" x="353.698767" xlink:href="#ma2c37be93e" y="230.968601"/>
     <use style="fill:#ff0000;stroke:#ff0000;" x="355.228232" xlink:href="#ma2c37be93e" y="230.88302"/>
     <use style="fill:#ff0000;stroke:#ff0000;" x="356.757698" xlink:href="#ma2c37be93e" y="231.15643"/>
     <use style="fill:#ff0000;stroke:#ff0000;" x="358.287163" xlink:href="#ma2c37be93e" y="230.948142"/>
     <use style="fill:#ff0000;stroke:#ff0000;" x="359.816629" xlink:href="#ma2c37be93e" y="231.231601"/>
     <use style="fill:#ff0000;stroke:#ff0000;" x="361.346094" xlink:href="#ma2c37be93e" y="231.068905"/>
     <use style="fill:#ff0000;stroke:#ff0000;" x="362.87556" xlink:href="#ma2c37be93e" y="230.764338"/>
     <use style="fill:#ff0000;stroke:#ff0000;" x="364.405025" xlink:href="#ma2c37be93e" y="231.188808"/>
     <use style="fill:#ff0000;stroke:#ff0000;" x="365.934491" xlink:href="#ma2c37be93e" y="231.712177"/>
     <use style="fill:#ff0000;stroke:#ff0000;" x="367.463956" xlink:href="#ma2c37be93e" y="231.061216"/>
     <use style="fill:#ff0000;stroke:#ff0000;" x="368.993422" xlink:href="#ma2c37be93e" y="231.840325"/>
     <use style="fill:#ff0000;stroke:#ff0000;" x="370.522887" xlink:href="#ma2c37be93e" y="231.764553"/>
     <use style="fill:#ff0000;stroke:#ff0000;" x="372.052353" xlink:href="#ma2c37be93e" y="232.07418"/>
     <use style="fill:#ff0000;stroke:#ff0000;" x="373.581818" xlink:href="#ma2c37be93e" y="231.712598"/>
    </g>
   </g>
   <g id="patch_3">
    <path d="M 54 252 
L 54 34.56 
" style="fill:none;stroke:#000000;stroke-linecap:square;stroke-linejoin:miter;stroke-width:0.8;"/>
   </g>
   <g id="patch_4">
    <path d="M 388.8 252 
L 388.8 34.56 
" style="fill:none;stroke:#000000;stroke-linecap:square;stroke-linejoin:miter;stroke-width:0.8;"/>
   </g>
   <g id="patch_5">
    <path d="M 54 252 
L 388.8 252 
" style="fill:none;stroke:#000000;stroke-linecap:square;stroke-linejoin:miter;stroke-width:0.8;"/>
   </g>
   <g id="patch_6">
    <path d="M 54 34.56 
L 388.8 34.56 
" style="fill:none;stroke:#000000;stroke-linecap:square;stroke-linejoin:miter;stroke-width:0.8;"/>
   </g>
   <g id="text_18">
    <!-- Losses -->
    <defs>
     <path d="M 9.8125 72.90625 
L 19.671875 72.90625 
L 19.671875 8.296875 
L 55.171875 8.296875 
L 55.171875 0 
L 9.8125 0 
z
" id="DejaVuSans-76"/>
     <path d="M 30.609375 48.390625 
Q 23.390625 48.390625 19.1875 42.75 
Q 14.984375 37.109375 14.984375 27.296875 
Q 14.984375 17.484375 19.15625 11.84375 
Q 23.34375 6.203125 30.609375 6.203125 
Q 37.796875 6.203125 41.984375 11.859375 
Q 46.1875 17.53125 46.1875 27.296875 
Q 46.1875 37.015625 41.984375 42.703125 
Q 37.796875 48.390625 30.609375 48.390625 
z
M 30.609375 56 
Q 42.328125 56 49.015625 48.375 
Q 55.71875 40.765625 55.71875 27.296875 
Q 55.71875 13.875 49.015625 6.21875 
Q 42.328125 -1.421875 30.609375 -1.421875 
Q 18.84375 -1.421875 12.171875 6.21875 
Q 5.515625 13.875 5.515625 27.296875 
Q 5.515625 40.765625 12.171875 48.375 
Q 18.84375 56 30.609375 56 
z
" id="DejaVuSans-111"/>
     <path d="M 44.28125 53.078125 
L 44.28125 44.578125 
Q 40.484375 46.53125 36.375 47.5 
Q 32.28125 48.484375 27.875 48.484375 
Q 21.1875 48.484375 17.84375 46.4375 
Q 14.5 44.390625 14.5 40.28125 
Q 14.5 37.15625 16.890625 35.375 
Q 19.28125 33.59375 26.515625 31.984375 
L 29.59375 31.296875 
Q 39.15625 29.25 43.1875 25.515625 
Q 47.21875 21.78125 47.21875 15.09375 
Q 47.21875 7.46875 41.1875 3.015625 
Q 35.15625 -1.421875 24.609375 -1.421875 
Q 20.21875 -1.421875 15.453125 -0.5625 
Q 10.6875 0.296875 5.421875 2 
L 5.421875 11.28125 
Q 10.40625 8.6875 15.234375 7.390625 
Q 20.0625 6.109375 24.8125 6.109375 
Q 31.15625 6.109375 34.5625 8.28125 
Q 37.984375 10.453125 37.984375 14.40625 
Q 37.984375 18.0625 35.515625 20.015625 
Q 33.0625 21.96875 24.703125 23.78125 
L 21.578125 24.515625 
Q 13.234375 26.265625 9.515625 29.90625 
Q 5.8125 33.546875 5.8125 39.890625 
Q 5.8125 47.609375 11.28125 51.796875 
Q 16.75 56 26.8125 56 
Q 31.78125 56 36.171875 55.265625 
Q 40.578125 54.546875 44.28125 53.078125 
z
" id="DejaVuSans-115"/>
     <path d="M 56.203125 29.59375 
L 56.203125 25.203125 
L 14.890625 25.203125 
Q 15.484375 15.921875 20.484375 11.0625 
Q 25.484375 6.203125 34.421875 6.203125 
Q 39.59375 6.203125 44.453125 7.46875 
Q 49.3125 8.734375 54.109375 11.28125 
L 54.109375 2.78125 
Q 49.265625 0.734375 44.1875 -0.34375 
Q 39.109375 -1.421875 33.890625 -1.421875 
Q 20.796875 -1.421875 13.15625 6.1875 
Q 5.515625 13.8125 5.515625 26.8125 
Q 5.515625 40.234375 12.765625 48.109375 
Q 20.015625 56 32.328125 56 
Q 43.359375 56 49.78125 48.890625 
Q 56.203125 41.796875 56.203125 29.59375 
z
M 47.21875 32.234375 
Q 47.125 39.59375 43.09375 43.984375 
Q 39.0625 48.390625 32.421875 48.390625 
Q 24.90625 48.390625 20.390625 44.140625 
Q 15.875 39.890625 15.1875 32.171875 
z
" id="DejaVuSans-101"/>
    </defs>
    <g transform="translate(201.317813 28.56)scale(0.12 -0.12)">
     <use xlink:href="#DejaVuSans-76"/>
     <use x="55.697266" xlink:href="#DejaVuSans-111"/>
     <use x="116.878906" xlink:href="#DejaVuSans-115"/>
     <use x="168.978516" xlink:href="#DejaVuSans-115"/>
     <use x="221.078125" xlink:href="#DejaVuSans-101"/>
     <use x="282.601562" xlink:href="#DejaVuSans-115"/>
    </g>
   </g>
  </g>
  <g id="legend_1">
   <g id="patch_7">
    <path d="M 369.048437 37.35625 
L 425 37.35625 
Q 427 37.35625 427 35.35625 
L 427 7 
Q 427 5 425 5 
L 369.048437 5 
Q 367.048437 5 367.048437 7 
L 367.048437 35.35625 
Q 367.048437 37.35625 369.048437 37.35625 
z
" style="fill:#ffffff;opacity:0.8;stroke:#cccccc;stroke-linejoin:miter;"/>
   </g>
   <g id="line2d_20">
    <path d="M 371.048437 13.098437 
L 391.048437 13.098437 
" style="fill:none;stroke:#0000ff;stroke-linecap:square;stroke-width:1.5;"/>
   </g>
   <g id="line2d_21">
    <g>
     <use style="fill:#0000ff;stroke:#0000ff;" x="381.048437" xlink:href="#m19f4bce563" y="13.098437"/>
    </g>
   </g>
   <g id="text_19">
    <!-- train -->
    <defs>
     <path d="M 18.3125 70.21875 
L 18.3125 54.6875 
L 36.8125 54.6875 
L 36.8125 47.703125 
L 18.3125 47.703125 
L 18.3125 18.015625 
Q 18.3125 11.328125 20.140625 9.421875 
Q 21.96875 7.515625 27.59375 7.515625 
L 36.8125 7.515625 
L 36.8125 0 
L 27.59375 0 
Q 17.1875 0 13.234375 3.875 
Q 9.28125 7.765625 9.28125 18.015625 
L 9.28125 47.703125 
L 2.6875 47.703125 
L 2.6875 54.6875 
L 9.28125 54.6875 
L 9.28125 70.21875 
z
" id="DejaVuSans-116"/>
     <path d="M 41.109375 46.296875 
Q 39.59375 47.171875 37.8125 47.578125 
Q 36.03125 48 33.890625 48 
Q 26.265625 48 22.1875 43.046875 
Q 18.109375 38.09375 18.109375 28.8125 
L 18.109375 0 
L 9.078125 0 
L 9.078125 54.6875 
L 18.109375 54.6875 
L 18.109375 46.1875 
Q 20.953125 51.171875 25.484375 53.578125 
Q 30.03125 56 36.53125 56 
Q 37.453125 56 38.578125 55.875 
Q 39.703125 55.765625 41.0625 55.515625 
z
" id="DejaVuSans-114"/>
     <path d="M 34.28125 27.484375 
Q 23.390625 27.484375 19.1875 25 
Q 14.984375 22.515625 14.984375 16.5 
Q 14.984375 11.71875 18.140625 8.90625 
Q 21.296875 6.109375 26.703125 6.109375 
Q 34.1875 6.109375 38.703125 11.40625 
Q 43.21875 16.703125 43.21875 25.484375 
L 43.21875 27.484375 
z
M 52.203125 31.203125 
L 52.203125 0 
L 43.21875 0 
L 43.21875 8.296875 
Q 40.140625 3.328125 35.546875 0.953125 
Q 30.953125 -1.421875 24.3125 -1.421875 
Q 15.921875 -1.421875 10.953125 3.296875 
Q 6 8.015625 6 15.921875 
Q 6 25.140625 12.171875 29.828125 
Q 18.359375 34.515625 30.609375 34.515625 
L 43.21875 34.515625 
L 43.21875 35.40625 
Q 43.21875 41.609375 39.140625 45 
Q 35.0625 48.390625 27.6875 48.390625 
Q 23 48.390625 18.546875 47.265625 
Q 14.109375 46.140625 10.015625 43.890625 
L 10.015625 52.203125 
Q 14.9375 54.109375 19.578125 55.046875 
Q 24.21875 56 28.609375 56 
Q 40.484375 56 46.34375 49.84375 
Q 52.203125 43.703125 52.203125 31.203125 
z
" id="DejaVuSans-97"/>
     <path d="M 9.421875 54.6875 
L 18.40625 54.6875 
L 18.40625 0 
L 9.421875 0 
z
M 9.421875 75.984375 
L 18.40625 75.984375 
L 18.40625 64.59375 
L 9.421875 64.59375 
z
" id="DejaVuSans-105"/>
     <path d="M 54.890625 33.015625 
L 54.890625 0 
L 45.90625 0 
L 45.90625 32.71875 
Q 45.90625 40.484375 42.875 44.328125 
Q 39.84375 48.1875 33.796875 48.1875 
Q 26.515625 48.1875 22.3125 43.546875 
Q 18.109375 38.921875 18.109375 30.90625 
L 18.109375 0 
L 9.078125 0 
L 9.078125 54.6875 
L 18.109375 54.6875 
L 18.109375 46.1875 
Q 21.34375 51.125 25.703125 53.5625 
Q 30.078125 56 35.796875 56 
Q 45.21875 56 50.046875 50.171875 
Q 54.890625 44.34375 54.890625 33.015625 
z
" id="DejaVuSans-110"/>
    </defs>
    <g transform="translate(399.048437 16.598437)scale(0.1 -0.1)">
     <use xlink:href="#DejaVuSans-116"/>
     <use x="39.208984" xlink:href="#DejaVuSans-114"/>
     <use x="80.322266" xlink:href="#DejaVuSans-97"/>
     <use x="141.601562" xlink:href="#DejaVuSans-105"/>
     <use x="169.384766" xlink:href="#DejaVuSans-110"/>
    </g>
   </g>
   <g id="line2d_22">
    <path d="M 371.048437 27.776563 
L 391.048437 27.776563 
" style="fill:none;stroke:#ff0000;stroke-linecap:square;stroke-width:1.5;"/>
   </g>
   <g id="line2d_23">
    <g>
     <use style="fill:#ff0000;stroke:#ff0000;" x="381.048437" xlink:href="#ma2c37be93e" y="27.776563"/>
    </g>
   </g>
   <g id="text_20">
    <!-- valid -->
    <defs>
     <path d="M 2.984375 54.6875 
L 12.5 54.6875 
L 29.59375 8.796875 
L 46.6875 54.6875 
L 56.203125 54.6875 
L 35.6875 0 
L 23.484375 0 
z
" id="DejaVuSans-118"/>
     <path d="M 9.421875 75.984375 
L 18.40625 75.984375 
L 18.40625 0 
L 9.421875 0 
z
" id="DejaVuSans-108"/>
     <path d="M 45.40625 46.390625 
L 45.40625 75.984375 
L 54.390625 75.984375 
L 54.390625 0 
L 45.40625 0 
L 45.40625 8.203125 
Q 42.578125 3.328125 38.25 0.953125 
Q 33.9375 -1.421875 27.875 -1.421875 
Q 17.96875 -1.421875 11.734375 6.484375 
Q 5.515625 14.40625 5.515625 27.296875 
Q 5.515625 40.1875 11.734375 48.09375 
Q 17.96875 56 27.875 56 
Q 33.9375 56 38.25 53.625 
Q 42.578125 51.265625 45.40625 46.390625 
z
M 14.796875 27.296875 
Q 14.796875 17.390625 18.875 11.75 
Q 22.953125 6.109375 30.078125 6.109375 
Q 37.203125 6.109375 41.296875 11.75 
Q 45.40625 17.390625 45.40625 27.296875 
Q 45.40625 37.203125 41.296875 42.84375 
Q 37.203125 48.484375 30.078125 48.484375 
Q 22.953125 48.484375 18.875 42.84375 
Q 14.796875 37.203125 14.796875 27.296875 
z
" id="DejaVuSans-100"/>
    </defs>
    <g transform="translate(399.048437 31.276563)scale(0.1 -0.1)">
     <use xlink:href="#DejaVuSans-118"/>
     <use x="59.179688" xlink:href="#DejaVuSans-97"/>
     <use x="120.458984" xlink:href="#DejaVuSans-108"/>
     <use x="148.242188" xlink:href="#DejaVuSans-105"/>
     <use x="176.025391" xlink:href="#DejaVuSans-100"/>
    </g>
   </g>
  </g>
 </g>
 <defs>
  <clipPath id="p8a90f16900">
   <rect height="217.44" width="334.8" x="54" y="34.56"/>
  </clipPath>
 </defs>
</svg>
