<?xml version="1.0" encoding="utf-8" standalone="no"?>
<!DOCTYPE svg PUBLIC "-//W3C//DTD SVG 1.1//EN"
  "http://www.w3.org/Graphics/SVG/1.1/DTD/svg11.dtd">
<!-- Created with matplotlib (https://matplotlib.org/) -->
<svg height="288pt" version="1.1" viewBox="0 0 432 288" width="432pt" xmlns="http://www.w3.org/2000/svg" xmlns:xlink="http://www.w3.org/1999/xlink">
 <defs>
  <style type="text/css">
*{stroke-linecap:butt;stroke-linejoin:round;white-space:pre;}
  </style>
 </defs>
 <g id="figure_1">
  <g id="patch_1">
   <path d="M 0 288 
L 432 288 
L 432 0 
L 0 0 
z
" style="fill:#ffffff;"/>
  </g>
  <g id="axes_1">
   <g id="patch_2">
    <path d="M 54 252 
L 388.8 252 
L 388.8 34.56 
L 54 34.56 
z
" style="fill:#ffffff;"/>
   </g>
   <g id="matplotlib.axis_1">
    <g id="xtick_1">
     <g id="line2d_1">
      <defs>
       <path d="M 0 0 
L 0 3.5 
" id="ma8761ec0c7" style="stroke:#000000;stroke-width:0.8;"/>
      </defs>
      <g>
       <use style="stroke:#000000;stroke-width:0.8;" x="69.218182" xlink:href="#ma8761ec0c7" y="252"/>
      </g>
     </g>
     <g id="text_1">
      <!-- 0 -->
      <defs>
       <path d="M 31.78125 66.40625 
Q 24.171875 66.40625 20.328125 58.90625 
Q 16.5 51.421875 16.5 36.375 
Q 16.5 21.390625 20.328125 13.890625 
Q 24.171875 6.390625 31.78125 6.390625 
Q 39.453125 6.390625 43.28125 13.890625 
Q 47.125 21.390625 47.125 36.375 
Q 47.125 51.421875 43.28125 58.90625 
Q 39.453125 66.40625 31.78125 66.40625 
z
M 31.78125 74.21875 
Q 44.046875 74.21875 50.515625 64.515625 
Q 56.984375 54.828125 56.984375 36.375 
Q 56.984375 17.96875 50.515625 8.265625 
Q 44.046875 -1.421875 31.78125 -1.421875 
Q 19.53125 -1.421875 13.0625 8.265625 
Q 6.59375 17.96875 6.59375 36.375 
Q 6.59375 54.828125 13.0625 64.515625 
Q 19.53125 74.21875 31.78125 74.21875 
z
" id="DejaVuSans-48"/>
      </defs>
      <g transform="translate(66.036932 266.598437)scale(0.1 -0.1)">
       <use xlink:href="#DejaVuSans-48"/>
      </g>
     </g>
    </g>
    <g id="xtick_2">
     <g id="line2d_2">
      <g>
       <use style="stroke:#000000;stroke-width:0.8;" x="107.45482" xlink:href="#ma8761ec0c7" y="252"/>
      </g>
     </g>
     <g id="text_2">
      <!-- 25 -->
      <defs>
       <path d="M 19.1875 8.296875 
L 53.609375 8.296875 
L 53.609375 0 
L 7.328125 0 
L 7.328125 8.296875 
Q 12.9375 14.109375 22.625 23.890625 
Q 32.328125 33.6875 34.8125 36.53125 
Q 39.546875 41.84375 41.421875 45.53125 
Q 43.3125 49.21875 43.3125 52.78125 
Q 43.3125 58.59375 39.234375 62.25 
Q 35.15625 65.921875 28.609375 65.921875 
Q 23.96875 65.921875 18.8125 64.3125 
Q 13.671875 62.703125 7.8125 59.421875 
L 7.8125 69.390625 
Q 13.765625 71.78125 18.9375 73 
Q 24.125 74.21875 28.421875 74.21875 
Q 39.75 74.21875 46.484375 68.546875 
Q 53.21875 62.890625 53.21875 53.421875 
Q 53.21875 48.921875 51.53125 44.890625 
Q 49.859375 40.875 45.40625 35.40625 
Q 44.1875 33.984375 37.640625 27.21875 
Q 31.109375 20.453125 19.1875 8.296875 
z
" id="DejaVuSans-50"/>
       <path d="M 10.796875 72.90625 
L 49.515625 72.90625 
L 49.515625 64.59375 
L 19.828125 64.59375 
L 19.828125 46.734375 
Q 21.96875 47.46875 24.109375 47.828125 
Q 26.265625 48.1875 28.421875 48.1875 
Q 40.625 48.1875 47.75 41.5 
Q 54.890625 34.8125 54.890625 23.390625 
Q 54.890625 11.625 47.5625 5.09375 
Q 40.234375 -1.421875 26.90625 -1.421875 
Q 22.3125 -1.421875 17.546875 -0.640625 
Q 12.796875 0.140625 7.71875 1.703125 
L 7.71875 11.625 
Q 12.109375 9.234375 16.796875 8.0625 
Q 21.484375 6.890625 26.703125 6.890625 
Q 35.15625 6.890625 40.078125 11.328125 
Q 45.015625 15.765625 45.015625 23.390625 
Q 45.015625 31 40.078125 35.4375 
Q 35.15625 39.890625 26.703125 39.890625 
Q 22.75 39.890625 18.8125 39.015625 
Q 14.890625 38.140625 10.796875 36.28125 
z
" id="DejaVuSans-53"/>
      </defs>
      <g transform="translate(101.09232 266.598437)scale(0.1 -0.1)">
       <use xlink:href="#DejaVuSans-50"/>
       <use x="63.623047" xlink:href="#DejaVuSans-53"/>
      </g>
     </g>
    </g>
    <g id="xtick_3">
     <g id="line2d_3">
      <g>
       <use style="stroke:#000000;stroke-width:0.8;" x="145.691457" xlink:href="#ma8761ec0c7" y="252"/>
      </g>
     </g>
     <g id="text_3">
      <!-- 50 -->
      <g transform="translate(139.328957 266.598437)scale(0.1 -0.1)">
       <use xlink:href="#DejaVuSans-53"/>
       <use x="63.623047" xlink:href="#DejaVuSans-48"/>
      </g>
     </g>
    </g>
    <g id="xtick_4">
     <g id="line2d_4">
      <g>
       <use style="stroke:#000000;stroke-width:0.8;" x="183.928095" xlink:href="#ma8761ec0c7" y="252"/>
      </g>
     </g>
     <g id="text_4">
      <!-- 75 -->
      <defs>
       <path d="M 8.203125 72.90625 
L 55.078125 72.90625 
L 55.078125 68.703125 
L 28.609375 0 
L 18.3125 0 
L 43.21875 64.59375 
L 8.203125 64.59375 
z
" id="DejaVuSans-55"/>
      </defs>
      <g transform="translate(177.565595 266.598437)scale(0.1 -0.1)">
       <use xlink:href="#DejaVuSans-55"/>
       <use x="63.623047" xlink:href="#DejaVuSans-53"/>
      </g>
     </g>
    </g>
    <g id="xtick_5">
     <g id="line2d_5">
      <g>
       <use style="stroke:#000000;stroke-width:0.8;" x="222.164733" xlink:href="#ma8761ec0c7" y="252"/>
      </g>
     </g>
     <g id="text_5">
      <!-- 100 -->
      <defs>
       <path d="M 12.40625 8.296875 
L 28.515625 8.296875 
L 28.515625 63.921875 
L 10.984375 60.40625 
L 10.984375 69.390625 
L 28.421875 72.90625 
L 38.28125 72.90625 
L 38.28125 8.296875 
L 54.390625 8.296875 
L 54.390625 0 
L 12.40625 0 
z
" id="DejaVuSans-49"/>
      </defs>
      <g transform="translate(212.620983 266.598437)scale(0.1 -0.1)">
       <use xlink:href="#DejaVuSans-49"/>
       <use x="63.623047" xlink:href="#DejaVuSans-48"/>
       <use x="127.246094" xlink:href="#DejaVuSans-48"/>
      </g>
     </g>
    </g>
    <g id="xtick_6">
     <g id="line2d_6">
      <g>
       <use style="stroke:#000000;stroke-width:0.8;" x="260.40137" xlink:href="#ma8761ec0c7" y="252"/>
      </g>
     </g>
     <g id="text_6">
      <!-- 125 -->
      <g transform="translate(250.85762 266.598437)scale(0.1 -0.1)">
       <use xlink:href="#DejaVuSans-49"/>
       <use x="63.623047" xlink:href="#DejaVuSans-50"/>
       <use x="127.246094" xlink:href="#DejaVuSans-53"/>
      </g>
     </g>
    </g>
    <g id="xtick_7">
     <g id="line2d_7">
      <g>
       <use style="stroke:#000000;stroke-width:0.8;" x="298.638008" xlink:href="#ma8761ec0c7" y="252"/>
      </g>
     </g>
     <g id="text_7">
      <!-- 150 -->
      <g transform="translate(289.094258 266.598437)scale(0.1 -0.1)">
       <use xlink:href="#DejaVuSans-49"/>
       <use x="63.623047" xlink:href="#DejaVuSans-53"/>
       <use x="127.246094" xlink:href="#DejaVuSans-48"/>
      </g>
     </g>
    </g>
    <g id="xtick_8">
     <g id="line2d_8">
      <g>
       <use style="stroke:#000000;stroke-width:0.8;" x="336.874646" xlink:href="#ma8761ec0c7" y="252"/>
      </g>
     </g>
     <g id="text_8">
      <!-- 175 -->
      <g transform="translate(327.330896 266.598437)scale(0.1 -0.1)">
       <use xlink:href="#DejaVuSans-49"/>
       <use x="63.623047" xlink:href="#DejaVuSans-55"/>
       <use x="127.246094" xlink:href="#DejaVuSans-53"/>
      </g>
     </g>
    </g>
    <g id="xtick_9">
     <g id="line2d_9">
      <g>
       <use style="stroke:#000000;stroke-width:0.8;" x="375.111284" xlink:href="#ma8761ec0c7" y="252"/>
      </g>
     </g>
     <g id="text_9">
      <!-- 200 -->
      <g transform="translate(365.567534 266.598437)scale(0.1 -0.1)">
       <use xlink:href="#DejaVuSans-50"/>
       <use x="63.623047" xlink:href="#DejaVuSans-48"/>
       <use x="127.246094" xlink:href="#DejaVuSans-48"/>
      </g>
     </g>
    </g>
   </g>
   <g id="matplotlib.axis_2">
    <g id="ytick_1">
     <g id="line2d_10">
      <defs>
       <path d="M 0 0 
L -3.5 0 
" id="m4757db9a80" style="stroke:#000000;stroke-width:0.8;"/>
      </defs>
      <g>
       <use style="stroke:#000000;stroke-width:0.8;" x="54" xlink:href="#m4757db9a80" y="232.160679"/>
      </g>
     </g>
     <g id="text_10">
      <!-- 2.00 -->
      <defs>
       <path d="M 10.6875 12.40625 
L 21 12.40625 
L 21 0 
L 10.6875 0 
z
" id="DejaVuSans-46"/>
      </defs>
      <g transform="translate(24.734375 235.959898)scale(0.1 -0.1)">
       <use xlink:href="#DejaVuSans-50"/>
       <use x="63.623047" xlink:href="#DejaVuSans-46"/>
       <use x="95.410156" xlink:href="#DejaVuSans-48"/>
       <use x="159.033203" xlink:href="#DejaVuSans-48"/>
      </g>
     </g>
    </g>
    <g id="ytick_2">
     <g id="line2d_11">
      <g>
       <use style="stroke:#000000;stroke-width:0.8;" x="54" xlink:href="#m4757db9a80" y="206.036618"/>
      </g>
     </g>
     <g id="text_11">
      <!-- 2.25 -->
      <g transform="translate(24.734375 209.835837)scale(0.1 -0.1)">
       <use xlink:href="#DejaVuSans-50"/>
       <use x="63.623047" xlink:href="#DejaVuSans-46"/>
       <use x="95.410156" xlink:href="#DejaVuSans-50"/>
       <use x="159.033203" xlink:href="#DejaVuSans-53"/>
      </g>
     </g>
    </g>
    <g id="ytick_3">
     <g id="line2d_12">
      <g>
       <use style="stroke:#000000;stroke-width:0.8;" x="54" xlink:href="#m4757db9a80" y="179.912557"/>
      </g>
     </g>
     <g id="text_12">
      <!-- 2.50 -->
      <g transform="translate(24.734375 183.711776)scale(0.1 -0.1)">
       <use xlink:href="#DejaVuSans-50"/>
       <use x="63.623047" xlink:href="#DejaVuSans-46"/>
       <use x="95.410156" xlink:href="#DejaVuSans-53"/>
       <use x="159.033203" xlink:href="#DejaVuSans-48"/>
      </g>
     </g>
    </g>
    <g id="ytick_4">
     <g id="line2d_13">
      <g>
       <use style="stroke:#000000;stroke-width:0.8;" x="54" xlink:href="#m4757db9a80" y="153.788496"/>
      </g>
     </g>
     <g id="text_13">
      <!-- 2.75 -->
      <g transform="translate(24.734375 157.587715)scale(0.1 -0.1)">
       <use xlink:href="#DejaVuSans-50"/>
       <use x="63.623047" xlink:href="#DejaVuSans-46"/>
       <use x="95.410156" xlink:href="#DejaVuSans-55"/>
       <use x="159.033203" xlink:href="#DejaVuSans-53"/>
      </g>
     </g>
    </g>
    <g id="ytick_5">
     <g id="line2d_14">
      <g>
       <use style="stroke:#000000;stroke-width:0.8;" x="54" xlink:href="#m4757db9a80" y="127.664435"/>
      </g>
     </g>
     <g id="text_14">
      <!-- 3.00 -->
      <defs>
       <path d="M 40.578125 39.3125 
Q 47.65625 37.796875 51.625 33 
Q 55.609375 28.21875 55.609375 21.1875 
Q 55.609375 10.40625 48.1875 4.484375 
Q 40.765625 -1.421875 27.09375 -1.421875 
Q 22.515625 -1.421875 17.65625 -0.515625 
Q 12.796875 0.390625 7.625 2.203125 
L 7.625 11.71875 
Q 11.71875 9.328125 16.59375 8.109375 
Q 21.484375 6.890625 26.8125 6.890625 
Q 36.078125 6.890625 40.9375 10.546875 
Q 45.796875 14.203125 45.796875 21.1875 
Q 45.796875 27.640625 41.28125 31.265625 
Q 36.765625 34.90625 28.71875 34.90625 
L 20.21875 34.90625 
L 20.21875 43.015625 
L 29.109375 43.015625 
Q 36.375 43.015625 40.234375 45.921875 
Q 44.09375 48.828125 44.09375 54.296875 
Q 44.09375 59.90625 40.109375 62.90625 
Q 36.140625 65.921875 28.71875 65.921875 
Q 24.65625 65.921875 20.015625 65.03125 
Q 15.375 64.15625 9.8125 62.3125 
L 9.8125 71.09375 
Q 15.4375 72.65625 20.34375 73.4375 
Q 25.25 74.21875 29.59375 74.21875 
Q 40.828125 74.21875 47.359375 69.109375 
Q 53.90625 64.015625 53.90625 55.328125 
Q 53.90625 49.265625 50.4375 45.09375 
Q 46.96875 40.921875 40.578125 39.3125 
z
" id="DejaVuSans-51"/>
      </defs>
      <g transform="translate(24.734375 131.463654)scale(0.1 -0.1)">
       <use xlink:href="#DejaVuSans-51"/>
       <use x="63.623047" xlink:href="#DejaVuSans-46"/>
       <use x="95.410156" xlink:href="#DejaVuSans-48"/>
       <use x="159.033203" xlink:href="#DejaVuSans-48"/>
      </g>
     </g>
    </g>
    <g id="ytick_6">
     <g id="line2d_15">
      <g>
       <use style="stroke:#000000;stroke-width:0.8;" x="54" xlink:href="#m4757db9a80" y="101.540375"/>
      </g>
     </g>
     <g id="text_15">
      <!-- 3.25 -->
      <g transform="translate(24.734375 105.339593)scale(0.1 -0.1)">
       <use xlink:href="#DejaVuSans-51"/>
       <use x="63.623047" xlink:href="#DejaVuSans-46"/>
       <use x="95.410156" xlink:href="#DejaVuSans-50"/>
       <use x="159.033203" xlink:href="#DejaVuSans-53"/>
      </g>
     </g>
    </g>
    <g id="ytick_7">
     <g id="line2d_16">
      <g>
       <use style="stroke:#000000;stroke-width:0.8;" x="54" xlink:href="#m4757db9a80" y="75.416314"/>
      </g>
     </g>
     <g id="text_16">
      <!-- 3.50 -->
      <g transform="translate(24.734375 79.215532)scale(0.1 -0.1)">
       <use xlink:href="#DejaVuSans-51"/>
       <use x="63.623047" xlink:href="#DejaVuSans-46"/>
       <use x="95.410156" xlink:href="#DejaVuSans-53"/>
       <use x="159.033203" xlink:href="#DejaVuSans-48"/>
      </g>
     </g>
    </g>
    <g id="ytick_8">
     <g id="line2d_17">
      <g>
       <use style="stroke:#000000;stroke-width:0.8;" x="54" xlink:href="#m4757db9a80" y="49.292253"/>
      </g>
     </g>
     <g id="text_17">
      <!-- 3.75 -->
      <g transform="translate(24.734375 53.091472)scale(0.1 -0.1)">
       <use xlink:href="#DejaVuSans-51"/>
       <use x="63.623047" xlink:href="#DejaVuSans-46"/>
       <use x="95.410156" xlink:href="#DejaVuSans-55"/>
       <use x="159.033203" xlink:href="#DejaVuSans-53"/>
      </g>
     </g>
    </g>
   </g>
   <g id="line2d_18">
    <path clip-path="url(#pea25dd3c69)" d="M 69.218182 75.085367 
L 70.747647 78.945852 
L 81.453906 103.698665 
L 86.042302 113.597017 
L 90.630699 122.619384 
L 93.68963 128.100546 
L 96.748561 133.167648 
L 99.807492 137.864897 
L 102.866423 142.100323 
L 108.984285 149.648913 
L 110.513751 151.387178 
L 112.043216 152.83991 
L 116.631613 157.816731 
L 121.220009 162.51262 
L 122.749475 163.907834 
L 125.808406 167.069815 
L 130.396802 170.670649 
L 131.926268 172.032965 
L 133.455733 173.234861 
L 134.985199 174.666817 
L 139.573595 178.003899 
L 141.103061 178.742906 
L 142.632526 180.093847 
L 144.161992 181.260477 
L 145.691457 181.958194 
L 147.220923 183.202995 
L 148.750388 183.928669 
L 150.279854 184.869978 
L 153.338785 187.095408 
L 154.86825 188.071994 
L 156.397716 188.759589 
L 159.456647 190.542921 
L 160.986112 191.689981 
L 162.515578 192.380192 
L 164.045043 193.244448 
L 165.574509 193.836044 
L 167.103974 194.674996 
L 168.63344 195.849659 
L 170.162905 196.602565 
L 173.221836 198.524679 
L 174.751302 198.961896 
L 176.280767 199.789216 
L 177.810233 200.102005 
L 179.339698 201.405821 
L 180.869164 202.103013 
L 182.39863 202.632437 
L 183.928095 202.676831 
L 185.457561 203.814666 
L 186.987026 204.698016 
L 191.575423 206.726631 
L 193.104888 207.191463 
L 194.634354 208.060841 
L 196.163819 208.73771 
L 199.22275 209.436402 
L 200.752216 210.443106 
L 202.281681 211.09456 
L 203.811147 211.474745 
L 205.340612 212.486302 
L 206.870078 212.568447 
L 212.98794 214.128323 
L 214.517405 214.990618 
L 217.576336 216.04755 
L 219.105802 216.344759 
L 220.635267 217.05721 
L 222.164733 217.539852 
L 223.694198 217.705779 
L 225.223664 218.437171 
L 226.753129 218.647324 
L 228.282595 219.080011 
L 229.81206 219.907666 
L 231.341526 219.71172 
L 234.400457 221.326232 
L 237.459388 221.96903 
L 238.988853 222.184829 
L 242.047784 222.132149 
L 243.57725 223.345636 
L 245.106715 223.353812 
L 246.636181 224.039114 
L 248.165646 224.442604 
L 249.695112 224.180676 
L 251.224577 225.123077 
L 254.283508 225.761752 
L 255.812974 226.221265 
L 257.342439 226.398176 
L 260.40137 225.69934 
L 261.930836 227.232623 
L 263.460302 227.795002 
L 264.989767 227.734103 
L 266.519233 228.114648 
L 268.048698 228.627923 
L 269.578164 228.436067 
L 271.107629 228.787367 
L 272.637095 228.847215 
L 274.16656 229.172591 
L 275.696026 229.789476 
L 277.225491 229.547833 
L 280.284422 230.864604 
L 281.813888 231.225329 
L 283.343353 231.408596 
L 284.872819 231.346668 
L 286.402284 231.830719 
L 287.93175 232.152714 
L 292.520146 232.558002 
L 294.049612 232.878361 
L 295.579077 232.781505 
L 297.108543 232.5702 
L 298.638008 232.982577 
L 300.167474 234.306969 
L 301.696939 234.295834 
L 303.226405 234.157167 
L 304.75587 234.260329 
L 306.285336 234.635565 
L 307.814801 235.317299 
L 309.344267 235.14977 
L 310.873732 235.293187 
L 312.403198 234.856126 
L 313.932663 235.085141 
L 315.462129 235.747836 
L 318.52106 235.775033 
L 321.579991 236.930658 
L 323.109456 236.260522 
L 324.638922 237.335143 
L 326.168387 237.123761 
L 327.697853 237.329207 
L 329.227318 237.913734 
L 330.756784 238.043175 
L 332.286249 237.639186 
L 333.815715 237.659731 
L 335.34518 238.37128 
L 336.874646 238.52216 
L 338.404111 238.301125 
L 341.463042 239.052066 
L 342.992508 238.289453 
L 344.521974 239.103083 
L 346.051439 239.35718 
L 347.580905 239.383583 
L 349.11037 240.220011 
L 350.639836 239.241938 
L 352.169301 239.230188 
L 353.698767 239.519803 
L 355.228232 240.128572 
L 356.757698 241.18798 
L 358.287163 240.806237 
L 359.816629 241.222706 
L 361.346094 240.443034 
L 362.87556 241.39527 
L 365.934491 241.309549 
L 367.463956 242.044314 
L 368.993422 241.622231 
L 370.522887 240.8209 
L 372.052353 242.005697 
L 373.581818 242.116364 
L 373.581818 242.116364 
" style="fill:none;stroke:#0000ff;stroke-linecap:square;stroke-width:1.5;"/>
    <defs>
     <path d="M 0 3 
C 0.795609 3 1.55874 2.683901 2.12132 2.12132 
C 2.683901 1.55874 3 0.795609 3 0 
C 3 -0.795609 2.683901 -1.55874 2.12132 -2.12132 
C 1.55874 -2.683901 0.795609 -3 0 -3 
C -0.795609 -3 -1.55874 -2.683901 -2.12132 -2.12132 
C -2.683901 -1.55874 -3 -0.795609 -3 0 
C -3 0.795609 -2.683901 1.55874 -2.12132 2.12132 
C -1.55874 2.683901 -0.795609 3 0 3 
z
" id="mc34671c50f" style="stroke:#0000ff;"/>
    </defs>
    <g clip-path="url(#pea25dd3c69)">
     <use style="fill:#0000ff;stroke:#0000ff;" x="69.218182" xlink:href="#mc34671c50f" y="75.085367"/>
     <use style="fill:#0000ff;stroke:#0000ff;" x="70.747647" xlink:href="#mc34671c50f" y="78.945852"/>
     <use style="fill:#0000ff;stroke:#0000ff;" x="72.277113" xlink:href="#mc34671c50f" y="82.500219"/>
     <use style="fill:#0000ff;stroke:#0000ff;" x="73.806578" xlink:href="#mc34671c50f" y="86.097781"/>
     <use style="fill:#0000ff;stroke:#0000ff;" x="75.336044" xlink:href="#mc34671c50f" y="89.676216"/>
     <use style="fill:#0000ff;stroke:#0000ff;" x="76.865509" xlink:href="#mc34671c50f" y="93.238061"/>
     <use style="fill:#0000ff;stroke:#0000ff;" x="78.394975" xlink:href="#mc34671c50f" y="96.777437"/>
     <use style="fill:#0000ff;stroke:#0000ff;" x="79.92444" xlink:href="#mc34671c50f" y="100.269961"/>
     <use style="fill:#0000ff;stroke:#0000ff;" x="81.453906" xlink:href="#mc34671c50f" y="103.698665"/>
     <use style="fill:#0000ff;stroke:#0000ff;" x="82.983371" xlink:href="#mc34671c50f" y="107.077309"/>
     <use style="fill:#0000ff;stroke:#0000ff;" x="84.512837" xlink:href="#mc34671c50f" y="110.390665"/>
     <use style="fill:#0000ff;stroke:#0000ff;" x="86.042302" xlink:href="#mc34671c50f" y="113.597017"/>
     <use style="fill:#0000ff;stroke:#0000ff;" x="87.571768" xlink:href="#mc34671c50f" y="116.683503"/>
     <use style="fill:#0000ff;stroke:#0000ff;" x="89.101233" xlink:href="#mc34671c50f" y="119.773374"/>
     <use style="fill:#0000ff;stroke:#0000ff;" x="90.630699" xlink:href="#mc34671c50f" y="122.619384"/>
     <use style="fill:#0000ff;stroke:#0000ff;" x="92.160164" xlink:href="#mc34671c50f" y="125.410839"/>
     <use style="fill:#0000ff;stroke:#0000ff;" x="93.68963" xlink:href="#mc34671c50f" y="128.100546"/>
     <use style="fill:#0000ff;stroke:#0000ff;" x="95.219095" xlink:href="#mc34671c50f" y="130.664454"/>
     <use style="fill:#0000ff;stroke:#0000ff;" x="96.748561" xlink:href="#mc34671c50f" y="133.167648"/>
     <use style="fill:#0000ff;stroke:#0000ff;" x="98.278026" xlink:href="#mc34671c50f" y="135.557763"/>
     <use style="fill:#0000ff;stroke:#0000ff;" x="99.807492" xlink:href="#mc34671c50f" y="137.864897"/>
     <use style="fill:#0000ff;stroke:#0000ff;" x="101.336958" xlink:href="#mc34671c50f" y="140.001141"/>
     <use style="fill:#0000ff;stroke:#0000ff;" x="102.866423" xlink:href="#mc34671c50f" y="142.100323"/>
     <use style="fill:#0000ff;stroke:#0000ff;" x="104.395889" xlink:href="#mc34671c50f" y="144.030185"/>
     <use style="fill:#0000ff;stroke:#0000ff;" x="105.925354" xlink:href="#mc34671c50f" y="145.972874"/>
     <use style="fill:#0000ff;stroke:#0000ff;" x="107.45482" xlink:href="#mc34671c50f" y="147.87838"/>
     <use style="fill:#0000ff;stroke:#0000ff;" x="108.984285" xlink:href="#mc34671c50f" y="149.648913"/>
     <use style="fill:#0000ff;stroke:#0000ff;" x="110.513751" xlink:href="#mc34671c50f" y="151.387178"/>
     <use style="fill:#0000ff;stroke:#0000ff;" x="112.043216" xlink:href="#mc34671c50f" y="152.83991"/>
     <use style="fill:#0000ff;stroke:#0000ff;" x="113.572682" xlink:href="#mc34671c50f" y="154.522115"/>
     <use style="fill:#0000ff;stroke:#0000ff;" x="115.102147" xlink:href="#mc34671c50f" y="156.322029"/>
     <use style="fill:#0000ff;stroke:#0000ff;" x="116.631613" xlink:href="#mc34671c50f" y="157.816731"/>
     <use style="fill:#0000ff;stroke:#0000ff;" x="118.161078" xlink:href="#mc34671c50f" y="159.3847"/>
     <use style="fill:#0000ff;stroke:#0000ff;" x="119.690544" xlink:href="#mc34671c50f" y="161.066338"/>
     <use style="fill:#0000ff;stroke:#0000ff;" x="121.220009" xlink:href="#mc34671c50f" y="162.51262"/>
     <use style="fill:#0000ff;stroke:#0000ff;" x="122.749475" xlink:href="#mc34671c50f" y="163.907834"/>
     <use style="fill:#0000ff;stroke:#0000ff;" x="124.27894" xlink:href="#mc34671c50f" y="165.511016"/>
     <use style="fill:#0000ff;stroke:#0000ff;" x="125.808406" xlink:href="#mc34671c50f" y="167.069815"/>
     <use style="fill:#0000ff;stroke:#0000ff;" x="127.337871" xlink:href="#mc34671c50f" y="168.2291"/>
     <use style="fill:#0000ff;stroke:#0000ff;" x="128.867337" xlink:href="#mc34671c50f" y="169.427629"/>
     <use style="fill:#0000ff;stroke:#0000ff;" x="130.396802" xlink:href="#mc34671c50f" y="170.670649"/>
     <use style="fill:#0000ff;stroke:#0000ff;" x="131.926268" xlink:href="#mc34671c50f" y="172.032965"/>
     <use style="fill:#0000ff;stroke:#0000ff;" x="133.455733" xlink:href="#mc34671c50f" y="173.234861"/>
     <use style="fill:#0000ff;stroke:#0000ff;" x="134.985199" xlink:href="#mc34671c50f" y="174.666817"/>
     <use style="fill:#0000ff;stroke:#0000ff;" x="136.514664" xlink:href="#mc34671c50f" y="175.757298"/>
     <use style="fill:#0000ff;stroke:#0000ff;" x="138.04413" xlink:href="#mc34671c50f" y="176.721498"/>
     <use style="fill:#0000ff;stroke:#0000ff;" x="139.573595" xlink:href="#mc34671c50f" y="178.003899"/>
     <use style="fill:#0000ff;stroke:#0000ff;" x="141.103061" xlink:href="#mc34671c50f" y="178.742906"/>
     <use style="fill:#0000ff;stroke:#0000ff;" x="142.632526" xlink:href="#mc34671c50f" y="180.093847"/>
     <use style="fill:#0000ff;stroke:#0000ff;" x="144.161992" xlink:href="#mc34671c50f" y="181.260477"/>
     <use style="fill:#0000ff;stroke:#0000ff;" x="145.691457" xlink:href="#mc34671c50f" y="181.958194"/>
     <use style="fill:#0000ff;stroke:#0000ff;" x="147.220923" xlink:href="#mc34671c50f" y="183.202995"/>
     <use style="fill:#0000ff;stroke:#0000ff;" x="148.750388" xlink:href="#mc34671c50f" y="183.928669"/>
     <use style="fill:#0000ff;stroke:#0000ff;" x="150.279854" xlink:href="#mc34671c50f" y="184.869978"/>
     <use style="fill:#0000ff;stroke:#0000ff;" x="151.809319" xlink:href="#mc34671c50f" y="186.020471"/>
     <use style="fill:#0000ff;stroke:#0000ff;" x="153.338785" xlink:href="#mc34671c50f" y="187.095408"/>
     <use style="fill:#0000ff;stroke:#0000ff;" x="154.86825" xlink:href="#mc34671c50f" y="188.071994"/>
     <use style="fill:#0000ff;stroke:#0000ff;" x="156.397716" xlink:href="#mc34671c50f" y="188.759589"/>
     <use style="fill:#0000ff;stroke:#0000ff;" x="157.927181" xlink:href="#mc34671c50f" y="189.589082"/>
     <use style="fill:#0000ff;stroke:#0000ff;" x="159.456647" xlink:href="#mc34671c50f" y="190.542921"/>
     <use style="fill:#0000ff;stroke:#0000ff;" x="160.986112" xlink:href="#mc34671c50f" y="191.689981"/>
     <use style="fill:#0000ff;stroke:#0000ff;" x="162.515578" xlink:href="#mc34671c50f" y="192.380192"/>
     <use style="fill:#0000ff;stroke:#0000ff;" x="164.045043" xlink:href="#mc34671c50f" y="193.244448"/>
     <use style="fill:#0000ff;stroke:#0000ff;" x="165.574509" xlink:href="#mc34671c50f" y="193.836044"/>
     <use style="fill:#0000ff;stroke:#0000ff;" x="167.103974" xlink:href="#mc34671c50f" y="194.674996"/>
     <use style="fill:#0000ff;stroke:#0000ff;" x="168.63344" xlink:href="#mc34671c50f" y="195.849659"/>
     <use style="fill:#0000ff;stroke:#0000ff;" x="170.162905" xlink:href="#mc34671c50f" y="196.602565"/>
     <use style="fill:#0000ff;stroke:#0000ff;" x="171.692371" xlink:href="#mc34671c50f" y="197.570613"/>
     <use style="fill:#0000ff;stroke:#0000ff;" x="173.221836" xlink:href="#mc34671c50f" y="198.524679"/>
     <use style="fill:#0000ff;stroke:#0000ff;" x="174.751302" xlink:href="#mc34671c50f" y="198.961896"/>
     <use style="fill:#0000ff;stroke:#0000ff;" x="176.280767" xlink:href="#mc34671c50f" y="199.789216"/>
     <use style="fill:#0000ff;stroke:#0000ff;" x="177.810233" xlink:href="#mc34671c50f" y="200.102005"/>
     <use style="fill:#0000ff;stroke:#0000ff;" x="179.339698" xlink:href="#mc34671c50f" y="201.405821"/>
     <use style="fill:#0000ff;stroke:#0000ff;" x="180.869164" xlink:href="#mc34671c50f" y="202.103013"/>
     <use style="fill:#0000ff;stroke:#0000ff;" x="182.39863" xlink:href="#mc34671c50f" y="202.632437"/>
     <use style="fill:#0000ff;stroke:#0000ff;" x="183.928095" xlink:href="#mc34671c50f" y="202.676831"/>
     <use style="fill:#0000ff;stroke:#0000ff;" x="185.457561" xlink:href="#mc34671c50f" y="203.814666"/>
     <use style="fill:#0000ff;stroke:#0000ff;" x="186.987026" xlink:href="#mc34671c50f" y="204.698016"/>
     <use style="fill:#0000ff;stroke:#0000ff;" x="188.516492" xlink:href="#mc34671c50f" y="205.37482"/>
     <use style="fill:#0000ff;stroke:#0000ff;" x="190.045957" xlink:href="#mc34671c50f" y="206.164678"/>
     <use style="fill:#0000ff;stroke:#0000ff;" x="191.575423" xlink:href="#mc34671c50f" y="206.726631"/>
     <use style="fill:#0000ff;stroke:#0000ff;" x="193.104888" xlink:href="#mc34671c50f" y="207.191463"/>
     <use style="fill:#0000ff;stroke:#0000ff;" x="194.634354" xlink:href="#mc34671c50f" y="208.060841"/>
     <use style="fill:#0000ff;stroke:#0000ff;" x="196.163819" xlink:href="#mc34671c50f" y="208.73771"/>
     <use style="fill:#0000ff;stroke:#0000ff;" x="197.693285" xlink:href="#mc34671c50f" y="209.127935"/>
     <use style="fill:#0000ff;stroke:#0000ff;" x="199.22275" xlink:href="#mc34671c50f" y="209.436402"/>
     <use style="fill:#0000ff;stroke:#0000ff;" x="200.752216" xlink:href="#mc34671c50f" y="210.443106"/>
     <use style="fill:#0000ff;stroke:#0000ff;" x="202.281681" xlink:href="#mc34671c50f" y="211.09456"/>
     <use style="fill:#0000ff;stroke:#0000ff;" x="203.811147" xlink:href="#mc34671c50f" y="211.474745"/>
     <use style="fill:#0000ff;stroke:#0000ff;" x="205.340612" xlink:href="#mc34671c50f" y="212.486302"/>
     <use style="fill:#0000ff;stroke:#0000ff;" x="206.870078" xlink:href="#mc34671c50f" y="212.568447"/>
     <use style="fill:#0000ff;stroke:#0000ff;" x="208.399543" xlink:href="#mc34671c50f" y="212.966658"/>
     <use style="fill:#0000ff;stroke:#0000ff;" x="209.929009" xlink:href="#mc34671c50f" y="213.362117"/>
     <use style="fill:#0000ff;stroke:#0000ff;" x="211.458474" xlink:href="#mc34671c50f" y="213.845319"/>
     <use style="fill:#0000ff;stroke:#0000ff;" x="212.98794" xlink:href="#mc34671c50f" y="214.128323"/>
     <use style="fill:#0000ff;stroke:#0000ff;" x="214.517405" xlink:href="#mc34671c50f" y="214.990618"/>
     <use style="fill:#0000ff;stroke:#0000ff;" x="216.046871" xlink:href="#mc34671c50f" y="215.484837"/>
     <use style="fill:#0000ff;stroke:#0000ff;" x="217.576336" xlink:href="#mc34671c50f" y="216.04755"/>
     <use style="fill:#0000ff;stroke:#0000ff;" x="219.105802" xlink:href="#mc34671c50f" y="216.344759"/>
     <use style="fill:#0000ff;stroke:#0000ff;" x="220.635267" xlink:href="#mc34671c50f" y="217.05721"/>
     <use style="fill:#0000ff;stroke:#0000ff;" x="222.164733" xlink:href="#mc34671c50f" y="217.539852"/>
     <use style="fill:#0000ff;stroke:#0000ff;" x="223.694198" xlink:href="#mc34671c50f" y="217.705779"/>
     <use style="fill:#0000ff;stroke:#0000ff;" x="225.223664" xlink:href="#mc34671c50f" y="218.437171"/>
     <use style="fill:#0000ff;stroke:#0000ff;" x="226.753129" xlink:href="#mc34671c50f" y="218.647324"/>
     <use style="fill:#0000ff;stroke:#0000ff;" x="228.282595" xlink:href="#mc34671c50f" y="219.080011"/>
     <use style="fill:#0000ff;stroke:#0000ff;" x="229.81206" xlink:href="#mc34671c50f" y="219.907666"/>
     <use style="fill:#0000ff;stroke:#0000ff;" x="231.341526" xlink:href="#mc34671c50f" y="219.71172"/>
     <use style="fill:#0000ff;stroke:#0000ff;" x="232.870991" xlink:href="#mc34671c50f" y="220.567522"/>
     <use style="fill:#0000ff;stroke:#0000ff;" x="234.400457" xlink:href="#mc34671c50f" y="221.326232"/>
     <use style="fill:#0000ff;stroke:#0000ff;" x="235.929922" xlink:href="#mc34671c50f" y="221.682975"/>
     <use style="fill:#0000ff;stroke:#0000ff;" x="237.459388" xlink:href="#mc34671c50f" y="221.96903"/>
     <use style="fill:#0000ff;stroke:#0000ff;" x="238.988853" xlink:href="#mc34671c50f" y="222.184829"/>
     <use style="fill:#0000ff;stroke:#0000ff;" x="240.518319" xlink:href="#mc34671c50f" y="222.138925"/>
     <use style="fill:#0000ff;stroke:#0000ff;" x="242.047784" xlink:href="#mc34671c50f" y="222.132149"/>
     <use style="fill:#0000ff;stroke:#0000ff;" x="243.57725" xlink:href="#mc34671c50f" y="223.345636"/>
     <use style="fill:#0000ff;stroke:#0000ff;" x="245.106715" xlink:href="#mc34671c50f" y="223.353812"/>
     <use style="fill:#0000ff;stroke:#0000ff;" x="246.636181" xlink:href="#mc34671c50f" y="224.039114"/>
     <use style="fill:#0000ff;stroke:#0000ff;" x="248.165646" xlink:href="#mc34671c50f" y="224.442604"/>
     <use style="fill:#0000ff;stroke:#0000ff;" x="249.695112" xlink:href="#mc34671c50f" y="224.180676"/>
     <use style="fill:#0000ff;stroke:#0000ff;" x="251.224577" xlink:href="#mc34671c50f" y="225.123077"/>
     <use style="fill:#0000ff;stroke:#0000ff;" x="252.754043" xlink:href="#mc34671c50f" y="225.437392"/>
     <use style="fill:#0000ff;stroke:#0000ff;" x="254.283508" xlink:href="#mc34671c50f" y="225.761752"/>
     <use style="fill:#0000ff;stroke:#0000ff;" x="255.812974" xlink:href="#mc34671c50f" y="226.221265"/>
     <use style="fill:#0000ff;stroke:#0000ff;" x="257.342439" xlink:href="#mc34671c50f" y="226.398176"/>
     <use style="fill:#0000ff;stroke:#0000ff;" x="258.871905" xlink:href="#mc34671c50f" y="226.006206"/>
     <use style="fill:#0000ff;stroke:#0000ff;" x="260.40137" xlink:href="#mc34671c50f" y="225.69934"/>
     <use style="fill:#0000ff;stroke:#0000ff;" x="261.930836" xlink:href="#mc34671c50f" y="227.232623"/>
     <use style="fill:#0000ff;stroke:#0000ff;" x="263.460302" xlink:href="#mc34671c50f" y="227.795002"/>
     <use style="fill:#0000ff;stroke:#0000ff;" x="264.989767" xlink:href="#mc34671c50f" y="227.734103"/>
     <use style="fill:#0000ff;stroke:#0000ff;" x="266.519233" xlink:href="#mc34671c50f" y="228.114648"/>
     <use style="fill:#0000ff;stroke:#0000ff;" x="268.048698" xlink:href="#mc34671c50f" y="228.627923"/>
     <use style="fill:#0000ff;stroke:#0000ff;" x="269.578164" xlink:href="#mc34671c50f" y="228.436067"/>
     <use style="fill:#0000ff;stroke:#0000ff;" x="271.107629" xlink:href="#mc34671c50f" y="228.787367"/>
     <use style="fill:#0000ff;stroke:#0000ff;" x="272.637095" xlink:href="#mc34671c50f" y="228.847215"/>
     <use style="fill:#0000ff;stroke:#0000ff;" x="274.16656" xlink:href="#mc34671c50f" y="229.172591"/>
     <use style="fill:#0000ff;stroke:#0000ff;" x="275.696026" xlink:href="#mc34671c50f" y="229.789476"/>
     <use style="fill:#0000ff;stroke:#0000ff;" x="277.225491" xlink:href="#mc34671c50f" y="229.547833"/>
     <use style="fill:#0000ff;stroke:#0000ff;" x="278.754957" xlink:href="#mc34671c50f" y="230.153977"/>
     <use style="fill:#0000ff;stroke:#0000ff;" x="280.284422" xlink:href="#mc34671c50f" y="230.864604"/>
     <use style="fill:#0000ff;stroke:#0000ff;" x="281.813888" xlink:href="#mc34671c50f" y="231.225329"/>
     <use style="fill:#0000ff;stroke:#0000ff;" x="283.343353" xlink:href="#mc34671c50f" y="231.408596"/>
     <use style="fill:#0000ff;stroke:#0000ff;" x="284.872819" xlink:href="#mc34671c50f" y="231.346668"/>
     <use style="fill:#0000ff;stroke:#0000ff;" x="286.402284" xlink:href="#mc34671c50f" y="231.830719"/>
     <use style="fill:#0000ff;stroke:#0000ff;" x="287.93175" xlink:href="#mc34671c50f" y="232.152714"/>
     <use style="fill:#0000ff;stroke:#0000ff;" x="289.461215" xlink:href="#mc34671c50f" y="232.269482"/>
     <use style="fill:#0000ff;stroke:#0000ff;" x="290.990681" xlink:href="#mc34671c50f" y="232.483002"/>
     <use style="fill:#0000ff;stroke:#0000ff;" x="292.520146" xlink:href="#mc34671c50f" y="232.558002"/>
     <use style="fill:#0000ff;stroke:#0000ff;" x="294.049612" xlink:href="#mc34671c50f" y="232.878361"/>
     <use style="fill:#0000ff;stroke:#0000ff;" x="295.579077" xlink:href="#mc34671c50f" y="232.781505"/>
     <use style="fill:#0000ff;stroke:#0000ff;" x="297.108543" xlink:href="#mc34671c50f" y="232.5702"/>
     <use style="fill:#0000ff;stroke:#0000ff;" x="298.638008" xlink:href="#mc34671c50f" y="232.982577"/>
     <use style="fill:#0000ff;stroke:#0000ff;" x="300.167474" xlink:href="#mc34671c50f" y="234.306969"/>
     <use style="fill:#0000ff;stroke:#0000ff;" x="301.696939" xlink:href="#mc34671c50f" y="234.295834"/>
     <use style="fill:#0000ff;stroke:#0000ff;" x="303.226405" xlink:href="#mc34671c50f" y="234.157167"/>
     <use style="fill:#0000ff;stroke:#0000ff;" x="304.75587" xlink:href="#mc34671c50f" y="234.260329"/>
     <use style="fill:#0000ff;stroke:#0000ff;" x="306.285336" xlink:href="#mc34671c50f" y="234.635565"/>
     <use style="fill:#0000ff;stroke:#0000ff;" x="307.814801" xlink:href="#mc34671c50f" y="235.317299"/>
     <use style="fill:#0000ff;stroke:#0000ff;" x="309.344267" xlink:href="#mc34671c50f" y="235.14977"/>
     <use style="fill:#0000ff;stroke:#0000ff;" x="310.873732" xlink:href="#mc34671c50f" y="235.293187"/>
     <use style="fill:#0000ff;stroke:#0000ff;" x="312.403198" xlink:href="#mc34671c50f" y="234.856126"/>
     <use style="fill:#0000ff;stroke:#0000ff;" x="313.932663" xlink:href="#mc34671c50f" y="235.085141"/>
     <use style="fill:#0000ff;stroke:#0000ff;" x="315.462129" xlink:href="#mc34671c50f" y="235.747836"/>
     <use style="fill:#0000ff;stroke:#0000ff;" x="316.991594" xlink:href="#mc34671c50f" y="235.762908"/>
     <use style="fill:#0000ff;stroke:#0000ff;" x="318.52106" xlink:href="#mc34671c50f" y="235.775033"/>
     <use style="fill:#0000ff;stroke:#0000ff;" x="320.050525" xlink:href="#mc34671c50f" y="236.384042"/>
     <use style="fill:#0000ff;stroke:#0000ff;" x="321.579991" xlink:href="#mc34671c50f" y="236.930658"/>
     <use style="fill:#0000ff;stroke:#0000ff;" x="323.109456" xlink:href="#mc34671c50f" y="236.260522"/>
     <use style="fill:#0000ff;stroke:#0000ff;" x="324.638922" xlink:href="#mc34671c50f" y="237.335143"/>
     <use style="fill:#0000ff;stroke:#0000ff;" x="326.168387" xlink:href="#mc34671c50f" y="237.123761"/>
     <use style="fill:#0000ff;stroke:#0000ff;" x="327.697853" xlink:href="#mc34671c50f" y="237.329207"/>
     <use style="fill:#0000ff;stroke:#0000ff;" x="329.227318" xlink:href="#mc34671c50f" y="237.913734"/>
     <use style="fill:#0000ff;stroke:#0000ff;" x="330.756784" xlink:href="#mc34671c50f" y="238.043175"/>
     <use style="fill:#0000ff;stroke:#0000ff;" x="332.286249" xlink:href="#mc34671c50f" y="237.639186"/>
     <use style="fill:#0000ff;stroke:#0000ff;" x="333.815715" xlink:href="#mc34671c50f" y="237.659731"/>
     <use style="fill:#0000ff;stroke:#0000ff;" x="335.34518" xlink:href="#mc34671c50f" y="238.37128"/>
     <use style="fill:#0000ff;stroke:#0000ff;" x="336.874646" xlink:href="#mc34671c50f" y="238.52216"/>
     <use style="fill:#0000ff;stroke:#0000ff;" x="338.404111" xlink:href="#mc34671c50f" y="238.301125"/>
     <use style="fill:#0000ff;stroke:#0000ff;" x="339.933577" xlink:href="#mc34671c50f" y="238.669074"/>
     <use style="fill:#0000ff;stroke:#0000ff;" x="341.463042" xlink:href="#mc34671c50f" y="239.052066"/>
     <use style="fill:#0000ff;stroke:#0000ff;" x="342.992508" xlink:href="#mc34671c50f" y="238.289453"/>
     <use style="fill:#0000ff;stroke:#0000ff;" x="344.521974" xlink:href="#mc34671c50f" y="239.103083"/>
     <use style="fill:#0000ff;stroke:#0000ff;" x="346.051439" xlink:href="#mc34671c50f" y="239.35718"/>
     <use style="fill:#0000ff;stroke:#0000ff;" x="347.580905" xlink:href="#mc34671c50f" y="239.383583"/>
     <use style="fill:#0000ff;stroke:#0000ff;" x="349.11037" xlink:href="#mc34671c50f" y="240.220011"/>
     <use style="fill:#0000ff;stroke:#0000ff;" x="350.639836" xlink:href="#mc34671c50f" y="239.241938"/>
     <use style="fill:#0000ff;stroke:#0000ff;" x="352.169301" xlink:href="#mc34671c50f" y="239.230188"/>
     <use style="fill:#0000ff;stroke:#0000ff;" x="353.698767" xlink:href="#mc34671c50f" y="239.519803"/>
     <use style="fill:#0000ff;stroke:#0000ff;" x="355.228232" xlink:href="#mc34671c50f" y="240.128572"/>
     <use style="fill:#0000ff;stroke:#0000ff;" x="356.757698" xlink:href="#mc34671c50f" y="241.18798"/>
     <use style="fill:#0000ff;stroke:#0000ff;" x="358.287163" xlink:href="#mc34671c50f" y="240.806237"/>
     <use style="fill:#0000ff;stroke:#0000ff;" x="359.816629" xlink:href="#mc34671c50f" y="241.222706"/>
     <use style="fill:#0000ff;stroke:#0000ff;" x="361.346094" xlink:href="#mc34671c50f" y="240.443034"/>
     <use style="fill:#0000ff;stroke:#0000ff;" x="362.87556" xlink:href="#mc34671c50f" y="241.39527"/>
     <use style="fill:#0000ff;stroke:#0000ff;" x="364.405025" xlink:href="#mc34671c50f" y="241.3622"/>
     <use style="fill:#0000ff;stroke:#0000ff;" x="365.934491" xlink:href="#mc34671c50f" y="241.309549"/>
     <use style="fill:#0000ff;stroke:#0000ff;" x="367.463956" xlink:href="#mc34671c50f" y="242.044314"/>
     <use style="fill:#0000ff;stroke:#0000ff;" x="368.993422" xlink:href="#mc34671c50f" y="241.622231"/>
     <use style="fill:#0000ff;stroke:#0000ff;" x="370.522887" xlink:href="#mc34671c50f" y="240.8209"/>
     <use style="fill:#0000ff;stroke:#0000ff;" x="372.052353" xlink:href="#mc34671c50f" y="242.005697"/>
     <use style="fill:#0000ff;stroke:#0000ff;" x="373.581818" xlink:href="#mc34671c50f" y="242.116364"/>
    </g>
   </g>
   <g id="line2d_19">
    <path clip-path="url(#pea25dd3c69)" d="M 69.218182 44.443636 
L 72.277113 52.834274 
L 76.865509 63.91704 
L 78.394975 68.678735 
L 79.92444 71.985087 
L 81.453906 76.246208 
L 82.983371 78.969576 
L 84.512837 82.12693 
L 86.042302 86.814196 
L 87.571768 89.085597 
L 89.101233 94.024972 
L 90.630699 95.751177 
L 92.160164 99.381031 
L 93.68963 102.028899 
L 95.219095 105.006513 
L 96.748561 106.899631 
L 98.278026 109.625352 
L 99.807492 111.691695 
L 101.336958 114.751816 
L 102.866423 117.228651 
L 104.395889 119.218393 
L 105.925354 120.528349 
L 107.45482 123.161081 
L 108.984285 124.623103 
L 112.043216 129.092384 
L 113.572682 129.491002 
L 115.102147 132.292564 
L 116.631613 134.463687 
L 118.161078 135.187492 
L 119.690544 137.061523 
L 121.220009 139.969567 
L 122.749475 139.973218 
L 124.27894 142.46494 
L 125.808406 144.074278 
L 127.337871 145.175819 
L 128.867337 147.149679 
L 130.396802 148.787307 
L 131.926268 148.56491 
L 133.455733 150.508935 
L 134.985199 151.577689 
L 136.514664 153.385908 
L 138.04413 154.090809 
L 141.103061 156.454688 
L 142.632526 157.265503 
L 145.691457 159.654054 
L 147.220923 161.246498 
L 148.750388 162.435339 
L 150.279854 162.884284 
L 151.809319 164.12289 
L 153.338785 164.983062 
L 154.86825 166.752369 
L 156.397716 166.77968 
L 157.927181 168.517988 
L 159.456647 169.190144 
L 160.986112 170.105662 
L 162.515578 170.522662 
L 164.045043 172.297601 
L 165.574509 171.882614 
L 167.103974 174.286333 
L 168.63344 175.506416 
L 170.162905 174.942148 
L 171.692371 176.703961 
L 173.221836 177.564865 
L 174.751302 178.176358 
L 176.280767 179.186784 
L 177.810233 179.192029 
L 179.339698 180.424534 
L 180.869164 181.889025 
L 182.39863 182.266841 
L 183.928095 182.426223 
L 185.457561 183.717212 
L 186.987026 184.117198 
L 188.516492 184.383745 
L 190.045957 184.917422 
L 193.104888 187.480952 
L 194.634354 187.945861 
L 196.163819 187.999796 
L 197.693285 187.812234 
L 199.22275 188.292673 
L 200.752216 190.361156 
L 202.281681 191.07494 
L 203.811147 191.993885 
L 205.340612 191.317028 
L 206.870078 192.925779 
L 208.399543 190.319491 
L 209.929009 192.654207 
L 211.458474 194.263392 
L 212.98794 195.199347 
L 214.517405 195.322408 
L 216.046871 195.875849 
L 217.576336 196.852752 
L 219.105802 196.873859 
L 220.635267 196.412358 
L 222.164733 197.501303 
L 223.694198 198.083789 
L 225.223664 196.923942 
L 226.753129 199.553684 
L 228.282595 200.014363 
L 229.81206 200.087635 
L 231.341526 200.48418 
L 232.870991 201.909385 
L 234.400457 201.563403 
L 235.929922 202.010242 
L 237.459388 201.942014 
L 238.988853 202.985534 
L 240.518319 202.599703 
L 242.047784 203.380293 
L 243.57725 203.667356 
L 245.106715 204.638672 
L 246.636181 204.561883 
L 248.165646 204.164715 
L 249.695112 205.591496 
L 251.224577 206.319671 
L 252.754043 206.416946 
L 254.283508 207.622791 
L 255.812974 206.790702 
L 257.342439 207.509482 
L 260.40137 207.926703 
L 261.930836 208.703085 
L 263.460302 208.041547 
L 264.989767 209.048424 
L 266.519233 209.768586 
L 268.048698 209.004119 
L 269.578164 208.867153 
L 271.107629 209.99827 
L 272.637095 209.824838 
L 274.16656 211.098367 
L 275.696026 211.074807 
L 277.225491 210.177241 
L 278.754957 211.041208 
L 280.284422 210.65126 
L 281.813888 212.006731 
L 283.343353 211.663154 
L 284.872819 211.056759 
L 286.402284 213.006618 
L 287.93175 211.068726 
L 289.461215 211.340249 
L 290.990681 212.210124 
L 292.520146 213.995129 
L 294.049612 213.417706 
L 295.579077 213.059902 
L 297.108543 213.729504 
L 298.638008 213.893284 
L 300.167474 214.279071 
L 301.696939 212.831391 
L 303.226405 214.730042 
L 304.75587 214.89711 
L 306.285336 213.834714 
L 307.814801 215.525721 
L 309.344267 215.543245 
L 310.873732 216.098987 
L 312.403198 216.469418 
L 313.932663 215.541169 
L 315.462129 216.603134 
L 316.991594 216.879463 
L 318.52106 215.976945 
L 320.050525 217.207736 
L 321.579991 216.351234 
L 323.109456 217.308991 
L 324.638922 216.435361 
L 326.168387 217.023523 
L 327.697853 217.017386 
L 329.227318 217.124261 
L 330.756784 218.118351 
L 332.286249 217.411793 
L 333.815715 217.822131 
L 335.34518 218.379664 
L 336.874646 218.459255 
L 338.404111 217.559139 
L 339.933577 218.331749 
L 341.463042 218.539023 
L 342.992508 217.948034 
L 344.521974 219.506545 
L 346.051439 218.03754 
L 347.580905 219.74039 
L 349.11037 218.820729 
L 350.639836 219.532001 
L 352.169301 218.145816 
L 353.698767 219.169746 
L 355.228232 218.884388 
L 356.757698 220.350082 
L 358.287163 219.928004 
L 359.816629 220.456484 
L 361.346094 220.793706 
L 362.87556 220.075876 
L 365.934491 219.172936 
L 367.463956 220.556089 
L 368.993422 220.989942 
L 370.522887 220.71889 
L 372.052353 221.78297 
L 373.581818 220.616357 
L 373.581818 220.616357 
" style="fill:none;stroke:#ff0000;stroke-linecap:square;stroke-width:1.5;"/>
    <defs>
     <path d="M 0 1.5 
C 0.397805 1.5 0.77937 1.341951 1.06066 1.06066 
C 1.341951 0.77937 1.5 0.397805 1.5 0 
C 1.5 -0.397805 1.341951 -0.77937 1.06066 -1.06066 
C 0.77937 -1.341951 0.397805 -1.5 0 -1.5 
C -0.397805 -1.5 -0.77937 -1.341951 -1.06066 -1.06066 
C -1.341951 -0.77937 -1.5 -0.397805 -1.5 0 
C -1.5 0.397805 -1.341951 0.77937 -1.06066 1.06066 
C -0.77937 1.341951 -0.397805 1.5 0 1.5 
z
" id="m55a0869466" style="stroke:#ff0000;"/>
    </defs>
    <g clip-path="url(#pea25dd3c69)">
     <use style="fill:#ff0000;stroke:#ff0000;" x="69.218182" xlink:href="#m55a0869466" y="44.443636"/>
     <use style="fill:#ff0000;stroke:#ff0000;" x="70.747647" xlink:href="#m55a0869466" y="48.735522"/>
     <use style="fill:#ff0000;stroke:#ff0000;" x="72.277113" xlink:href="#m55a0869466" y="52.834274"/>
     <use style="fill:#ff0000;stroke:#ff0000;" x="73.806578" xlink:href="#m55a0869466" y="56.619556"/>
     <use style="fill:#ff0000;stroke:#ff0000;" x="75.336044" xlink:href="#m55a0869466" y="60.384163"/>
     <use style="fill:#ff0000;stroke:#ff0000;" x="76.865509" xlink:href="#m55a0869466" y="63.91704"/>
     <use style="fill:#ff0000;stroke:#ff0000;" x="78.394975" xlink:href="#m55a0869466" y="68.678735"/>
     <use style="fill:#ff0000;stroke:#ff0000;" x="79.92444" xlink:href="#m55a0869466" y="71.985087"/>
     <use style="fill:#ff0000;stroke:#ff0000;" x="81.453906" xlink:href="#m55a0869466" y="76.246208"/>
     <use style="fill:#ff0000;stroke:#ff0000;" x="82.983371" xlink:href="#m55a0869466" y="78.969576"/>
     <use style="fill:#ff0000;stroke:#ff0000;" x="84.512837" xlink:href="#m55a0869466" y="82.12693"/>
     <use style="fill:#ff0000;stroke:#ff0000;" x="86.042302" xlink:href="#m55a0869466" y="86.814196"/>
     <use style="fill:#ff0000;stroke:#ff0000;" x="87.571768" xlink:href="#m55a0869466" y="89.085597"/>
     <use style="fill:#ff0000;stroke:#ff0000;" x="89.101233" xlink:href="#m55a0869466" y="94.024972"/>
     <use style="fill:#ff0000;stroke:#ff0000;" x="90.630699" xlink:href="#m55a0869466" y="95.751177"/>
     <use style="fill:#ff0000;stroke:#ff0000;" x="92.160164" xlink:href="#m55a0869466" y="99.381031"/>
     <use style="fill:#ff0000;stroke:#ff0000;" x="93.68963" xlink:href="#m55a0869466" y="102.028899"/>
     <use style="fill:#ff0000;stroke:#ff0000;" x="95.219095" xlink:href="#m55a0869466" y="105.006513"/>
     <use style="fill:#ff0000;stroke:#ff0000;" x="96.748561" xlink:href="#m55a0869466" y="106.899631"/>
     <use style="fill:#ff0000;stroke:#ff0000;" x="98.278026" xlink:href="#m55a0869466" y="109.625352"/>
     <use style="fill:#ff0000;stroke:#ff0000;" x="99.807492" xlink:href="#m55a0869466" y="111.691695"/>
     <use style="fill:#ff0000;stroke:#ff0000;" x="101.336958" xlink:href="#m55a0869466" y="114.751816"/>
     <use style="fill:#ff0000;stroke:#ff0000;" x="102.866423" xlink:href="#m55a0869466" y="117.228651"/>
     <use style="fill:#ff0000;stroke:#ff0000;" x="104.395889" xlink:href="#m55a0869466" y="119.218393"/>
     <use style="fill:#ff0000;stroke:#ff0000;" x="105.925354" xlink:href="#m55a0869466" y="120.528349"/>
     <use style="fill:#ff0000;stroke:#ff0000;" x="107.45482" xlink:href="#m55a0869466" y="123.161081"/>
     <use style="fill:#ff0000;stroke:#ff0000;" x="108.984285" xlink:href="#m55a0869466" y="124.623103"/>
     <use style="fill:#ff0000;stroke:#ff0000;" x="110.513751" xlink:href="#m55a0869466" y="126.866603"/>
     <use style="fill:#ff0000;stroke:#ff0000;" x="112.043216" xlink:href="#m55a0869466" y="129.092384"/>
     <use style="fill:#ff0000;stroke:#ff0000;" x="113.572682" xlink:href="#m55a0869466" y="129.491002"/>
     <use style="fill:#ff0000;stroke:#ff0000;" x="115.102147" xlink:href="#m55a0869466" y="132.292564"/>
     <use style="fill:#ff0000;stroke:#ff0000;" x="116.631613" xlink:href="#m55a0869466" y="134.463687"/>
     <use style="fill:#ff0000;stroke:#ff0000;" x="118.161078" xlink:href="#m55a0869466" y="135.187492"/>
     <use style="fill:#ff0000;stroke:#ff0000;" x="119.690544" xlink:href="#m55a0869466" y="137.061523"/>
     <use style="fill:#ff0000;stroke:#ff0000;" x="121.220009" xlink:href="#m55a0869466" y="139.969567"/>
     <use style="fill:#ff0000;stroke:#ff0000;" x="122.749475" xlink:href="#m55a0869466" y="139.973218"/>
     <use style="fill:#ff0000;stroke:#ff0000;" x="124.27894" xlink:href="#m55a0869466" y="142.46494"/>
     <use style="fill:#ff0000;stroke:#ff0000;" x="125.808406" xlink:href="#m55a0869466" y="144.074278"/>
     <use style="fill:#ff0000;stroke:#ff0000;" x="127.337871" xlink:href="#m55a0869466" y="145.175819"/>
     <use style="fill:#ff0000;stroke:#ff0000;" x="128.867337" xlink:href="#m55a0869466" y="147.149679"/>
     <use style="fill:#ff0000;stroke:#ff0000;" x="130.396802" xlink:href="#m55a0869466" y="148.787307"/>
     <use style="fill:#ff0000;stroke:#ff0000;" x="131.926268" xlink:href="#m55a0869466" y="148.56491"/>
     <use style="fill:#ff0000;stroke:#ff0000;" x="133.455733" xlink:href="#m55a0869466" y="150.508935"/>
     <use style="fill:#ff0000;stroke:#ff0000;" x="134.985199" xlink:href="#m55a0869466" y="151.577689"/>
     <use style="fill:#ff0000;stroke:#ff0000;" x="136.514664" xlink:href="#m55a0869466" y="153.385908"/>
     <use style="fill:#ff0000;stroke:#ff0000;" x="138.04413" xlink:href="#m55a0869466" y="154.090809"/>
     <use style="fill:#ff0000;stroke:#ff0000;" x="139.573595" xlink:href="#m55a0869466" y="155.281774"/>
     <use style="fill:#ff0000;stroke:#ff0000;" x="141.103061" xlink:href="#m55a0869466" y="156.454688"/>
     <use style="fill:#ff0000;stroke:#ff0000;" x="142.632526" xlink:href="#m55a0869466" y="157.265503"/>
     <use style="fill:#ff0000;stroke:#ff0000;" x="144.161992" xlink:href="#m55a0869466" y="158.447745"/>
     <use style="fill:#ff0000;stroke:#ff0000;" x="145.691457" xlink:href="#m55a0869466" y="159.654054"/>
     <use style="fill:#ff0000;stroke:#ff0000;" x="147.220923" xlink:href="#m55a0869466" y="161.246498"/>
     <use style="fill:#ff0000;stroke:#ff0000;" x="148.750388" xlink:href="#m55a0869466" y="162.435339"/>
     <use style="fill:#ff0000;stroke:#ff0000;" x="150.279854" xlink:href="#m55a0869466" y="162.884284"/>
     <use style="fill:#ff0000;stroke:#ff0000;" x="151.809319" xlink:href="#m55a0869466" y="164.12289"/>
     <use style="fill:#ff0000;stroke:#ff0000;" x="153.338785" xlink:href="#m55a0869466" y="164.983062"/>
     <use style="fill:#ff0000;stroke:#ff0000;" x="154.86825" xlink:href="#m55a0869466" y="166.752369"/>
     <use style="fill:#ff0000;stroke:#ff0000;" x="156.397716" xlink:href="#m55a0869466" y="166.77968"/>
     <use style="fill:#ff0000;stroke:#ff0000;" x="157.927181" xlink:href="#m55a0869466" y="168.517988"/>
     <use style="fill:#ff0000;stroke:#ff0000;" x="159.456647" xlink:href="#m55a0869466" y="169.190144"/>
     <use style="fill:#ff0000;stroke:#ff0000;" x="160.986112" xlink:href="#m55a0869466" y="170.105662"/>
     <use style="fill:#ff0000;stroke:#ff0000;" x="162.515578" xlink:href="#m55a0869466" y="170.522662"/>
     <use style="fill:#ff0000;stroke:#ff0000;" x="164.045043" xlink:href="#m55a0869466" y="172.297601"/>
     <use style="fill:#ff0000;stroke:#ff0000;" x="165.574509" xlink:href="#m55a0869466" y="171.882614"/>
     <use style="fill:#ff0000;stroke:#ff0000;" x="167.103974" xlink:href="#m55a0869466" y="174.286333"/>
     <use style="fill:#ff0000;stroke:#ff0000;" x="168.63344" xlink:href="#m55a0869466" y="175.506416"/>
     <use style="fill:#ff0000;stroke:#ff0000;" x="170.162905" xlink:href="#m55a0869466" y="174.942148"/>
     <use style="fill:#ff0000;stroke:#ff0000;" x="171.692371" xlink:href="#m55a0869466" y="176.703961"/>
     <use style="fill:#ff0000;stroke:#ff0000;" x="173.221836" xlink:href="#m55a0869466" y="177.564865"/>
     <use style="fill:#ff0000;stroke:#ff0000;" x="174.751302" xlink:href="#m55a0869466" y="178.176358"/>
     <use style="fill:#ff0000;stroke:#ff0000;" x="176.280767" xlink:href="#m55a0869466" y="179.186784"/>
     <use style="fill:#ff0000;stroke:#ff0000;" x="177.810233" xlink:href="#m55a0869466" y="179.192029"/>
     <use style="fill:#ff0000;stroke:#ff0000;" x="179.339698" xlink:href="#m55a0869466" y="180.424534"/>
     <use style="fill:#ff0000;stroke:#ff0000;" x="180.869164" xlink:href="#m55a0869466" y="181.889025"/>
     <use style="fill:#ff0000;stroke:#ff0000;" x="182.39863" xlink:href="#m55a0869466" y="182.266841"/>
     <use style="fill:#ff0000;stroke:#ff0000;" x="183.928095" xlink:href="#m55a0869466" y="182.426223"/>
     <use style="fill:#ff0000;stroke:#ff0000;" x="185.457561" xlink:href="#m55a0869466" y="183.717212"/>
     <use style="fill:#ff0000;stroke:#ff0000;" x="186.987026" xlink:href="#m55a0869466" y="184.117198"/>
     <use style="fill:#ff0000;stroke:#ff0000;" x="188.516492" xlink:href="#m55a0869466" y="184.383745"/>
     <use style="fill:#ff0000;stroke:#ff0000;" x="190.045957" xlink:href="#m55a0869466" y="184.917422"/>
     <use style="fill:#ff0000;stroke:#ff0000;" x="191.575423" xlink:href="#m55a0869466" y="186.191682"/>
     <use style="fill:#ff0000;stroke:#ff0000;" x="193.104888" xlink:href="#m55a0869466" y="187.480952"/>
     <use style="fill:#ff0000;stroke:#ff0000;" x="194.634354" xlink:href="#m55a0869466" y="187.945861"/>
     <use style="fill:#ff0000;stroke:#ff0000;" x="196.163819" xlink:href="#m55a0869466" y="187.999796"/>
     <use style="fill:#ff0000;stroke:#ff0000;" x="197.693285" xlink:href="#m55a0869466" y="187.812234"/>
     <use style="fill:#ff0000;stroke:#ff0000;" x="199.22275" xlink:href="#m55a0869466" y="188.292673"/>
     <use style="fill:#ff0000;stroke:#ff0000;" x="200.752216" xlink:href="#m55a0869466" y="190.361156"/>
     <use style="fill:#ff0000;stroke:#ff0000;" x="202.281681" xlink:href="#m55a0869466" y="191.07494"/>
     <use style="fill:#ff0000;stroke:#ff0000;" x="203.811147" xlink:href="#m55a0869466" y="191.993885"/>
     <use style="fill:#ff0000;stroke:#ff0000;" x="205.340612" xlink:href="#m55a0869466" y="191.317028"/>
     <use style="fill:#ff0000;stroke:#ff0000;" x="206.870078" xlink:href="#m55a0869466" y="192.925779"/>
     <use style="fill:#ff0000;stroke:#ff0000;" x="208.399543" xlink:href="#m55a0869466" y="190.319491"/>
     <use style="fill:#ff0000;stroke:#ff0000;" x="209.929009" xlink:href="#m55a0869466" y="192.654207"/>
     <use style="fill:#ff0000;stroke:#ff0000;" x="211.458474" xlink:href="#m55a0869466" y="194.263392"/>
     <use style="fill:#ff0000;stroke:#ff0000;" x="212.98794" xlink:href="#m55a0869466" y="195.199347"/>
     <use style="fill:#ff0000;stroke:#ff0000;" x="214.517405" xlink:href="#m55a0869466" y="195.322408"/>
     <use style="fill:#ff0000;stroke:#ff0000;" x="216.046871" xlink:href="#m55a0869466" y="195.875849"/>
     <use style="fill:#ff0000;stroke:#ff0000;" x="217.576336" xlink:href="#m55a0869466" y="196.852752"/>
     <use style="fill:#ff0000;stroke:#ff0000;" x="219.105802" xlink:href="#m55a0869466" y="196.873859"/>
     <use style="fill:#ff0000;stroke:#ff0000;" x="220.635267" xlink:href="#m55a0869466" y="196.412358"/>
     <use style="fill:#ff0000;stroke:#ff0000;" x="222.164733" xlink:href="#m55a0869466" y="197.501303"/>
     <use style="fill:#ff0000;stroke:#ff0000;" x="223.694198" xlink:href="#m55a0869466" y="198.083789"/>
     <use style="fill:#ff0000;stroke:#ff0000;" x="225.223664" xlink:href="#m55a0869466" y="196.923942"/>
     <use style="fill:#ff0000;stroke:#ff0000;" x="226.753129" xlink:href="#m55a0869466" y="199.553684"/>
     <use style="fill:#ff0000;stroke:#ff0000;" x="228.282595" xlink:href="#m55a0869466" y="200.014363"/>
     <use style="fill:#ff0000;stroke:#ff0000;" x="229.81206" xlink:href="#m55a0869466" y="200.087635"/>
     <use style="fill:#ff0000;stroke:#ff0000;" x="231.341526" xlink:href="#m55a0869466" y="200.48418"/>
     <use style="fill:#ff0000;stroke:#ff0000;" x="232.870991" xlink:href="#m55a0869466" y="201.909385"/>
     <use style="fill:#ff0000;stroke:#ff0000;" x="234.400457" xlink:href="#m55a0869466" y="201.563403"/>
     <use style="fill:#ff0000;stroke:#ff0000;" x="235.929922" xlink:href="#m55a0869466" y="202.010242"/>
     <use style="fill:#ff0000;stroke:#ff0000;" x="237.459388" xlink:href="#m55a0869466" y="201.942014"/>
     <use style="fill:#ff0000;stroke:#ff0000;" x="238.988853" xlink:href="#m55a0869466" y="202.985534"/>
     <use style="fill:#ff0000;stroke:#ff0000;" x="240.518319" xlink:href="#m55a0869466" y="202.599703"/>
     <use style="fill:#ff0000;stroke:#ff0000;" x="242.047784" xlink:href="#m55a0869466" y="203.380293"/>
     <use style="fill:#ff0000;stroke:#ff0000;" x="243.57725" xlink:href="#m55a0869466" y="203.667356"/>
     <use style="fill:#ff0000;stroke:#ff0000;" x="245.106715" xlink:href="#m55a0869466" y="204.638672"/>
     <use style="fill:#ff0000;stroke:#ff0000;" x="246.636181" xlink:href="#m55a0869466" y="204.561883"/>
     <use style="fill:#ff0000;stroke:#ff0000;" x="248.165646" xlink:href="#m55a0869466" y="204.164715"/>
     <use style="fill:#ff0000;stroke:#ff0000;" x="249.695112" xlink:href="#m55a0869466" y="205.591496"/>
     <use style="fill:#ff0000;stroke:#ff0000;" x="251.224577" xlink:href="#m55a0869466" y="206.319671"/>
     <use style="fill:#ff0000;stroke:#ff0000;" x="252.754043" xlink:href="#m55a0869466" y="206.416946"/>
     <use style="fill:#ff0000;stroke:#ff0000;" x="254.283508" xlink:href="#m55a0869466" y="207.622791"/>
     <use style="fill:#ff0000;stroke:#ff0000;" x="255.812974" xlink:href="#m55a0869466" y="206.790702"/>
     <use style="fill:#ff0000;stroke:#ff0000;" x="257.342439" xlink:href="#m55a0869466" y="207.509482"/>
     <use style="fill:#ff0000;stroke:#ff0000;" x="258.871905" xlink:href="#m55a0869466" y="207.771952"/>
     <use style="fill:#ff0000;stroke:#ff0000;" x="260.40137" xlink:href="#m55a0869466" y="207.926703"/>
     <use style="fill:#ff0000;stroke:#ff0000;" x="261.930836" xlink:href="#m55a0869466" y="208.703085"/>
     <use style="fill:#ff0000;stroke:#ff0000;" x="263.460302" xlink:href="#m55a0869466" y="208.041547"/>
     <use style="fill:#ff0000;stroke:#ff0000;" x="264.989767" xlink:href="#m55a0869466" y="209.048424"/>
     <use style="fill:#ff0000;stroke:#ff0000;" x="266.519233" xlink:href="#m55a0869466" y="209.768586"/>
     <use style="fill:#ff0000;stroke:#ff0000;" x="268.048698" xlink:href="#m55a0869466" y="209.004119"/>
     <use style="fill:#ff0000;stroke:#ff0000;" x="269.578164" xlink:href="#m55a0869466" y="208.867153"/>
     <use style="fill:#ff0000;stroke:#ff0000;" x="271.107629" xlink:href="#m55a0869466" y="209.99827"/>
     <use style="fill:#ff0000;stroke:#ff0000;" x="272.637095" xlink:href="#m55a0869466" y="209.824838"/>
     <use style="fill:#ff0000;stroke:#ff0000;" x="274.16656" xlink:href="#m55a0869466" y="211.098367"/>
     <use style="fill:#ff0000;stroke:#ff0000;" x="275.696026" xlink:href="#m55a0869466" y="211.074807"/>
     <use style="fill:#ff0000;stroke:#ff0000;" x="277.225491" xlink:href="#m55a0869466" y="210.177241"/>
     <use style="fill:#ff0000;stroke:#ff0000;" x="278.754957" xlink:href="#m55a0869466" y="211.041208"/>
     <use style="fill:#ff0000;stroke:#ff0000;" x="280.284422" xlink:href="#m55a0869466" y="210.65126"/>
     <use style="fill:#ff0000;stroke:#ff0000;" x="281.813888" xlink:href="#m55a0869466" y="212.006731"/>
     <use style="fill:#ff0000;stroke:#ff0000;" x="283.343353" xlink:href="#m55a0869466" y="211.663154"/>
     <use style="fill:#ff0000;stroke:#ff0000;" x="284.872819" xlink:href="#m55a0869466" y="211.056759"/>
     <use style="fill:#ff0000;stroke:#ff0000;" x="286.402284" xlink:href="#m55a0869466" y="213.006618"/>
     <use style="fill:#ff0000;stroke:#ff0000;" x="287.93175" xlink:href="#m55a0869466" y="211.068726"/>
     <use style="fill:#ff0000;stroke:#ff0000;" x="289.461215" xlink:href="#m55a0869466" y="211.340249"/>
     <use style="fill:#ff0000;stroke:#ff0000;" x="290.990681" xlink:href="#m55a0869466" y="212.210124"/>
     <use style="fill:#ff0000;stroke:#ff0000;" x="292.520146" xlink:href="#m55a0869466" y="213.995129"/>
     <use style="fill:#ff0000;stroke:#ff0000;" x="294.049612" xlink:href="#m55a0869466" y="213.417706"/>
     <use style="fill:#ff0000;stroke:#ff0000;" x="295.579077" xlink:href="#m55a0869466" y="213.059902"/>
     <use style="fill:#ff0000;stroke:#ff0000;" x="297.108543" xlink:href="#m55a0869466" y="213.729504"/>
     <use style="fill:#ff0000;stroke:#ff0000;" x="298.638008" xlink:href="#m55a0869466" y="213.893284"/>
     <use style="fill:#ff0000;stroke:#ff0000;" x="300.167474" xlink:href="#m55a0869466" y="214.279071"/>
     <use style="fill:#ff0000;stroke:#ff0000;" x="301.696939" xlink:href="#m55a0869466" y="212.831391"/>
     <use style="fill:#ff0000;stroke:#ff0000;" x="303.226405" xlink:href="#m55a0869466" y="214.730042"/>
     <use style="fill:#ff0000;stroke:#ff0000;" x="304.75587" xlink:href="#m55a0869466" y="214.89711"/>
     <use style="fill:#ff0000;stroke:#ff0000;" x="306.285336" xlink:href="#m55a0869466" y="213.834714"/>
     <use style="fill:#ff0000;stroke:#ff0000;" x="307.814801" xlink:href="#m55a0869466" y="215.525721"/>
     <use style="fill:#ff0000;stroke:#ff0000;" x="309.344267" xlink:href="#m55a0869466" y="215.543245"/>
     <use style="fill:#ff0000;stroke:#ff0000;" x="310.873732" xlink:href="#m55a0869466" y="216.098987"/>
     <use style="fill:#ff0000;stroke:#ff0000;" x="312.403198" xlink:href="#m55a0869466" y="216.469418"/>
     <use style="fill:#ff0000;stroke:#ff0000;" x="313.932663" xlink:href="#m55a0869466" y="215.541169"/>
     <use style="fill:#ff0000;stroke:#ff0000;" x="315.462129" xlink:href="#m55a0869466" y="216.603134"/>
     <use style="fill:#ff0000;stroke:#ff0000;" x="316.991594" xlink:href="#m55a0869466" y="216.879463"/>
     <use style="fill:#ff0000;stroke:#ff0000;" x="318.52106" xlink:href="#m55a0869466" y="215.976945"/>
     <use style="fill:#ff0000;stroke:#ff0000;" x="320.050525" xlink:href="#m55a0869466" y="217.207736"/>
     <use style="fill:#ff0000;stroke:#ff0000;" x="321.579991" xlink:href="#m55a0869466" y="216.351234"/>
     <use style="fill:#ff0000;stroke:#ff0000;" x="323.109456" xlink:href="#m55a0869466" y="217.308991"/>
     <use style="fill:#ff0000;stroke:#ff0000;" x="324.638922" xlink:href="#m55a0869466" y="216.435361"/>
     <use style="fill:#ff0000;stroke:#ff0000;" x="326.168387" xlink:href="#m55a0869466" y="217.023523"/>
     <use style="fill:#ff0000;stroke:#ff0000;" x="327.697853" xlink:href="#m55a0869466" y="217.017386"/>
     <use style="fill:#ff0000;stroke:#ff0000;" x="329.227318" xlink:href="#m55a0869466" y="217.124261"/>
     <use style="fill:#ff0000;stroke:#ff0000;" x="330.756784" xlink:href="#m55a0869466" y="218.118351"/>
     <use style="fill:#ff0000;stroke:#ff0000;" x="332.286249" xlink:href="#m55a0869466" y="217.411793"/>
     <use style="fill:#ff0000;stroke:#ff0000;" x="333.815715" xlink:href="#m55a0869466" y="217.822131"/>
     <use style="fill:#ff0000;stroke:#ff0000;" x="335.34518" xlink:href="#m55a0869466" y="218.379664"/>
     <use style="fill:#ff0000;stroke:#ff0000;" x="336.874646" xlink:href="#m55a0869466" y="218.459255"/>
     <use style="fill:#ff0000;stroke:#ff0000;" x="338.404111" xlink:href="#m55a0869466" y="217.559139"/>
     <use style="fill:#ff0000;stroke:#ff0000;" x="339.933577" xlink:href="#m55a0869466" y="218.331749"/>
     <use style="fill:#ff0000;stroke:#ff0000;" x="341.463042" xlink:href="#m55a0869466" y="218.539023"/>
     <use style="fill:#ff0000;stroke:#ff0000;" x="342.992508" xlink:href="#m55a0869466" y="217.948034"/>
     <use style="fill:#ff0000;stroke:#ff0000;" x="344.521974" xlink:href="#m55a0869466" y="219.506545"/>
     <use style="fill:#ff0000;stroke:#ff0000;" x="346.051439" xlink:href="#m55a0869466" y="218.03754"/>
     <use style="fill:#ff0000;stroke:#ff0000;" x="347.580905" xlink:href="#m55a0869466" y="219.74039"/>
     <use style="fill:#ff0000;stroke:#ff0000;" x="349.11037" xlink:href="#m55a0869466" y="218.820729"/>
     <use style="fill:#ff0000;stroke:#ff0000;" x="350.639836" xlink:href="#m55a0869466" y="219.532001"/>
     <use style="fill:#ff0000;stroke:#ff0000;" x="352.169301" xlink:href="#m55a0869466" y="218.145816"/>
     <use style="fill:#ff0000;stroke:#ff0000;" x="353.698767" xlink:href="#m55a0869466" y="219.169746"/>
     <use style="fill:#ff0000;stroke:#ff0000;" x="355.228232" xlink:href="#m55a0869466" y="218.884388"/>
     <use style="fill:#ff0000;stroke:#ff0000;" x="356.757698" xlink:href="#m55a0869466" y="220.350082"/>
     <use style="fill:#ff0000;stroke:#ff0000;" x="358.287163" xlink:href="#m55a0869466" y="219.928004"/>
     <use style="fill:#ff0000;stroke:#ff0000;" x="359.816629" xlink:href="#m55a0869466" y="220.456484"/>
     <use style="fill:#ff0000;stroke:#ff0000;" x="361.346094" xlink:href="#m55a0869466" y="220.793706"/>
     <use style="fill:#ff0000;stroke:#ff0000;" x="362.87556" xlink:href="#m55a0869466" y="220.075876"/>
     <use style="fill:#ff0000;stroke:#ff0000;" x="364.405025" xlink:href="#m55a0869466" y="219.598687"/>
     <use style="fill:#ff0000;stroke:#ff0000;" x="365.934491" xlink:href="#m55a0869466" y="219.172936"/>
     <use style="fill:#ff0000;stroke:#ff0000;" x="367.463956" xlink:href="#m55a0869466" y="220.556089"/>
     <use style="fill:#ff0000;stroke:#ff0000;" x="368.993422" xlink:href="#m55a0869466" y="220.989942"/>
     <use style="fill:#ff0000;stroke:#ff0000;" x="370.522887" xlink:href="#m55a0869466" y="220.71889"/>
     <use style="fill:#ff0000;stroke:#ff0000;" x="372.052353" xlink:href="#m55a0869466" y="221.78297"/>
     <use style="fill:#ff0000;stroke:#ff0000;" x="373.581818" xlink:href="#m55a0869466" y="220.616357"/>
    </g>
   </g>
   <g id="patch_3">
    <path d="M 54 252 
L 54 34.56 
" style="fill:none;stroke:#000000;stroke-linecap:square;stroke-linejoin:miter;stroke-width:0.8;"/>
   </g>
   <g id="patch_4">
    <path d="M 388.8 252 
L 388.8 34.56 
" style="fill:none;stroke:#000000;stroke-linecap:square;stroke-linejoin:miter;stroke-width:0.8;"/>
   </g>
   <g id="patch_5">
    <path d="M 54 252 
L 388.8 252 
" style="fill:none;stroke:#000000;stroke-linecap:square;stroke-linejoin:miter;stroke-width:0.8;"/>
   </g>
   <g id="patch_6">
    <path d="M 54 34.56 
L 388.8 34.56 
" style="fill:none;stroke:#000000;stroke-linecap:square;stroke-linejoin:miter;stroke-width:0.8;"/>
   </g>
   <g id="text_18">
    <!-- Losses -->
    <defs>
     <path d="M 9.8125 72.90625 
L 19.671875 72.90625 
L 19.671875 8.296875 
L 55.171875 8.296875 
L 55.171875 0 
L 9.8125 0 
z
" id="DejaVuSans-76"/>
     <path d="M 30.609375 48.390625 
Q 23.390625 48.390625 19.1875 42.75 
Q 14.984375 37.109375 14.984375 27.296875 
Q 14.984375 17.484375 19.15625 11.84375 
Q 23.34375 6.203125 30.609375 6.203125 
Q 37.796875 6.203125 41.984375 11.859375 
Q 46.1875 17.53125 46.1875 27.296875 
Q 46.1875 37.015625 41.984375 42.703125 
Q 37.796875 48.390625 30.609375 48.390625 
z
M 30.609375 56 
Q 42.328125 56 49.015625 48.375 
Q 55.71875 40.765625 55.71875 27.296875 
Q 55.71875 13.875 49.015625 6.21875 
Q 42.328125 -1.421875 30.609375 -1.421875 
Q 18.84375 -1.421875 12.171875 6.21875 
Q 5.515625 13.875 5.515625 27.296875 
Q 5.515625 40.765625 12.171875 48.375 
Q 18.84375 56 30.609375 56 
z
" id="DejaVuSans-111"/>
     <path d="M 44.28125 53.078125 
L 44.28125 44.578125 
Q 40.484375 46.53125 36.375 47.5 
Q 32.28125 48.484375 27.875 48.484375 
Q 21.1875 48.484375 17.84375 46.4375 
Q 14.5 44.390625 14.5 40.28125 
Q 14.5 37.15625 16.890625 35.375 
Q 19.28125 33.59375 26.515625 31.984375 
L 29.59375 31.296875 
Q 39.15625 29.25 43.1875 25.515625 
Q 47.21875 21.78125 47.21875 15.09375 
Q 47.21875 7.46875 41.1875 3.015625 
Q 35.15625 -1.421875 24.609375 -1.421875 
Q 20.21875 -1.421875 15.453125 -0.5625 
Q 10.6875 0.296875 5.421875 2 
L 5.421875 11.28125 
Q 10.40625 8.6875 15.234375 7.390625 
Q 20.0625 6.109375 24.8125 6.109375 
Q 31.15625 6.109375 34.5625 8.28125 
Q 37.984375 10.453125 37.984375 14.40625 
Q 37.984375 18.0625 35.515625 20.015625 
Q 33.0625 21.96875 24.703125 23.78125 
L 21.578125 24.515625 
Q 13.234375 26.265625 9.515625 29.90625 
Q 5.8125 33.546875 5.8125 39.890625 
Q 5.8125 47.609375 11.28125 51.796875 
Q 16.75 56 26.8125 56 
Q 31.78125 56 36.171875 55.265625 
Q 40.578125 54.546875 44.28125 53.078125 
z
" id="DejaVuSans-115"/>
     <path d="M 56.203125 29.59375 
L 56.203125 25.203125 
L 14.890625 25.203125 
Q 15.484375 15.921875 20.484375 11.0625 
Q 25.484375 6.203125 34.421875 6.203125 
Q 39.59375 6.203125 44.453125 7.46875 
Q 49.3125 8.734375 54.109375 11.28125 
L 54.109375 2.78125 
Q 49.265625 0.734375 44.1875 -0.34375 
Q 39.109375 -1.421875 33.890625 -1.421875 
Q 20.796875 -1.421875 13.15625 6.1875 
Q 5.515625 13.8125 5.515625 26.8125 
Q 5.515625 40.234375 12.765625 48.109375 
Q 20.015625 56 32.328125 56 
Q 43.359375 56 49.78125 48.890625 
Q 56.203125 41.796875 56.203125 29.59375 
z
M 47.21875 32.234375 
Q 47.125 39.59375 43.09375 43.984375 
Q 39.0625 48.390625 32.421875 48.390625 
Q 24.90625 48.390625 20.390625 44.140625 
Q 15.875 39.890625 15.1875 32.171875 
z
" id="DejaVuSans-101"/>
    </defs>
    <g transform="translate(201.317813 28.56)scale(0.12 -0.12)">
     <use xlink:href="#DejaVuSans-76"/>
     <use x="55.697266" xlink:href="#DejaVuSans-111"/>
     <use x="116.878906" xlink:href="#DejaVuSans-115"/>
     <use x="168.978516" xlink:href="#DejaVuSans-115"/>
     <use x="221.078125" xlink:href="#DejaVuSans-101"/>
     <use x="282.601562" xlink:href="#DejaVuSans-115"/>
    </g>
   </g>
  </g>
  <g id="legend_1">
   <g id="patch_7">
    <path d="M 369.048437 37.35625 
L 425 37.35625 
Q 427 37.35625 427 35.35625 
L 427 7 
Q 427 5 425 5 
L 369.048437 5 
Q 367.048437 5 367.048437 7 
L 367.048437 35.35625 
Q 367.048437 37.35625 369.048437 37.35625 
z
" style="fill:#ffffff;opacity:0.8;stroke:#cccccc;stroke-linejoin:miter;"/>
   </g>
   <g id="line2d_20">
    <path d="M 371.048437 13.098437 
L 391.048437 13.098437 
" style="fill:none;stroke:#0000ff;stroke-linecap:square;stroke-width:1.5;"/>
   </g>
   <g id="line2d_21">
    <g>
     <use style="fill:#0000ff;stroke:#0000ff;" x="381.048437" xlink:href="#mc34671c50f" y="13.098437"/>
    </g>
   </g>
   <g id="text_19">
    <!-- train -->
    <defs>
     <path d="M 18.3125 70.21875 
L 18.3125 54.6875 
L 36.8125 54.6875 
L 36.8125 47.703125 
L 18.3125 47.703125 
L 18.3125 18.015625 
Q 18.3125 11.328125 20.140625 9.421875 
Q 21.96875 7.515625 27.59375 7.515625 
L 36.8125 7.515625 
L 36.8125 0 
L 27.59375 0 
Q 17.1875 0 13.234375 3.875 
Q 9.28125 7.765625 9.28125 18.015625 
L 9.28125 47.703125 
L 2.6875 47.703125 
L 2.6875 54.6875 
L 9.28125 54.6875 
L 9.28125 70.21875 
z
" id="DejaVuSans-116"/>
     <path d="M 41.109375 46.296875 
Q 39.59375 47.171875 37.8125 47.578125 
Q 36.03125 48 33.890625 48 
Q 26.265625 48 22.1875 43.046875 
Q 18.109375 38.09375 18.109375 28.8125 
L 18.109375 0 
L 9.078125 0 
L 9.078125 54.6875 
L 18.109375 54.6875 
L 18.109375 46.1875 
Q 20.953125 51.171875 25.484375 53.578125 
Q 30.03125 56 36.53125 56 
Q 37.453125 56 38.578125 55.875 
Q 39.703125 55.765625 41.0625 55.515625 
z
" id="DejaVuSans-114"/>
     <path d="M 34.28125 27.484375 
Q 23.390625 27.484375 19.1875 25 
Q 14.984375 22.515625 14.984375 16.5 
Q 14.984375 11.71875 18.140625 8.90625 
Q 21.296875 6.109375 26.703125 6.109375 
Q 34.1875 6.109375 38.703125 11.40625 
Q 43.21875 16.703125 43.21875 25.484375 
L 43.21875 27.484375 
z
M 52.203125 31.203125 
L 52.203125 0 
L 43.21875 0 
L 43.21875 8.296875 
Q 40.140625 3.328125 35.546875 0.953125 
Q 30.953125 -1.421875 24.3125 -1.421875 
Q 15.921875 -1.421875 10.953125 3.296875 
Q 6 8.015625 6 15.921875 
Q 6 25.140625 12.171875 29.828125 
Q 18.359375 34.515625 30.609375 34.515625 
L 43.21875 34.515625 
L 43.21875 35.40625 
Q 43.21875 41.609375 39.140625 45 
Q 35.0625 48.390625 27.6875 48.390625 
Q 23 48.390625 18.546875 47.265625 
Q 14.109375 46.140625 10.015625 43.890625 
L 10.015625 52.203125 
Q 14.9375 54.109375 19.578125 55.046875 
Q 24.21875 56 28.609375 56 
Q 40.484375 56 46.34375 49.84375 
Q 52.203125 43.703125 52.203125 31.203125 
z
" id="DejaVuSans-97"/>
     <path d="M 9.421875 54.6875 
L 18.40625 54.6875 
L 18.40625 0 
L 9.421875 0 
z
M 9.421875 75.984375 
L 18.40625 75.984375 
L 18.40625 64.59375 
L 9.421875 64.59375 
z
" id="DejaVuSans-105"/>
     <path d="M 54.890625 33.015625 
L 54.890625 0 
L 45.90625 0 
L 45.90625 32.71875 
Q 45.90625 40.484375 42.875 44.328125 
Q 39.84375 48.1875 33.796875 48.1875 
Q 26.515625 48.1875 22.3125 43.546875 
Q 18.109375 38.921875 18.109375 30.90625 
L 18.109375 0 
L 9.078125 0 
L 9.078125 54.6875 
L 18.109375 54.6875 
L 18.109375 46.1875 
Q 21.34375 51.125 25.703125 53.5625 
Q 30.078125 56 35.796875 56 
Q 45.21875 56 50.046875 50.171875 
Q 54.890625 44.34375 54.890625 33.015625 
z
" id="DejaVuSans-110"/>
    </defs>
    <g transform="translate(399.048437 16.598437)scale(0.1 -0.1)">
     <use xlink:href="#DejaVuSans-116"/>
     <use x="39.208984" xlink:href="#DejaVuSans-114"/>
     <use x="80.322266" xlink:href="#DejaVuSans-97"/>
     <use x="141.601562" xlink:href="#DejaVuSans-105"/>
     <use x="169.384766" xlink:href="#DejaVuSans-110"/>
    </g>
   </g>
   <g id="line2d_22">
    <path d="M 371.048437 27.776563 
L 391.048437 27.776563 
" style="fill:none;stroke:#ff0000;stroke-linecap:square;stroke-width:1.5;"/>
   </g>
   <g id="line2d_23">
    <g>
     <use style="fill:#ff0000;stroke:#ff0000;" x="381.048437" xlink:href="#m55a0869466" y="27.776563"/>
    </g>
   </g>
   <g id="text_20">
    <!-- valid -->
    <defs>
     <path d="M 2.984375 54.6875 
L 12.5 54.6875 
L 29.59375 8.796875 
L 46.6875 54.6875 
L 56.203125 54.6875 
L 35.6875 0 
L 23.484375 0 
z
" id="DejaVuSans-118"/>
     <path d="M 9.421875 75.984375 
L 18.40625 75.984375 
L 18.40625 0 
L 9.421875 0 
z
" id="DejaVuSans-108"/>
     <path d="M 45.40625 46.390625 
L 45.40625 75.984375 
L 54.390625 75.984375 
L 54.390625 0 
L 45.40625 0 
L 45.40625 8.203125 
Q 42.578125 3.328125 38.25 0.953125 
Q 33.9375 -1.421875 27.875 -1.421875 
Q 17.96875 -1.421875 11.734375 6.484375 
Q 5.515625 14.40625 5.515625 27.296875 
Q 5.515625 40.1875 11.734375 48.09375 
Q 17.96875 56 27.875 56 
Q 33.9375 56 38.25 53.625 
Q 42.578125 51.265625 45.40625 46.390625 
z
M 14.796875 27.296875 
Q 14.796875 17.390625 18.875 11.75 
Q 22.953125 6.109375 30.078125 6.109375 
Q 37.203125 6.109375 41.296875 11.75 
Q 45.40625 17.390625 45.40625 27.296875 
Q 45.40625 37.203125 41.296875 42.84375 
Q 37.203125 48.484375 30.078125 48.484375 
Q 22.953125 48.484375 18.875 42.84375 
Q 14.796875 37.203125 14.796875 27.296875 
z
" id="DejaVuSans-100"/>
    </defs>
    <g transform="translate(399.048437 31.276563)scale(0.1 -0.1)">
     <use xlink:href="#DejaVuSans-118"/>
     <use x="59.179688" xlink:href="#DejaVuSans-97"/>
     <use x="120.458984" xlink:href="#DejaVuSans-108"/>
     <use x="148.242188" xlink:href="#DejaVuSans-105"/>
     <use x="176.025391" xlink:href="#DejaVuSans-100"/>
    </g>
   </g>
  </g>
 </g>
 <defs>
  <clipPath id="pea25dd3c69">
   <rect height="217.44" width="334.8" x="54" y="34.56"/>
  </clipPath>
 </defs>
</svg>
